<svg width="80" height="80" viewBox="0 0 80 80" fill="#f070a1" xmlns="http://www.w3.org/2000/svg">
<path d="M40.0028 54.7627C40.4653 54.7627 40.9089 54.5789 41.2359 54.2519C41.563 53.9248 41.7467 53.4812 41.7467 53.0187V26.9813C41.7467 26.5187 41.563 26.0752 41.2359 25.7481C40.9089 25.4211 40.4653 25.2373 40.0028 25.2373C39.5402 25.2373 39.0967 25.4211 38.7696 25.7481C38.4426 26.0752 38.2588 26.5187 38.2588 26.9813V53.0187C38.2588 53.4812 38.4426 53.9248 38.7696 54.2519C39.0967 54.5789 39.5402 54.7627 40.0028 54.7627V54.7627Z" fill="#f070a1"/>
<path d="M17 17V63H63V17H17ZM59.5121 59.5121H20.4879V20.4879H59.5121V59.5121Z" fill="#f070a1"/>
</svg>
