<svg width="80" height="80" viewBox="0 0 80 80" fill="#f070a1" xmlns="http://www.w3.org/2000/svg">
<path d="M17 17V63H63V17H17ZM59.631 35.8945C58.8248 32.0761 56.9268 28.5743 54.168 25.8152C51.4093 23.056 47.9086 21.1584 44.0918 20.3532H59.631V35.8945ZM35.8616 20.3299C32.0455 21.1354 28.5458 23.0332 25.788 25.7924C23.0302 28.5516 21.1334 32.0532 20.3282 35.8712V20.3532L35.8616 20.3299ZM20.3282 44.0822C21.1334 47.9002 23.0302 51.4018 25.788 54.1609C28.5458 56.9201 32.0455 58.8179 35.8616 59.6235H20.3282V44.0822ZM44.0684 59.6235C47.8853 58.8182 51.386 56.9207 54.1448 54.1615C56.9035 51.4024 58.8015 47.9006 59.6077 44.0822V59.6468L44.0684 59.6235Z" fill="#f070a1"/>
</svg>
