<svg width="80" height="80" viewBox="0 0 80 80" fill="#f070a1" xmlns="http://www.w3.org/2000/svg">
<path d="M29.6812 38.7218H34.5077L30.6948 48.4105H33.5126L37.5859 37.873V36.0754H29.6812V38.7218Z" fill="#f070a1"/>
<path d="M42.4409 35.937C39.651 35.937 38.2793 38.4021 38.2793 42.2452C38.2793 46.0883 39.6742 48.5534 42.4642 48.5534C45.2541 48.5534 46.5886 46.0835 46.5886 42.2452C46.5886 38.4069 45.2401 35.937 42.4409 35.937ZM42.4734 46.0835C41.6132 46.0835 41.032 45.1013 41.032 42.2452C41.032 39.3891 41.497 38.4021 42.4269 38.4021C43.3569 38.4021 43.8219 39.3557 43.8219 42.2452C43.8219 45.1347 43.4546 46.0978 42.4734 46.0978V46.0835Z" fill="#f070a1"/>
<path d="M50.9871 35.1933C50.1871 35.2251 49.4303 35.5733 48.8753 36.1649C48.3203 36.7565 48.0103 37.5455 48.0103 38.3665C48.0103 39.1874 48.3203 39.9764 48.8753 40.568C49.4303 41.1596 50.1871 41.5078 50.9871 41.5396C51.8224 41.5296 52.6199 41.1809 53.2054 40.5698C53.7909 39.9588 54.1167 39.1349 54.1118 38.2782C54.1154 37.8619 54.0361 37.4492 53.8789 37.0654C53.7216 36.6816 53.4896 36.3347 53.1972 36.0459C52.9047 35.7571 52.5578 35.5326 52.1778 35.386C51.7978 35.2394 51.3926 35.1738 50.9871 35.1933V35.1933ZM51.0196 39.2462C50.8493 39.2462 50.6828 39.1943 50.5412 39.0972C50.3997 39 50.2894 38.862 50.2244 38.7005C50.1595 38.5391 50.1427 38.3615 50.1763 38.1902C50.2099 38.019 50.2923 37.8618 50.413 37.7387C50.5338 37.6155 50.6875 37.5319 50.8547 37.4984C51.0218 37.4649 51.195 37.483 51.3521 37.5505C51.5092 37.618 51.6432 37.7318 51.7371 37.8775C51.8311 38.0232 51.8808 38.1942 51.8798 38.3688C51.8762 38.6012 51.7843 38.8229 51.6236 38.9868C51.4629 39.1507 51.2462 39.2437 51.0196 39.2462V39.2462Z" fill="#f070a1"/>
<path d="M62.8952 24.0871C62.7157 24.0495 62.5307 24.0485 62.3508 24.0842C62.1709 24.1199 61.9996 24.1917 61.8468 24.2953C61.6939 24.3989 61.5625 24.5324 61.4599 24.6881C61.3574 24.8438 61.2858 25.0187 61.2492 25.2028C61.2492 25.2648 60.84 27.234 60.282 29.9709C56.5156 29.8803 54.8696 26.4139 54.7998 26.2661C54.6928 26.0324 54.526 25.8328 54.3173 25.6884C54.1085 25.544 53.8656 25.4602 53.6141 25.446C53.3617 25.4318 53.1103 25.4881 52.8867 25.6091C52.6631 25.73 52.4758 25.911 52.3447 26.1326L52.2192 26.3472C51.3683 27.7776 50.0849 29.9804 46.9835 29.9804C43.789 29.9804 41.9802 27.3294 41.2084 26.1993L41.1107 26.0515C40.9875 25.8722 40.8257 25.7242 40.6379 25.6192C40.45 25.5142 40.2411 25.455 40.0273 25.446C39.8142 25.4372 39.6019 25.4786 39.4069 25.567C39.2118 25.6555 39.0391 25.7886 38.902 25.9562C38.7672 26.1183 38.6091 26.3281 38.4371 26.5665C37.4327 27.9254 35.9168 29.9804 33.0711 29.9804C29.1885 29.9804 27.4913 26.4187 27.4309 26.2661C27.3234 26.0317 27.156 25.8316 26.9463 25.6872C26.7367 25.5427 26.4927 25.4594 26.2405 25.446C25.9888 25.4357 25.739 25.4943 25.5167 25.6158C25.2944 25.7373 25.1077 25.9173 24.9758 26.1374L24.8549 26.3424C24.0179 27.7728 22.7578 29.9233 19.74 29.9757C19.1821 27.215 18.8101 25.2457 18.7729 25.2076C18.7435 25.0165 18.6766 24.8334 18.5762 24.6696C18.4758 24.5057 18.3441 24.3645 18.189 24.2543C18.0338 24.1442 17.8585 24.0675 17.6736 24.0288C17.4887 23.9902 17.2981 23.9904 17.1133 24.0295C16.9285 24.0685 16.7534 24.1456 16.5985 24.2561C16.4436 24.3666 16.3121 24.5081 16.2121 24.6722C16.1121 24.8363 16.0456 25.0194 16.0166 25.2106C15.9876 25.4018 15.9967 25.5971 16.0434 25.7845C16.0853 25.9991 20.3352 47.1456 20.6375 48.6714C21.693 54.0117 24.2829 56 30.1836 56H49.8292C55.7298 56 58.3198 54.0117 59.3753 48.6714C59.6775 47.1361 63.9275 25.9895 63.9693 25.7845C64.0075 25.6007 64.0101 25.411 63.9768 25.2262C63.9435 25.0415 63.875 24.8652 63.7752 24.7076C63.6755 24.55 63.5464 24.414 63.3954 24.3076C63.2444 24.2011 63.0745 24.1262 62.8952 24.0871ZM56.6505 48.1088C55.9158 51.8231 54.7905 53.1439 49.8385 53.1439H30.1743C25.2362 53.1439 24.0969 51.8231 23.3623 48.1088C23.1809 47.1552 21.5628 39.1304 20.298 32.8509C21.4574 32.772 22.5856 32.432 23.6023 31.8552C24.619 31.2783 25.4991 30.4786 26.1801 29.5132C27.0127 30.5675 28.0662 31.4159 29.2624 31.9953C30.4586 32.5748 31.7668 32.8705 33.0897 32.8604C36.5539 32.8604 38.7021 30.8053 39.9669 29.2462C41.2781 30.8435 43.5379 32.8604 47.0021 32.8604C48.278 32.8814 49.54 32.5853 50.6801 31.9974C51.8202 31.4096 52.8045 30.5474 53.549 29.4846C54.3099 30.432 55.2468 31.2149 56.3053 31.7879C57.3637 32.3608 58.5226 32.7124 59.7147 32.8222C58.45 39.1257 56.8318 47.179 56.6505 48.1088Z" fill="#f070a1"/>
</svg>
