<svg width="80" height="80" viewBox="0 0 80 80" fill="#f070a1" xmlns="http://www.w3.org/2000/svg">
<path d="M43.6099 59.9673C46.2419 59.4157 48.7338 58.3331 50.9331 56.7856L48.6065 54.459C45.8895 56.2258 42.7181 57.1662 39.4772 57.1662C36.2363 57.1662 33.065 56.2258 30.348 54.459L28.0213 56.7507C30.2253 58.3037 32.7232 59.3904 35.3619 59.9441H24.8338L21.4893 63.2886H57.4012L54.0566 59.9441L43.6099 59.9673Z" fill="#f070a1"/>
<path d="M62.4557 62.2178V22.397L59.1112 25.7416V36.2755C58.558 33.6376 57.4734 31.14 55.9236 28.9349L53.597 31.2267C55.6233 34.3425 56.5566 38.0435 56.2502 41.7476C55.9438 45.4518 54.415 48.949 51.9043 51.6896L40.7073 40.4926L67.7489 13.4859C67.903 13.3205 67.9869 13.1017 67.9829 12.8757C67.9789 12.6497 67.8873 12.434 67.7275 12.2741C67.5676 12.1143 67.352 12.0227 67.1259 12.0187C66.8999 12.0148 66.6811 12.0987 66.5157 12.2528L61.339 17.4296H17.6676L12.4907 12.2528C12.3264 12.0908 12.1049 12 11.8742 12C11.6435 12 11.4219 12.0908 11.2576 12.2528C11.176 12.3334 11.1112 12.4294 11.067 12.5352C11.0228 12.6411 11 12.7546 11 12.8693C11 12.984 11.0228 13.0976 11.067 13.2034C11.1112 13.3093 11.176 13.4053 11.2576 13.4859L38.2701 40.4984L27.0847 51.6838C24.5809 48.9454 23.0564 45.4537 22.7501 41.7558C22.4438 38.058 23.373 34.363 25.3921 31.2499L23.1004 28.9524C21.5535 31.1542 20.4709 33.6478 19.9186 36.2813V25.7648L16.574 22.4203V62.1887L11.2576 67.5051C11.176 67.5857 11.1112 67.6817 11.067 67.7875C11.0228 67.8934 11 68.007 11 68.1217C11 68.2364 11.0228 68.3499 11.067 68.4558C11.1112 68.5616 11.176 68.6576 11.2576 68.7382C11.3375 68.8206 11.4335 68.8858 11.5395 68.9298C11.6455 68.9738 11.7594 68.9957 11.8742 68.9942C11.9889 68.995 12.1026 68.9728 12.2085 68.9289C12.3144 68.8849 12.4104 68.82 12.4907 68.7382L39.5033 41.7257L66.5157 68.744C66.5957 68.8264 66.6916 68.8916 66.7976 68.9356C66.9036 68.9796 67.0176 69.0015 67.1323 68.9999C67.247 69.0005 67.3605 68.9781 67.4664 68.9342C67.5723 68.8902 67.6683 68.8256 67.7489 68.744C67.9108 68.5797 68.0017 68.3582 68.0017 68.1274C68.0017 67.8967 67.9108 67.6752 67.7489 67.5109L62.4557 62.2178ZM19.9186 44.4654C20.6622 48.01 22.3597 51.2843 24.8279 53.9348L19.9186 58.8441V44.4654ZM57.9944 20.7684L53.0793 25.7009C50.4262 23.2318 47.1505 21.5326 43.604 20.7858L57.9944 20.7684ZM35.42 20.7684C31.8687 21.5179 28.5889 23.2211 25.9331 25.695L21.0121 20.7684H35.42ZM28.1899 27.9519C31.2778 25.1192 35.3158 23.5477 39.5062 23.5477C43.6965 23.5477 47.7345 25.1192 50.8224 27.9519L39.5033 39.2711L28.1899 27.9519ZM59.1286 44.4595V58.8557L54.2078 53.929C56.6792 51.2791 58.3806 48.005 59.1286 44.4595Z" fill="#f070a1"/>
</svg>
