<svg width="80" height="80" viewBox="0 0 80 80" fill="#f070a1" xmlns="http://www.w3.org/2000/svg">
<path d="M40.2303 59.2156C36.4505 59.2206 32.754 58.1054 29.6076 56.0109L27.1099 58.5086C30.9742 61.2523 35.6014 62.7156 40.3406 62.6927C45.0798 62.6698 49.6927 61.1619 53.5303 58.3811L51.0384 55.8892C47.8534 58.0621 44.0859 59.2217 40.2303 59.2156V59.2156Z" fill="#f070a1"/>
<path d="M56.7582 55.5422C60.3707 51.7322 62.5484 46.7862 62.9194 41.5489C63.2904 36.3117 61.8317 31.1081 58.7923 26.8269L56.3003 29.3246C58.6911 32.9317 59.7943 37.2402 59.4314 41.5524C59.0686 45.8646 57.2609 49.9281 54.301 53.085L41.6153 40.3935L68.5573 13.4862C68.7108 13.3214 68.7944 13.1035 68.7904 12.8783C68.7865 12.6531 68.6952 12.4382 68.536 12.2789C68.3767 12.1197 68.1618 12.0285 67.9366 12.0245C67.7114 12.0205 67.4935 12.1041 67.3287 12.2576L56.0164 23.5699C51.8153 19.5104 46.2096 17.2288 40.3676 17.2008C34.5257 17.1727 28.8983 19.4003 24.6584 23.4193L13.5026 12.2518C13.3389 12.0905 13.1182 12 12.8883 12C12.6584 12 12.4378 12.0905 12.274 12.2518C12.1927 12.3322 12.1282 12.4278 12.0841 12.5333C12.0401 12.6387 12.0174 12.7519 12.0174 12.8661C12.0174 12.9804 12.0401 13.0936 12.0841 13.199C12.1282 13.3045 12.1927 13.4001 12.274 13.4804L39.1871 40.3935L26.3332 53.2473C23.2837 50.0694 21.4164 45.9417 21.043 41.5531C20.6697 37.1646 21.8128 32.7807 24.2817 29.1333L21.7956 26.6414C18.6713 30.9559 17.1648 36.2321 17.5399 41.5457C17.915 46.8594 20.1477 51.8716 23.8471 55.7044L12.2566 67.2949C12.1753 67.3752 12.1108 67.4709 12.0667 67.5763C12.0227 67.6818 12 67.7949 12 67.9092C12 68.0235 12.0227 68.1366 12.0667 68.2421C12.1108 68.3475 12.1753 68.4432 12.2566 68.5235C12.3363 68.6056 12.4318 68.6705 12.5375 68.7143C12.6431 68.7582 12.7566 68.78 12.8709 68.7785C12.9868 68.784 13.1027 68.7657 13.2113 68.7249C13.3199 68.684 13.4191 68.6214 13.5026 68.5409L40.4156 41.6278L67.3287 68.5409C67.4083 68.623 67.5039 68.6879 67.6095 68.7317C67.7152 68.7756 67.8286 68.7974 67.9429 68.7958C68.0571 68.7964 68.1704 68.7741 68.2758 68.7303C68.3813 68.6865 68.477 68.6221 68.5573 68.5409C68.7186 68.3772 68.8091 68.1565 68.8091 67.9266C68.8091 67.6967 68.7186 67.476 68.5573 67.3123L56.7582 55.5422ZM27.0924 25.8706C30.6801 22.5052 35.4224 20.6447 40.3414 20.6727C45.2604 20.7007 49.9812 22.6152 53.5302 26.0213L40.3867 39.1649L27.0924 25.8706Z" fill="#f070a1"/>
</svg>
