<svg width="80" height="80" viewBox="0 0 80 80" fill="#f070a1" xmlns="http://www.w3.org/2000/svg">
<path d="M17 17V63H63V17H17ZM59.631 35.8945C58.8248 32.0761 56.9268 28.5743 54.168 25.8152C51.4093 23.056 47.9086 21.1584 44.0918 20.3532H59.631V35.8945ZM56.8449 39.9767C56.8449 43.3123 55.8563 46.573 54.0041 49.3464C52.1519 52.1199 49.5192 54.2815 46.4391 55.558C43.3589 56.8345 39.9696 57.1685 36.6998 56.5177C33.4299 55.867 30.4264 54.2607 28.0689 51.9021C25.7115 49.5435 24.1061 46.5384 23.4557 43.2669C22.8053 39.9954 23.1391 36.6044 24.4149 33.5227C25.6908 30.441 27.8513 27.807 30.6233 25.9538C33.3954 24.1007 36.6545 23.1116 39.9884 23.1116C44.4616 23.1162 48.75 24.8977 51.9108 28.0646C55.0717 31.2315 56.8464 35.5245 56.8449 40V39.9767ZM35.8616 20.3299C32.0455 21.1354 28.5458 23.0332 25.788 25.7924C23.0302 28.5516 21.1334 32.0532 20.3282 35.8712V20.3532L35.8616 20.3299ZM20.3282 44.0822C21.1334 47.9002 23.0302 51.4018 25.788 54.1609C28.5458 56.9201 32.0455 58.8179 35.8616 59.6235H20.3282V44.0822ZM44.0684 59.6235C47.8853 58.8183 51.386 56.9207 54.1448 54.1615C56.9035 51.4024 58.8015 47.9006 59.6077 44.0822V59.6468L44.0684 59.6235Z" fill="#f070a1"/>
</svg>
