<svg width="80" height="80" viewBox="0 0 80 80" fill="#f070a1" xmlns="http://www.w3.org/2000/svg">
<path fill-rule="evenodd" clip-rule="evenodd" d="M63.729 56.0872C63.5516 55.2006 59.3982 34.4334 59.0221 32.6925C57.3725 25.009 53.5146 22 45.2561 22H28.277C27.8495 22 27.4395 22.1698 27.1372 22.4721C26.8349 22.7744 26.6651 23.1844 26.6651 23.6119C26.6651 24.0395 26.8349 24.4494 27.1372 24.7517C27.4395 25.054 27.8495 25.2239 28.277 25.2239H45.2561C52.7785 25.2239 54.7128 27.9588 55.8681 33.3534C55.9164 33.563 56.0185 34.0734 56.169 34.8042H39.5122C17.0579 34.8042 15.1451 56.0442 15.129 56.2591L15 58H64.1158L63.729 56.0872ZM18.6215 54.7761C19.1648 52.121 20.155 49.5774 21.5499 47.2537C25.2734 41.1445 31.3182 38.0442 39.5176 38.0442H56.8191C57.8615 43.2024 59.4519 51.1546 60.1827 54.7869L18.6215 54.7761Z" fill="#f070a1"/>
<path fill-rule="evenodd" clip-rule="evenodd" d="M46.1107 43.6538C45.4401 43.6538 44.7846 43.8527 44.227 44.2252C43.6695 44.5978 43.2349 45.1273 42.9783 45.7468C42.7217 46.3663 42.6545 47.048 42.7854 47.7057C42.9162 48.3634 43.2391 48.9675 43.7133 49.4417C44.1874 49.9158 44.7915 50.2388 45.4492 50.3696C46.1069 50.5004 46.7886 50.4332 47.4081 50.1766C48.0277 49.92 48.5572 49.4855 48.9297 48.9279C49.3023 48.3703 49.5011 47.7148 49.5011 47.0443C49.5018 46.5988 49.4146 46.1576 49.2445 45.746C49.0743 45.3343 48.8246 44.9603 48.5097 44.6453C48.1947 44.3303 47.8206 44.0806 47.409 43.9105C46.9973 43.7403 46.5561 43.6531 46.1107 43.6538V43.6538Z" fill="#f070a1"/>
<path fill-rule="evenodd" clip-rule="evenodd" d="M36.0521 43.6538C35.3817 43.6549 34.7268 43.8546 34.1699 44.2278C33.6131 44.601 33.1793 45.1309 32.9235 45.7505C32.6677 46.3701 32.6014 47.0517 32.7328 47.709C32.8642 48.3663 33.1876 48.9699 33.6619 49.4436C34.1363 49.9172 34.7404 50.2396 35.398 50.37C36.0555 50.5003 36.7369 50.4329 37.3561 50.1761C37.9754 49.9193 38.5046 49.4848 38.8769 48.9273C39.2492 48.3699 39.4479 47.7146 39.4479 47.0443C39.4479 46.5986 39.36 46.1573 39.1893 45.7456C39.0186 45.3339 38.7684 44.9599 38.453 44.645C38.1375 44.3301 37.7632 44.0804 37.3512 43.9104C36.9392 43.7403 36.4978 43.6531 36.0521 43.6538V43.6538Z" fill="#f070a1"/>
</svg>
