<svg width="80" height="80" viewBox="0 0 80 80" fill="#f070a1" xmlns="http://www.w3.org/2000/svg">
<path d="M62.8649 24.8224C62.6851 24.785 62.4996 24.7835 62.3192 24.818C62.1389 24.8526 61.9671 24.9225 61.8137 25.0237C61.6604 25.1249 61.5285 25.2555 61.4257 25.4079C61.3229 25.5603 61.2511 25.7315 61.2146 25.9118C61.2146 26.0002 60.3871 29.9294 59.4527 34.4778C57.8049 34.1867 56.3373 33.2587 55.3664 31.894C55.1386 32.9555 54.9015 34.0728 54.6645 35.1994C55.8664 36.2397 57.3262 36.9361 58.8902 37.2153L56.6169 48.2767C55.8824 51.9033 54.7574 53.1929 49.8112 53.1929H30.1469C25.2146 53.1929 24.0756 51.9033 23.3411 48.2767C23.1924 47.5551 22.1371 42.4015 21.0725 37.2246C23.1108 36.8725 24.93 35.7343 26.1397 34.0542C26.9667 35.087 28.0156 35.9197 29.2084 36.4904C30.4012 37.0611 31.7072 37.355 33.0291 37.3503C33.888 37.3527 34.7418 37.2175 35.5581 36.9499L31.9832 44.1705C30.9837 45.907 33.6242 47.6249 34.7166 45.7488L39.8628 36.1445L40.588 36.3354L36.5854 47.7041C35.8649 49.515 38.5658 50.4182 39.2306 48.8027L43.7306 37.164L44.4465 37.3549L41.4899 48.9936C41.0622 50.5998 43.7073 51.4703 44.2419 49.785L47.5658 38.1463L48.2538 38.3279L47.0591 46.3586C46.7755 48.1882 49.509 48.6864 49.8762 46.8754C49.8762 46.8754 53.572 28.165 54.8969 23.3466C54.1298 20.4043 48.8535 17.8997 45.1345 18.0067C44.2048 19.5617 43.3029 20.5533 41.5457 22.4341C39.1981 24.9481 34.8096 27.7134 29.8215 29.2497C30.3933 31.4518 31.2161 32.2199 34.0054 32.043C35.5302 31.9406 37.399 31.2143 38.6774 30.7116L38.4217 31.219V31.2469C37.4222 32.5737 35.9067 34.5803 33.0617 34.5803C29.18 34.5803 27.4832 31.098 27.4227 30.949C27.3146 30.7218 27.1471 30.5281 26.9381 30.3883C26.7291 30.2486 26.4862 30.168 26.2352 30.1551C25.9842 30.1423 25.7344 30.1976 25.5122 30.3152C25.29 30.4328 25.1036 30.6083 24.9729 30.8233L24.852 31.0235C24.0896 32.2898 22.9925 34.1333 20.524 34.5058L18.7621 25.935C18.7252 25.7553 18.6533 25.5846 18.5504 25.4327C18.4476 25.2808 18.316 25.1506 18.1629 25.0497C18.0099 24.9488 17.8385 24.879 17.6586 24.8444C17.4786 24.8098 17.2936 24.811 17.1141 24.848C16.9346 24.885 16.7642 24.957 16.6125 25.0599C16.4608 25.1629 16.3309 25.2948 16.2301 25.448C16.1293 25.6013 16.0596 25.7729 16.025 25.9531C15.9905 26.1333 15.9917 26.3186 16.0286 26.4984C16.0751 26.7078 20.3194 47.3549 20.6263 48.8447C21.6815 54.0588 24.2662 56.0001 30.1655 56.0001H49.8297C55.729 56.0001 58.3137 54.0588 59.3736 48.8447C59.6758 47.3456 63.9248 26.6985 63.9666 26.4984C64.0073 26.3157 64.0108 26.1266 63.9771 25.9425C63.9434 25.7584 63.873 25.583 63.7702 25.4266C63.6675 25.2703 63.5343 25.1362 63.3788 25.0324C63.2233 24.9286 63.0485 24.8572 62.8649 24.8224Z" fill="#f070a1"/>
<path d="M55.8915 22.0801C57.3977 20.7766 57.7835 19.92 56.5516 18.2347C54.6921 15.7021 51.0986 14.1192 47.8445 14.0028C45.985 13.933 45.376 15.1574 45.2598 16.4842C48.7231 16.3213 54.4039 18.3511 55.8915 22.0801Z" fill="#f070a1"/>
</svg>
