<svg width="80" height="80" viewBox="0 0 80 80" fill="#f070a1" xmlns="http://www.w3.org/2000/svg">
<path d="M27.9355 57.717L24.8525 60.9008H55.1512L52.0629 57.717H27.9355Z" fill="#f070a1"/>
<path d="M60.6168 60.9007H64.7026L64.3206 58.9958C64.1455 58.1255 60.0437 37.6169 59.6723 35.8924C58.9507 32.6396 57.8894 30.2412 56.1967 28.5698L53.9787 30.8567C55.3265 32.1886 56.0269 34.0989 56.5575 36.5716C56.6159 36.821 56.7486 37.4949 56.9449 38.4606H46.6136L43.5254 41.6443H57.5923C58.6164 46.7383 60.118 54.2467 60.8184 57.7276H57.5339L41.1111 40.7741L65.7745 15.3731C65.8513 15.2991 65.9124 15.2104 65.9542 15.1122C65.996 15.0141 66.0177 14.9085 66.0179 14.8018C66.0181 14.6951 65.9969 14.5895 65.9555 14.4912C65.914 14.3928 65.8533 14.3038 65.7768 14.2295C65.7003 14.1551 65.6096 14.0969 65.5102 14.0582C65.4107 14.0196 65.3045 14.0014 65.1979 14.0046C65.0912 14.0078 64.9863 14.0325 64.8894 14.0771C64.7925 14.1217 64.7055 14.1853 64.6336 14.2641L52.8219 26.4048C50.6595 25.6343 48.3722 25.2744 46.0777 25.3436H33.8203C33.3981 25.3436 32.9932 25.5113 32.6947 25.8098C32.3961 26.1084 32.2284 26.5132 32.2284 26.9354C32.2284 27.3576 32.3961 27.7625 32.6947 28.0611C32.9932 28.3596 33.3981 28.5273 33.8203 28.5273H46.0777C47.5046 28.5057 48.9291 28.6499 50.3227 28.9571L41.1482 38.45H38.8612L15.3705 14.2429C15.2977 14.1677 15.2108 14.1075 15.1147 14.0658C15.0186 14.0242 14.9153 14.0018 14.8106 14.0001C14.7059 13.9984 14.6018 14.0173 14.5044 14.0557C14.407 14.0942 14.3182 14.1515 14.2429 14.2244C14.1677 14.2972 14.1075 14.3841 14.0658 14.4802C14.0242 14.5763 14.0018 14.6796 14.0001 14.7843C13.9984 14.889 14.0173 14.993 14.0558 15.0904C14.0943 15.1878 14.1515 15.2767 14.2244 15.3519L38.8931 40.7741L22.4702 57.7169H18.5702C19.4351 53.4719 22.9584 42.955 36.6114 41.7505L33.8574 38.901C25.7601 40.3284 21.2339 44.8971 18.7771 48.8343C16.8293 51.9775 15.594 55.5094 15.1582 59.1815L15.0203 60.9007H19.4085L15.7313 64.6522C15.5922 64.8049 15.5178 65.0058 15.5241 65.2124C15.5304 65.4189 15.6167 65.6149 15.7649 65.759C15.9131 65.903 16.1114 65.9838 16.3181 65.9842C16.5247 65.9846 16.7234 65.9046 16.8722 65.7612L40.0021 41.8831L63.1267 65.7612C63.2017 65.8369 63.2909 65.897 63.3893 65.9379C63.4877 65.9789 63.5932 66 63.6997 66C63.8984 65.9955 64.0881 65.9159 64.2304 65.7771C64.3794 65.6279 64.4631 65.4256 64.4631 65.2147C64.4631 65.0038 64.3794 64.8014 64.2304 64.6522L60.6168 60.9007Z" fill="#f070a1"/>
</svg>
