<svg width="80" height="80" viewBox="0 0 80 80" fill="#f070a1" xmlns="http://www.w3.org/2000/svg">
<path d="M33.668 40.2548H33.2539L33.4958 38.6828H37.176V36.0356H31.2115L30.388 42.9545C31.0531 42.7323 31.7497 42.6257 32.449 42.6391C33.8959 42.6391 34.6683 43.3988 34.6683 44.4022C34.6752 44.6126 34.6391 44.8221 34.5624 45.0173C34.4856 45.2125 34.3698 45.3889 34.2225 45.5353C34.0752 45.6816 33.8996 45.7946 33.7071 45.8669C33.5146 45.9393 33.3095 45.9693 33.105 45.9551C32.6914 45.9396 32.285 45.8394 31.9095 45.6606C31.5341 45.4817 31.1971 45.2277 30.9183 44.9135L29.4761 46.9442C30.1972 48.005 31.7651 48.607 33.0352 48.607C35.4918 48.607 37.4179 47.0541 37.4179 44.278C37.4318 41.7551 35.7476 40.2548 33.668 40.2548Z" fill="#f070a1"/>
<path d="M42.9272 35.8872C40.1357 35.8872 38.7632 38.3575 38.7632 42.2087C38.7632 46.06 40.1589 48.5303 42.9504 48.5303C45.7419 48.5303 47.0772 46.06 47.0772 42.2087C47.0772 38.3575 45.7279 35.8872 42.9272 35.8872ZM42.9597 46.06C42.099 46.06 41.5174 45.0709 41.5174 42.2087C41.5174 39.3466 41.9827 38.3575 42.9132 38.3575C43.8437 38.3575 44.3089 39.3132 44.3089 42.2087C44.3089 45.1043 43.9414 46.0647 42.9597 46.0647V46.06Z" fill="#f070a1"/>
<path d="M51.4782 35.1515C50.6576 35.1515 49.8707 35.4863 49.2905 36.0822C48.7102 36.6781 48.3843 37.4863 48.3843 38.329C48.3843 39.1717 48.7102 39.98 49.2905 40.5759C49.8707 41.1717 50.6576 41.5065 51.4782 41.5065C52.3144 41.4977 53.1131 41.1487 53.6992 40.536C54.2852 39.9234 54.6109 39.0971 54.6047 38.2383C54.6083 37.8213 54.529 37.4079 54.3716 37.0235C54.2142 36.6391 53.982 36.2917 53.6893 36.0027C53.3966 35.7137 53.0495 35.4892 52.6693 35.3428C52.289 35.1964 51.8837 35.1314 51.4782 35.1515V35.1515ZM51.5108 39.213C51.3405 39.213 51.1741 39.1612 51.0326 39.064C50.891 38.9669 50.7807 38.8288 50.7156 38.6673C50.6504 38.5058 50.6334 38.3281 50.6666 38.1566C50.6998 37.9851 50.7818 37.8276 50.9021 37.704C51.0225 37.5803 51.1759 37.4962 51.3428 37.462C51.5098 37.4279 51.6828 37.4454 51.8401 37.5124C51.9974 37.5793 52.1318 37.6926 52.2264 37.8379C52.321 37.9833 52.3715 38.1542 52.3715 38.329C52.3715 38.5653 52.2814 38.7921 52.1205 38.9609C51.9596 39.1298 51.7407 39.2271 51.5108 39.2321V39.213Z" fill="#f070a1"/>
<path d="M62.8955 24.0292C62.5334 23.953 62.1566 24.0274 61.8479 24.2361C61.5391 24.4448 61.3236 24.7708 61.2485 25.1425L60.2855 29.9446C56.5123 29.8538 54.8653 26.3801 54.7955 26.2272C54.6882 25.9926 54.5209 25.7922 54.3114 25.6475C54.102 25.5028 53.8583 25.4192 53.6063 25.4054C53.3542 25.3917 53.1032 25.4484 52.8801 25.5696C52.6569 25.6907 52.4699 25.8717 52.339 26.0934L52.2134 26.3132C51.362 27.7466 50.0779 29.9541 46.9747 29.9541C43.7784 29.9541 41.9686 27.2975 41.1963 26.1603L41.0986 26.0169C40.9753 25.8372 40.8135 25.689 40.6255 25.5837C40.4375 25.4785 40.2285 25.4191 40.0146 25.4101C39.8032 25.3983 39.592 25.4361 39.3969 25.5205C39.2019 25.605 39.0281 25.7339 38.8887 25.8975C38.7538 26.0647 38.5956 26.275 38.4234 26.5139C37.4185 27.8756 35.9018 29.935 33.0545 29.935C29.1696 29.935 27.4715 26.361 27.411 26.2081C27.3032 25.9737 27.1355 25.7738 26.9258 25.6295C26.7162 25.4853 26.4723 25.4021 26.2203 25.3889C25.9683 25.3756 25.7175 25.4328 25.4946 25.5544C25.2717 25.6759 25.085 25.8572 24.9545 26.079L24.8335 26.2845C23.9961 27.718 22.7352 29.8729 19.7158 29.9303C19.1575 27.1637 18.7853 25.1903 18.7481 25.1234C18.6592 24.7663 18.4399 24.4581 18.1356 24.2627C17.8313 24.0674 17.4654 23.9999 17.114 24.0743C16.7625 24.1487 16.4524 24.3593 16.2482 24.6623C16.0439 24.9653 15.9611 25.3375 16.017 25.7016C16.0589 25.9166 20.3113 47.1078 20.6137 48.6368C21.6605 54.0218 24.2333 56 30.156 56H49.822C55.726 56 58.3175 54.0123 59.3736 48.6607C59.676 47.1174 63.9284 25.9262 63.9702 25.7255C64.0461 25.3542 63.9756 24.9672 63.7741 24.6493C63.5727 24.3313 63.2567 24.1084 62.8955 24.0292V24.0292ZM56.6472 48.1017C55.9121 51.8239 54.7862 53.1426 49.8313 53.1426H30.156C25.215 53.1426 24.0752 51.8239 23.3401 48.1017C23.1586 47.146 21.5395 39.1044 20.2741 32.8115C21.4341 32.7325 22.563 32.3918 23.5802 31.8137C24.5975 31.2356 25.4781 30.4343 26.1595 29.4668C26.9919 30.5241 28.0458 31.3748 29.2429 31.9556C30.44 32.5364 31.7492 32.8322 33.0731 32.8211C36.5392 32.8211 38.6886 30.7569 39.9541 29.1944C41.2661 30.7951 43.5272 32.8211 46.9933 32.8211C48.27 32.8421 49.5327 32.5454 50.6734 31.9563C51.8142 31.3672 52.7991 30.5032 53.544 29.4381C54.3064 30.3875 55.2447 31.1719 56.3045 31.7461C57.3643 32.3202 58.5245 32.6726 59.7179 32.7828C58.4477 39.0996 56.8287 47.1699 56.6472 48.1017V48.1017Z" fill="#f070a1"/>
</svg>
