<svg width="80" height="80" viewBox="0 0 80 80" fill="#f070a1" xmlns="http://www.w3.org/2000/svg">
<path d="M25.3323 59.3408L22.3926 62.2805H56.6833L53.7436 59.3408H25.3323Z" fill="#f070a1"/>
<path d="M62.5514 62.2805H67.0981L50.7311 33.9363L48.5809 36.0921L62.0194 59.3408H59.6285L40.7417 40.454L66.7453 14.4504C66.824 14.371 66.8863 14.2769 66.9286 14.1734C66.9709 14.0699 66.9923 13.9591 66.9918 13.8473C66.9913 13.7355 66.9688 13.6249 66.9255 13.5218C66.8823 13.4188 66.8192 13.3252 66.7397 13.2465C66.6603 13.1678 66.5662 13.1056 66.4627 13.0633C66.3592 13.021 66.2484 12.9995 66.1366 13C66.0248 13.0005 65.9143 13.0231 65.8112 13.0663C65.7081 13.1096 65.6145 13.1727 65.5359 13.2521L48.5809 30.2071L39.5323 14.5288L30.4892 30.2071L13.5342 13.2521C13.4566 13.1736 13.3642 13.1112 13.2623 13.0686C13.1604 13.0261 13.0511 13.0041 12.9407 13.0041C12.8302 13.0041 12.721 13.0261 12.6191 13.0686C12.5172 13.1112 12.4248 13.1736 12.3472 13.2521C12.1912 13.4103 12.1038 13.6235 12.1038 13.8457C12.1038 14.0678 12.1912 14.281 12.3472 14.4392L38.3507 40.4428L19.4696 59.3296H17.0786L30.5172 36.0809L28.3614 33.9251L12 62.2693H16.5467L12.3416 66.4464C12.1856 66.6046 12.0982 66.8178 12.0982 67.04C12.0982 67.2621 12.1856 67.4753 12.3416 67.6335C12.4999 67.7895 12.7128 67.8779 12.9351 67.8799C13.0454 67.8801 13.1546 67.8584 13.2565 67.8161C13.3584 67.7738 13.4509 67.7118 13.5286 67.6335L39.5323 41.6299L65.5359 67.6447C65.6942 67.8007 65.9071 67.8891 66.1294 67.8911C66.2954 67.8909 66.4577 67.8416 66.5957 67.7493C66.7336 67.657 66.8412 67.5259 66.9047 67.3725C66.9682 67.2191 66.9848 67.0503 66.9524 66.8875C66.9201 66.7247 66.8402 66.5751 66.7229 66.4576L62.5514 62.2805ZM32.645 32.3741L39.5378 20.4306L46.4363 32.3741L39.5378 39.267L32.645 32.3741Z" fill="#f070a1"/>
</svg>
