<svg width="80" height="80" viewBox="0 0 80 80" fill="#f070a1" xmlns="http://www.w3.org/2000/svg">
<path d="M24.8272 34.8084C24.8272 35.2709 25.0109 35.7145 25.338 36.0416C25.665 36.3687 26.1086 36.5524 26.5712 36.5524L52.6086 36.5524C53.0711 36.5524 53.5147 36.3687 53.8417 36.0416C54.1688 35.7145 54.3525 35.2709 54.3525 34.8084C54.3525 34.3459 54.1688 33.9023 53.8417 33.5753C53.5147 33.2482 53.0711 33.0645 52.6086 33.0645L26.5712 33.0645C26.1086 33.0645 25.665 33.2482 25.338 33.5753C25.0109 33.9023 24.8272 34.3459 24.8272 34.8084V34.8084Z" fill="#f070a1"/>
<path d="M24.8272 45.1912C24.8272 45.6538 25.0109 46.0973 25.338 46.4244C25.665 46.7514 26.1086 46.9352 26.5712 46.9352L52.6086 46.9352C53.0711 46.9352 53.5147 46.7514 53.8417 46.4244C54.1688 46.0973 54.3525 45.6538 54.3525 45.1912C54.3525 44.7287 54.1688 44.2851 53.8417 43.9581C53.5147 43.631 53.0711 43.4473 52.6086 43.4473L26.5712 43.4473C26.1086 43.4473 25.665 43.631 25.338 43.9581C25.0109 44.2851 24.8272 44.7287 24.8272 45.1912V45.1912Z" fill="#f070a1"/>
<path d="M17 17V63H63V17H17ZM59.5121 59.5121H20.4879V20.4879H59.5121V59.5121Z" fill="#f070a1"/>
<path fill-rule="evenodd" clip-rule="evenodd" d="M36.0568 20.4883L19.6519 36.87V31.9403L31.1039 20.4883H36.0568Z" fill="#f070a1"/>
</svg>
