<svg width="80" height="80" viewBox="0 0 80 80" fill="#f070a1" xmlns="http://www.w3.org/2000/svg">
<path d="M35 50H38.6865V41.8423H46.1V38.3923H38.6865V32.45H47V29H35V50Z" fill="#f070a1"/>
<path d="M40.0059 17C35.4567 16.9988 31.0093 18.3468 27.2262 20.8733C23.4431 23.3999 20.4942 26.9916 18.7525 31.1942C17.0108 35.3968 16.5544 40.0216 17.4412 44.4835C18.328 48.9454 20.5181 53.0442 23.7345 56.2614C26.9509 59.4786 31.0491 61.6697 35.5108 62.5576C39.9725 63.4456 44.5973 62.9904 48.8004 61.2498C53.0034 59.5091 56.5959 56.5612 59.1234 52.7787C61.651 48.9963 63 44.5492 63 40C62.9938 33.9029 60.5694 28.0573 56.2587 23.7455C51.948 19.4336 46.1029 17.0078 40.0059 17ZM40.0059 59.4791C36.1516 59.4803 32.3836 58.3383 29.1784 56.1978C25.9732 54.0572 23.4749 51.0141 21.9994 47.4534C20.5239 43.8928 20.1375 39.9745 20.8891 36.1943C21.6408 32.414 23.4967 28.9416 26.2221 26.2162C28.9474 23.4908 32.4198 21.6349 36.2001 20.8833C39.9804 20.1316 43.8986 20.518 47.4593 21.9935C51.02 23.469 54.0631 25.9674 56.2036 29.1725C58.3442 32.3777 59.4862 36.1457 59.485 40C59.4788 45.1643 57.4246 50.1153 53.7729 53.767C50.1212 57.4187 45.1702 59.4729 40.0059 59.4791V59.4791Z" fill="#f070a1"/>
</svg>
