<svg width="80" height="80" viewBox="0 0 80 80" fill="#f070a1" xmlns="http://www.w3.org/2000/svg">
<path fill-rule="evenodd" clip-rule="evenodd" d="M63.7416 56.0708C63.5643 55.1894 59.4102 34.4192 59.034 32.678C57.3842 24.9933 53.5258 22 45.266 22H28.2844C27.8568 22 27.4467 22.1699 27.1444 22.4722C26.842 22.7745 26.6722 23.1846 26.6722 23.6122C26.6722 24.0398 26.842 24.4498 27.1444 24.7522C27.4467 25.0545 27.8568 25.2244 28.2844 25.2244H45.266C52.7895 25.2244 54.7241 27.9597 55.8795 33.3551C55.9279 33.5647 56.03 34.0752 56.1805 34.8061H39.5213C17.0636 34.8061 15.1505 56.0493 15.1343 56.2642L15 58H64.1232L63.7416 56.0708ZM18.6274 54.7756C19.1699 52.1199 20.1603 49.5757 21.5562 47.2521C25.2803 41.142 31.326 38.0412 39.5266 38.0412H56.8307C57.8733 43.2002 59.464 51.1536 60.1948 54.7864L18.6274 54.7756Z" fill="#f070a1"/>
<path fill-rule="evenodd" clip-rule="evenodd" d="M41.0902 43.646C40.4182 43.6449 39.761 43.8432 39.2018 44.2158C38.6426 44.5883 38.2064 45.1184 37.9486 45.7389C37.6907 46.3594 37.6226 47.0424 37.7531 47.7016C37.8835 48.3608 38.2066 48.9665 38.6813 49.442C39.1561 49.9175 39.7613 50.2415 40.4202 50.373C41.0792 50.5045 41.7624 50.4375 42.3833 50.1806C43.0042 49.9237 43.5349 49.4884 43.9084 48.9298C44.2818 48.3711 44.4811 47.7143 44.4811 47.0423C44.4811 46.1425 44.124 45.2794 43.4883 44.6427C42.8525 44.0059 41.99 43.6474 41.0902 43.646V43.646Z" fill="#f070a1"/>
</svg>
