<svg width="80" height="80" viewBox="0 0 80 80" fill="#f070a1" xmlns="http://www.w3.org/2000/svg">
<path d="M54.7705 58H25.2295C24.9034 58 24.5907 58.158 24.3601 58.4393C24.1295 58.7206 24 59.1022 24 59.5C24 59.8978 24.1295 60.2793 24.3601 60.5607C24.5907 60.842 24.9034 61 25.2295 61H54.7705C55.0966 61 55.4093 60.842 55.6399 60.5607C55.8705 60.2793 56 59.8978 56 59.5C56 59.1022 55.8705 58.7206 55.6399 58.4393C55.4093 58.158 55.0966 58 54.7705 58Z" fill="#f070a1"/>
<path d="M62.8955 24.0292C62.5334 23.953 62.1566 24.0274 61.8479 24.2361C61.5391 24.4448 61.3236 24.7708 61.2485 25.1425L60.2855 29.9446C56.5123 29.8538 54.8653 26.3801 54.7955 26.2272C54.6882 25.9926 54.5209 25.7922 54.3114 25.6475C54.102 25.5028 53.8583 25.4192 53.6063 25.4054C53.3542 25.3917 53.1032 25.4484 52.8801 25.5696C52.6569 25.6907 52.4699 25.8717 52.339 26.0934L52.2134 26.3132C51.362 27.7466 50.0779 29.9541 46.9747 29.9541C43.7784 29.9541 41.9686 27.2975 41.1963 26.1603L41.0986 26.0169C40.9753 25.8372 40.8135 25.689 40.6255 25.5837C40.4375 25.4785 40.2285 25.4191 40.0146 25.4101C39.8032 25.3983 39.592 25.4361 39.3969 25.5205C39.2019 25.605 39.0281 25.7339 38.8887 25.8975C38.7538 26.0647 38.5956 26.275 38.4234 26.5139C37.4185 27.8756 35.9018 29.935 33.0545 29.935C29.1696 29.935 27.4715 26.361 27.411 26.2081C27.3032 25.9737 27.1355 25.7738 26.9258 25.6295C26.7162 25.4853 26.4723 25.4021 26.2203 25.3889C25.9683 25.3756 25.7175 25.4328 25.4946 25.5544C25.2717 25.6759 25.085 25.8572 24.9545 26.079L24.8335 26.2845C23.9961 27.718 22.7352 29.8729 19.7158 29.9303C19.1575 27.1637 18.7853 25.1903 18.7481 25.1234C18.6592 24.7663 18.4399 24.4581 18.1356 24.2627C17.8313 24.0674 17.4654 23.9999 17.114 24.0743C16.7625 24.1487 16.4524 24.3593 16.2482 24.6623C16.0439 24.9653 15.9611 25.3375 16.017 25.7016C16.0589 25.9166 20.3113 47.1078 20.6137 48.6368C21.6605 54.0218 24.2333 56 30.156 56H49.822C55.726 56 58.3175 54.0123 59.3736 48.6607C59.676 47.1174 63.9284 25.9262 63.9702 25.7255C64.0461 25.3542 63.9756 24.9672 63.7741 24.6493C63.5727 24.3313 63.2567 24.1084 62.8955 24.0292V24.0292ZM56.6472 48.1017C55.9121 51.8239 54.7862 53.1426 49.8313 53.1426H30.156C25.215 53.1426 24.0752 51.8239 23.3401 48.1017C23.1586 47.146 21.5395 39.1044 20.2741 32.8115C21.4341 32.7325 22.563 32.3918 23.5802 31.8137C24.5975 31.2356 25.4781 30.4343 26.1595 29.4668C26.9919 30.5241 28.0458 31.3748 29.2429 31.9556C30.44 32.5364 31.7492 32.8322 33.0731 32.8211C36.5392 32.8211 38.6886 30.7569 39.9541 29.1944C41.2661 30.7951 43.5272 32.8211 46.9933 32.8211C48.27 32.8421 49.5327 32.5454 50.6734 31.9563C51.8142 31.3672 52.7991 30.5032 53.544 29.4381C54.3064 30.3875 55.2447 31.1719 56.3045 31.7461C57.3643 32.3202 58.5245 32.6726 59.7179 32.7828C58.4477 39.0996 56.8287 47.1699 56.6472 48.1017V48.1017Z" fill="#f070a1"/>
<path d="M35.1978 40.7482C34.2213 40.7482 33.6028 40.9246 33.0866 41.4158C33.4691 40.5735 34.0198 39.8229 34.7031 39.2126C35.3864 38.6024 36.1871 38.146 37.0533 37.8731L36.007 35.8848C34.2907 36.4169 32.785 37.4972 31.7093 38.9681C30.6336 40.439 30.0441 42.2237 30.0267 44.0621C30.0055 44.6662 30.1053 45.2684 30.3201 45.8314C30.5349 46.3944 30.86 46.9062 31.2754 47.3352C31.6908 47.7642 32.1876 48.1013 32.735 48.3257C33.2825 48.55 33.8691 48.6568 34.4584 48.6394C34.9946 48.6586 35.5289 48.5648 36.0284 48.3639C36.5278 48.163 36.9818 47.8592 37.3623 47.4714C37.7427 47.0835 38.0416 46.6198 38.2404 46.1088C38.4392 45.5979 38.5337 45.0506 38.5181 44.5007C38.5181 42.2645 36.9184 40.7482 35.1978 40.7482ZM34.477 45.9931C33.3935 45.9931 32.775 45.235 32.775 44.0859C32.938 43.821 33.1638 43.6029 33.4314 43.452C33.699 43.301 33.9996 43.2222 34.305 43.2229C34.4997 43.2057 34.6958 43.2322 34.8796 43.3004C35.0635 43.3687 35.2306 43.4771 35.3695 43.6181C35.5084 43.7592 35.6157 43.9295 35.684 44.1173C35.7524 44.3051 35.78 44.5059 35.7652 44.7058C35.7734 44.8793 35.7457 45.0527 35.6841 45.2145C35.6225 45.3764 35.5282 45.5231 35.4075 45.645C35.2868 45.767 35.1424 45.8614 34.9837 45.9223C34.8249 45.9831 34.6555 46.0089 34.4863 45.9979L34.477 45.9931Z" fill="#f070a1"/>
<path d="M43.6937 35.9514C40.9036 35.9514 39.5317 38.4213 39.5317 42.2644C39.5317 46.1075 40.9268 48.5726 43.717 48.5726C46.5072 48.5726 47.8418 46.1027 47.8418 42.2644C47.8418 38.4261 46.4932 35.9514 43.6937 35.9514ZM43.7263 46.1027C42.866 46.1027 42.2847 45.1157 42.2847 42.2882C42.2847 39.4607 42.7497 38.4451 43.6798 38.4451C44.6098 38.4451 45.0749 39.3987 45.0749 42.2882C45.0749 45.1777 44.7168 46.1027 43.7263 46.1027Z" fill="#f070a1"/>
<path d="M52.2413 35.2123C51.4412 35.2441 50.6843 35.5924 50.1293 36.184C49.5742 36.7756 49.2642 37.5646 49.2642 38.3855C49.2642 39.2064 49.5742 39.9954 50.1293 40.587C50.6843 41.1786 51.4412 41.5269 52.2413 41.5587C53.0767 41.5486 53.8743 41.2 54.4598 40.5889C55.0454 39.9778 55.3712 39.1539 55.3663 38.2973C55.3699 37.881 55.2906 37.4683 55.1333 37.0844C54.9761 36.7006 54.7441 36.3537 54.4516 36.0649C54.1591 35.7762 53.8122 35.5516 53.4321 35.405C53.0521 35.2584 52.6469 35.1929 52.2413 35.2123V35.2123ZM52.2738 39.2652C52.1035 39.2652 51.937 39.2134 51.7954 39.1162C51.6538 39.0191 51.5435 38.881 51.4786 38.7196C51.4136 38.5581 51.3968 38.3805 51.4304 38.2092C51.464 38.038 51.5464 37.8809 51.6672 37.7577C51.7879 37.6345 51.9417 37.5509 52.1089 37.5174C52.276 37.4839 52.4492 37.502 52.6063 37.5695C52.7634 37.637 52.8974 37.7508 52.9914 37.8965C53.0854 38.0422 53.135 38.2132 53.1341 38.3879C53.1293 38.6198 53.037 38.8409 52.8766 39.0045C52.7161 39.1681 52.5001 39.2616 52.2738 39.2652V39.2652Z" fill="#f070a1"/>
</svg>
