<svg width="80" height="80" viewBox="0 0 80 80" fill="#f070a1" xmlns="http://www.w3.org/2000/svg">
<path fill-rule="evenodd" clip-rule="evenodd" d="M17 17V63H63V17H17ZM59.631 35.8945C58.8248 32.0761 56.9268 28.5743 54.168 25.8151C51.4093 23.056 47.9086 21.1584 44.0918 20.3532H59.631V35.8945ZM56.8449 39.9767C56.8541 43.3142 55.8733 46.5795 54.0267 49.3591C52.1801 52.1387 49.5507 54.3076 46.4714 55.5912C43.3921 56.8749 40.0014 57.2155 36.7285 56.57C33.4556 55.9246 30.4476 54.322 28.0855 51.9653C25.7234 49.6085 24.1134 46.6035 23.4592 43.3307C22.805 40.058 23.1361 36.6646 24.4105 33.5801C25.685 30.4957 27.8455 27.859 30.6185 26.0038C33.3915 24.1485 36.6525 23.1582 39.9884 23.1582C44.4512 23.1705 48.728 24.9481 51.8859 28.1032C55.0438 31.2583 56.8264 35.5349 56.8449 40V39.9767ZM35.8616 20.3299C32.0455 21.1354 28.5458 23.0332 25.788 25.7924C23.0302 28.5516 21.1334 32.0532 20.3282 35.8712V20.3532L35.8616 20.3299ZM20.3282 44.0822C21.1334 47.9002 23.0302 51.4018 25.788 54.1609C28.5458 56.9201 32.0455 58.8179 35.8616 59.6235H20.3282V44.0822ZM44.0684 59.6235C47.8853 58.8182 51.386 56.9207 54.1448 54.1615C56.9035 51.4024 58.8015 47.9006 59.6077 44.0822V59.6235H44.0684Z" fill="#f070a1"/>
<path fill-rule="evenodd" clip-rule="evenodd" d="M39.988 36.3203C39.2608 36.3215 38.5503 36.5383 37.9463 36.9433C37.3422 37.3483 36.8717 37.9234 36.5943 38.5959C36.3168 39.2684 36.2447 40.0081 36.3873 40.7215C36.5299 41.435 36.8806 42.0901 37.3952 42.6041C37.9098 43.1182 38.5651 43.468 39.2784 43.6096C39.9917 43.7511 40.7309 43.6779 41.4026 43.3992C42.0744 43.1205 42.6484 42.6489 43.0523 42.0438C43.4562 41.4388 43.6717 40.7276 43.6717 40.0001C43.6717 39.5164 43.5764 39.0374 43.3912 38.5905C43.206 38.1437 42.9346 37.7378 42.5924 37.396C42.2503 37.0543 41.8441 36.7833 41.3972 36.5987C40.9503 36.4142 40.4715 36.3196 39.988 36.3203V36.3203Z" fill="#f070a1"/>
<path d="M61.2326 65H18.7674C18.2987 65 17.8491 65.158 17.5177 65.4393C17.1862 65.7206 17 66.1022 17 66.5C17 66.8978 17.1862 67.2793 17.5177 67.5607C17.8491 67.842 18.2987 68 18.7674 68H61.2326C61.7013 68 62.1509 67.842 62.4823 67.5607C62.8138 67.2793 63 66.8978 63 66.5C63 66.1022 62.8138 65.7206 62.4823 65.4393C62.1509 65.158 61.7013 65 61.2326 65Z" fill="#f070a1"/>
</svg>
