<svg width="80" height="80" viewBox="0 0 80 80" fill="#f070a1" xmlns="http://www.w3.org/2000/svg">
<path fill-rule="evenodd" clip-rule="evenodd" d="M63.7343 56.071C63.557 55.1898 59.4036 34.4227 59.0275 32.6764C57.3779 24.9928 53.52 22 45.2615 22H28.2824C27.8549 22 27.4449 22.1698 27.1426 22.4721C26.8403 22.7744 26.6704 23.1844 26.6704 23.6119C26.6704 24.0395 26.8403 24.4494 27.1426 24.7517C27.4449 25.054 27.8549 25.2239 28.2824 25.2239H45.2615C52.7839 25.2239 54.7182 27.9642 55.8734 33.3534C55.9218 33.5684 56.0239 34.0788 56.1743 34.8095H39.5176C17.0633 34.8095 15.1504 56.0495 15.1343 56.2645L15 58H64.1158L63.7343 56.071ZM18.6269 54.7761C19.1693 52.1207 20.1596 49.577 21.5552 47.2537C25.2788 41.1391 31.3236 38.0442 39.523 38.0442H56.8245C57.8669 43.197 59.4573 51.1546 60.1881 54.7868L18.6269 54.7761Z" fill="#f070a1"/>
<path fill-rule="evenodd" clip-rule="evenodd" d="M41.0867 43.6162C40.4162 43.6162 39.7607 43.8151 39.2031 44.1876C38.6456 44.5601 38.211 45.0897 37.9544 45.7092C37.6978 46.3287 37.6306 47.0104 37.7614 47.6681C37.8923 48.3258 38.2152 48.9299 38.6893 49.4041C39.1635 49.8782 39.7676 50.2012 40.4253 50.332C41.083 50.4628 41.7647 50.3957 42.3842 50.139C43.0037 49.8824 43.5332 49.4479 43.9058 48.8903C44.2783 48.3327 44.4772 47.6772 44.4772 47.0067C44.4758 46.1079 44.1181 45.2463 43.4826 44.6108C42.8471 43.9753 41.9855 43.6176 41.0867 43.6162V43.6162Z" fill="#f070a1"/>
<path fill-rule="evenodd" clip-rule="evenodd" d="M31.0335 43.6162C30.3633 43.6141 29.7076 43.8106 29.1492 44.1809C28.5907 44.5512 28.1544 45.0788 27.8956 45.6968C27.6367 46.3149 27.5668 46.9959 27.6946 47.6537C27.8225 48.3114 28.1424 48.9166 28.614 49.3927C29.0856 49.8688 29.6877 50.1944 30.3442 50.3285C31.0008 50.4626 31.6823 50.3992 32.3029 50.1462C32.9234 49.8932 33.455 49.462 33.8306 48.907C34.2062 48.3521 34.4089 47.6982 34.4132 47.0282C34.416 46.582 34.3307 46.1397 34.1623 45.7266C33.9938 45.3135 33.7455 44.9376 33.4315 44.6207C33.1176 44.3037 32.7441 44.0518 32.3326 43.8794C31.9211 43.7071 31.4796 43.6176 31.0335 43.6162V43.6162Z" fill="#f070a1"/>
<path fill-rule="evenodd" clip-rule="evenodd" d="M51.1341 43.6162C50.4638 43.6173 49.8088 43.817 49.2519 44.1902C48.6951 44.5634 48.2614 45.0933 48.0056 45.7129C47.7498 46.3325 47.6834 47.0141 47.8148 47.6714C47.9463 48.3287 48.2696 48.9323 48.744 49.406C49.2183 49.8796 49.8225 50.2019 50.48 50.3323C51.1375 50.4627 51.819 50.3953 52.4382 50.1385C53.0574 49.8817 53.5866 49.4472 53.9589 48.8897C54.3312 48.3323 54.5299 47.677 54.5299 47.0067C54.5285 46.107 54.1701 45.2446 53.5334 44.6089C52.8967 43.9732 52.0338 43.6162 51.1341 43.6162V43.6162Z" fill="#f070a1"/>
</svg>
