<svg width="80" height="80" viewBox="0 0 80 80" fill="#f070a1" xmlns="http://www.w3.org/2000/svg">
<path d="M17 17V63H63V17H17ZM59.5121 59.5125H20.4879V20.4875H59.5121V59.5125Z" fill="#f070a1"/>
<path d="M27.0101 41.7433H53.0417C53.5042 41.7433 53.9478 41.5596 54.2749 41.2326C54.6019 40.9056 54.7857 40.4621 54.7857 39.9996C54.7857 39.5371 54.6019 39.0936 54.2749 38.7666C53.9478 38.4396 53.5042 38.2559 53.0417 38.2559H27.0101C26.5476 38.2559 26.104 38.4396 25.7769 38.7666C25.4498 39.0936 25.2661 39.5371 25.2661 39.9996C25.2661 40.4621 25.4498 40.9056 25.7769 41.2326C26.104 41.5596 26.5476 41.7433 27.0101 41.7433Z" fill="#f070a1"/>
<path fill-rule="evenodd" clip-rule="evenodd" d="M37.0569 20.4883L20.0213 37.5005V32.5709L32.104 20.4883H37.0569Z" fill="#f070a1"/>
<path fill-rule="evenodd" clip-rule="evenodd" d="M30.1519 19.9044L19.6519 30.3812V25.4516L25.199 19.9044H30.1519Z" fill="#f070a1"/>
</svg>
