<svg width="80" height="80" viewBox="0 0 80 80" fill="#f070a1" xmlns="http://www.w3.org/2000/svg">
<path d="M40 17C35.4511 17 31.0042 18.3489 27.2219 20.8762C23.4396 23.4035 20.4916 26.9956 18.7508 31.1983C17.01 35.401 16.5545 40.0255 17.4419 44.4871C18.3294 48.9486 20.5199 53.0468 23.7366 56.2634C26.9532 59.4801 31.0514 61.6706 35.513 62.5581C39.9745 63.4455 44.599 62.99 48.8018 61.2492C53.0045 59.5084 56.5966 56.5604 59.1238 52.7781C61.6511 48.9958 63 44.549 63 40C62.9922 33.9024 60.5666 28.0568 56.2549 23.7451C51.9433 19.4334 46.0976 17.0078 40 17V17ZM40 59.4841C36.1464 59.4841 32.3794 58.3413 29.1752 56.2004C25.9711 54.0595 23.4738 51.0165 21.9991 47.4562C20.5244 43.896 20.1385 39.9784 20.8903 36.1988C21.6421 32.4193 23.4978 28.9476 26.2227 26.2227C28.9476 23.4978 32.4193 21.6421 36.1989 20.8903C39.9784 20.1385 43.896 20.5244 47.4563 21.9991C51.0165 23.4738 54.0595 25.9711 56.2005 29.1752C58.3414 32.3794 59.4841 36.1464 59.4841 40C59.4779 45.1656 57.4232 50.1178 53.7705 53.7705C50.1179 57.4231 45.1656 59.4779 40 59.4841Z" fill="#f070a1"/>
<path d="M34.4327 47.6683L38.6154 30H40.9519L41.4856 32.9423L37.0288 51H34.5192L34.4327 47.6683ZM32.2837 30L35.7452 47.6683L35.4567 51H32.6587L28 30H32.2837ZM45.1635 47.5962L48.5817 30H52.8654L48.2212 51H45.4231L45.1635 47.5962ZM42.2644 30L46.476 47.7404L46.3606 51H43.851L39.3654 32.9279L39.9423 30H42.2644Z" fill="#f070a1"/>
</svg>
