<svg width="80" height="80" viewBox="0 0 80 80" fill="#f070a1" xmlns="http://www.w3.org/2000/svg">
<path d="M61.2326 65H18.7674C18.2987 65 17.8491 65.158 17.5177 65.4393C17.1862 65.7206 17 66.1022 17 66.5C17 66.8978 17.1862 67.2793 17.5177 67.5607C17.8491 67.842 18.2987 68 18.7674 68H61.2326C61.7013 68 62.1509 67.842 62.4823 67.5607C62.8138 67.2793 63 66.8978 63 66.5C63 66.1022 62.8138 65.7206 62.4823 65.4393C62.1509 65.158 61.7013 65 61.2326 65Z" fill="#f070a1"/>
<path d="M34.5388 36.332C33.8114 36.332 33.1002 36.5478 32.4954 36.9522C31.8906 37.3565 31.4192 37.9312 31.1408 38.6036C30.8625 39.276 30.7896 40.0159 30.9315 40.7297C31.0734 41.4435 31.4237 42.0992 31.9381 42.6138C32.4524 43.1284 33.1078 43.4789 33.8212 43.6209C34.5347 43.7628 35.2742 43.69 35.9462 43.4115C36.6183 43.1329 37.1927 42.6613 37.5969 42.0562C38.001 41.451 38.2166 40.7396 38.2166 40.0118C38.2166 39.0359 37.8292 38.0999 37.1394 37.4098C36.4497 36.7197 35.5142 36.332 34.5388 36.332V36.332Z" fill="#f070a1"/>
<path d="M45.4386 36.332C44.7112 36.332 44.0001 36.5478 43.3953 36.9522C42.7905 37.3565 42.3191 37.9312 42.0407 38.6036C41.7623 39.276 41.6895 40.0159 41.8314 40.7297C41.9733 41.4435 42.3236 42.0992 42.838 42.6138C43.3524 43.1284 44.0077 43.4789 44.7211 43.6209C45.4346 43.7628 46.1741 43.69 46.8461 43.4115C47.5182 43.1329 48.0926 42.6613 48.4967 42.0562C48.9008 41.451 49.1166 40.7396 49.1166 40.0118C49.115 39.0363 48.727 38.1013 48.0376 37.4115C47.3482 36.7218 46.4136 36.3336 45.4386 36.332V36.332Z" fill="#f070a1"/>
<path d="M17 17V63H63V17H17ZM59.631 35.9004C58.8258 32.0808 56.9283 28.5778 54.1695 25.8175C51.4106 23.0573 47.9094 21.1588 44.0918 20.3532H59.631V35.9004ZM56.8449 39.9825C56.8449 43.3181 55.8563 46.5788 54.0041 49.3523C52.1519 52.1257 49.5192 54.2874 46.4391 55.5638C43.3589 56.8403 39.9696 57.1743 36.6998 56.5235C33.4299 55.8728 30.4264 54.2666 28.0689 51.9079C25.7115 49.5493 24.1061 46.5442 23.4557 43.2727C22.8053 40.0012 23.1391 36.6102 24.4149 33.5285C25.6908 30.4468 27.8513 27.8128 30.6233 25.9597C33.3954 24.1065 36.6545 23.1174 39.9884 23.1174C44.4606 23.122 48.7481 24.9028 51.9088 28.0684C55.0695 31.234 56.8449 35.5255 56.8449 40V39.9825ZM35.8616 20.3357C32.0455 21.1413 28.5458 23.0391 25.788 25.7982C23.0302 28.5574 21.1334 32.059 20.3282 35.877V20.3532L35.8616 20.3357ZM20.3282 44.088C21.13 47.9144 23.028 51.4244 25.7906 54.1895C28.5532 56.9545 32.0608 58.8548 35.885 59.6585H20.3515L20.3282 44.088ZM44.0918 59.6585C47.9086 58.8532 51.4093 56.9556 54.168 54.1965C56.9268 51.4374 58.8248 47.9356 59.631 44.1171V59.6585H44.0918Z" fill="#f070a1"/>
</svg>
