<svg width="80" height="80" viewBox="0 0 80 80" fill="#f070a1" xmlns="http://www.w3.org/2000/svg">
<path d="M54.7705 58H25.2295C24.9034 58 24.5907 58.158 24.3601 58.4393C24.1295 58.7206 24 59.1022 24 59.5C24 59.8978 24.1295 60.2793 24.3601 60.5607C24.5907 60.842 24.9034 61 25.2295 61H54.7705C55.0966 61 55.4093 60.842 55.6399 60.5607C55.8705 60.2793 56 59.8978 56 59.5C56 59.1022 55.8705 58.7206 55.6399 58.4393C55.4093 58.158 55.0966 58 54.7705 58Z" fill="#f070a1"/>
<path d="M54.7705 63H25.2295C24.9034 63 24.5907 63.158 24.3601 63.4393C24.1295 63.7206 24 64.1022 24 64.5C24 64.8978 24.1295 65.2793 24.3601 65.5607C24.5907 65.842 24.9034 66 25.2295 66H54.7705C55.0966 66 55.4093 65.842 55.6399 65.5607C55.8705 65.2793 56 64.8978 56 64.5C56 64.1022 55.8705 63.7206 55.6399 63.4393C55.4093 63.158 55.0966 63 54.7705 63Z" fill="#f070a1"/>
<path d="M37.5538 40.4741H34.9731V43.1161H32.8247L36.7633 36.0677H33.8059L29.5093 43.7885V45.7628H34.9731V48.4047H37.5538V45.7628H38.9628V43.1161H37.5538V40.4741Z" fill="#f070a1"/>
<path d="M44.1012 35.9247C41.3112 35.9247 39.9395 38.3949 39.9395 42.2338C39.9395 46.0727 41.3345 48.5477 44.1245 48.5477C46.9145 48.5477 48.249 46.0775 48.249 42.2338C48.249 38.3902 46.9005 35.9247 44.1012 35.9247ZM44.1338 46.0775C43.2735 46.0775 42.6923 45.0903 42.6923 42.2338C42.6923 39.3773 43.1573 38.3949 44.0873 38.3949C45.0173 38.3949 45.4823 39.3487 45.4823 42.2338C45.4823 45.119 45.1149 46.0775 44.1338 46.0775Z" fill="#f070a1"/>
<path d="M52.6483 35.1712C51.8483 35.203 51.0915 35.5513 50.5364 36.143C49.9814 36.7347 49.6714 37.5238 49.6714 38.3448C49.6714 39.1659 49.9814 39.955 50.5364 40.5467C51.0915 41.1384 51.8483 41.4867 52.6483 41.5185C53.4837 41.5084 54.2813 41.1597 54.8668 40.5485C55.4523 39.9374 55.7781 39.1134 55.7731 38.2566C55.7767 37.8402 55.6975 37.4275 55.5402 37.0436C55.383 36.6597 55.151 36.3127 54.8585 36.0239C54.566 35.7351 54.2191 35.5105 53.8391 35.3639C53.4591 35.2173 53.0539 35.1517 52.6483 35.1712V35.1712ZM52.6809 39.2247C52.5107 39.2247 52.3444 39.1729 52.2029 39.076C52.0615 38.9791 51.9512 38.8413 51.8861 38.6801C51.821 38.5189 51.804 38.3415 51.8371 38.1703C51.8703 37.9992 51.9523 37.842 52.0726 37.7186C52.1929 37.5952 52.3462 37.5112 52.513 37.4772C52.6799 37.4431 52.8529 37.4606 53.0101 37.5274C53.1673 37.5942 53.3016 37.7072 53.3961 37.8523C53.4907 37.9974 53.5411 38.168 53.5411 38.3425C53.5412 38.5778 53.451 38.8037 53.29 38.9714C53.1291 39.1391 52.9103 39.2352 52.6809 39.239V39.2247Z" fill="#f070a1"/>
<path d="M62.897 24.0966C62.5351 24.0205 62.1585 24.0948 61.8499 24.3031C61.5413 24.5114 61.3259 24.8368 61.2509 25.2078C61.2509 25.2745 60.8417 27.2393 60.2884 30.0004C56.5172 29.905 54.8711 26.4429 54.8013 26.2903C54.694 26.0561 54.5268 25.8562 54.3175 25.7118C54.1082 25.5674 53.8646 25.4839 53.6127 25.4702C53.3608 25.4565 53.1099 25.5131 52.8869 25.634C52.6639 25.7549 52.477 25.9356 52.3461 26.1568L52.2206 26.3714C51.3696 27.802 50.0862 30.01 46.9847 30.01C43.7901 30.01 41.9812 27.3585 41.2093 26.2235L41.1117 26.0757C40.9886 25.8967 40.8271 25.749 40.6396 25.6441C40.4521 25.5392 40.2436 25.4798 40.0302 25.4706C39.8168 25.4614 39.6042 25.5026 39.4087 25.5909C39.2133 25.6793 39.0402 25.8125 38.9029 25.9803C38.7681 26.1472 38.61 26.3523 38.4379 26.5907C37.4335 27.9546 35.9176 30.01 33.0718 30.01C29.189 30.01 27.4918 26.4429 27.4313 26.2903C27.3236 26.0574 27.1566 25.8587 26.9479 25.7152C26.7392 25.5717 26.4965 25.4886 26.2456 25.4748C25.9932 25.4606 25.7417 25.517 25.5181 25.6379C25.2945 25.7589 25.1072 25.9398 24.9761 26.1615L24.8552 26.3666C24.0182 27.7972 22.7581 29.948 19.7402 30.0004C19.1822 27.244 18.8102 25.2745 18.773 25.2078C18.7436 25.0166 18.6767 24.8336 18.5763 24.6697C18.4759 24.5058 18.3442 24.3645 18.1891 24.2544C18.0339 24.1442 17.8586 24.0675 17.6737 24.0288C17.4888 23.9902 17.2982 23.9904 17.1134 24.0295C16.9286 24.0685 16.7534 24.1456 16.5985 24.2561C16.4436 24.3666 16.3121 24.5082 16.2121 24.6723C16.1121 24.8364 16.0456 25.0196 16.0166 25.2108C15.9876 25.402 15.9967 25.5973 16.0434 25.7848C16.0853 25.9994 20.3354 47.1491 20.6376 48.6751C21.6932 54.0162 24.2833 56 30.1841 56H49.8305C55.7314 56 58.3214 54.0162 59.377 48.6751C59.6792 47.1348 63.9293 25.9851 63.9712 25.7848C64.0456 25.415 63.9745 25.03 63.7733 24.7138C63.572 24.3975 63.2571 24.1757 62.897 24.0966ZM56.6521 48.1172C55.9174 51.8321 54.792 53.153 49.8398 53.153H30.1748C25.2365 53.153 24.0972 51.8321 23.3625 48.1172C23.1812 47.192 21.563 39.1422 20.2982 32.8569C21.4576 32.7781 22.5859 32.4381 23.6026 31.8611C24.6193 31.2841 25.4995 30.4844 26.1805 29.5188C27.0126 30.5741 28.066 31.4235 29.2623 32.0039C30.4586 32.5843 31.767 32.8808 33.0904 32.8713C36.5547 32.8713 38.703 30.8111 39.9678 29.2517C41.2791 30.8493 43.539 32.8713 47.0033 32.8713C48.2793 32.8923 49.5413 32.5961 50.6814 32.0082C51.8216 31.4202 52.806 30.5579 53.5505 29.4949C54.3126 30.4422 55.2505 31.225 56.3097 31.798C57.3689 32.371 58.5284 32.7229 59.7211 32.8331C58.4516 39.1375 56.8334 47.1872 56.6521 48.1172Z" fill="#f070a1"/>
</svg>
