<svg width="80" height="80" viewBox="0 0 80 80" fill="#f070a1" xmlns="http://www.w3.org/2000/svg">
<path d="M35.291 41.923V41.8561C35.849 41.6376 36.3242 41.2413 36.6467 40.7251C36.9692 40.209 37.1221 39.6002 37.083 38.9883C37.083 37.0478 35.5842 35.829 33.4664 35.829C31.7675 35.829 30.4736 36.4647 29.7428 37.6835L31.1392 39.5953C31.3725 39.2508 31.6836 38.9695 32.046 38.7755C32.4084 38.5816 32.8111 38.4807 33.2197 38.4817C33.3612 38.4625 33.5051 38.4756 33.6411 38.52C33.7771 38.5643 33.902 38.6388 34.0068 38.7383C34.1116 38.8377 34.1938 38.9596 34.2477 39.0953C34.3015 39.231 34.3256 39.3773 34.3182 39.5236C34.3182 40.3744 33.5781 40.7615 32.6659 40.7615H31.991V43.4094H32.745C34.0855 43.4094 34.793 43.8348 34.793 44.7716C34.793 45.4073 34.3275 45.9713 33.2802 45.9713C32.233 45.9713 31.5069 45.3165 30.9065 44.6139L29.4775 46.5735C30.1152 47.6872 31.4371 48.6192 33.4525 48.6192C35.7797 48.6192 37.5437 47.1853 37.5437 44.8768C37.5949 44.1846 37.3921 43.4977 36.9753 42.9512C36.5585 42.4046 35.9577 42.0379 35.291 41.923Z" fill="#f070a1"/>
<path d="M43.0686 35.8864C40.2759 35.8864 38.9028 38.3574 38.9028 42.2098C38.9028 46.0621 40.2992 48.5332 43.0919 48.5332C45.8845 48.5332 47.2204 46.0574 47.2204 42.2098C47.2204 38.3622 45.8706 35.8864 43.0686 35.8864ZM43.1012 46.0574C42.2401 46.0574 41.6536 45.068 41.6536 42.2098C41.6536 39.3516 42.1191 38.3574 43.05 38.3574C43.9809 38.3574 44.4463 39.3133 44.4463 42.2098C44.4463 45.1062 44.0833 46.0574 43.1012 46.0574V46.0574Z" fill="#f070a1"/>
<path d="M51.6238 35.1647C50.8231 35.1966 50.0655 35.5457 49.5099 36.1387C48.9544 36.7318 48.644 37.5227 48.644 38.3456C48.644 39.1685 48.9544 39.9594 49.5099 40.5524C50.0655 41.1454 50.8231 41.4945 51.6238 41.5264C52.46 41.5163 53.2583 41.1668 53.8444 40.5542C54.4304 39.9417 54.7566 39.1159 54.7516 38.2571C54.7552 37.8398 54.6759 37.4261 54.5185 37.0414C54.3611 36.6566 54.1289 36.3089 53.8361 36.0194C53.5433 35.7299 53.1961 35.5048 52.8158 35.3579C52.4354 35.2109 52.0298 35.1452 51.6238 35.1647V35.1647ZM51.6564 39.2274C51.4859 39.2274 51.3192 39.1754 51.1775 39.078C51.0358 38.9807 50.9255 38.8423 50.8604 38.6804C50.7954 38.5186 50.7786 38.3406 50.8122 38.1689C50.8458 37.9973 50.9283 37.8397 51.0492 37.7162C51.1701 37.5928 51.3239 37.5089 51.4913 37.4754C51.6586 37.4418 51.8319 37.46 51.9892 37.5276C52.1464 37.5953 52.2806 37.7094 52.3746 37.8554C52.4687 38.0014 52.5184 38.1729 52.5175 38.348C52.5072 38.5723 52.4155 38.7845 52.2604 38.9429C52.1054 39.1012 51.8982 39.1942 51.6797 39.2035L51.6564 39.2274Z" fill="#f070a1"/>
<path d="M62.8969 24.0292C62.5346 23.953 62.1577 24.0274 61.8488 24.2362C61.5399 24.4449 61.3243 24.771 61.2492 25.1429C61.2492 25.2098 60.8396 27.179 60.2857 29.9464C56.511 29.8556 54.8633 26.3808 54.7935 26.2278C54.6861 25.9932 54.5187 25.7928 54.3092 25.648C54.0996 25.5033 53.8558 25.4196 53.6037 25.4059C53.3515 25.3921 53.1004 25.4489 52.8772 25.57C52.6539 25.6912 52.4669 25.8723 52.3359 26.094L52.2102 26.3139C51.3585 27.7477 50.0738 29.9559 46.9693 29.9559C43.7717 29.9559 41.9611 27.2985 41.1884 26.1609L41.0907 26.0175C40.9679 25.8378 40.8065 25.6894 40.619 25.5838C40.4315 25.4783 40.2229 25.4183 40.0093 25.4086C39.7957 25.3989 39.5828 25.4397 39.3869 25.5279C39.1911 25.6161 39.0176 25.7492 38.8798 25.9172C38.7448 26.0844 38.5866 26.2947 38.4144 26.5337C37.409 27.8959 35.8916 29.9511 33.0617 29.9511C29.1752 29.9511 27.4764 26.376 27.4159 26.2231C27.308 25.9897 27.1409 25.7905 26.9319 25.6467C26.723 25.5028 26.4801 25.4196 26.229 25.4057C25.9763 25.3915 25.7246 25.448 25.5008 25.5692C25.277 25.6904 25.0895 25.8718 24.9583 26.094L24.8373 26.2995C23.9995 27.7334 22.7381 29.889 19.7174 29.9464C19.1588 27.179 18.7865 25.205 18.7492 25.1381C18.6604 24.7809 18.4409 24.4726 18.1365 24.2772C17.8321 24.0818 17.4661 24.0143 17.1144 24.0887C16.7628 24.1631 16.4526 24.3737 16.2483 24.6769C16.0439 24.98 15.9611 25.3523 16.0171 25.7164C16.0589 25.9315 20.3131 47.129 20.6157 48.6585C21.6722 54.0117 24.2648 56 30.1713 56H49.8178C55.7244 56 58.3169 54.0117 59.3735 48.6585C59.676 47.1147 63.9302 25.9172 63.9721 25.7164C64.0452 25.3465 63.9733 24.9618 63.7721 24.646C63.5708 24.3301 63.2563 24.1085 62.8969 24.0292V24.0292ZM56.6459 48.1136C55.9105 51.837 54.7841 53.1561 49.8271 53.1561H30.1434C25.2003 53.1561 24.06 51.837 23.3246 48.1136C23.143 47.1816 21.5233 39.1137 20.2573 32.8189C21.4178 32.7399 22.5472 32.3991 23.5648 31.8208C24.5825 31.2425 25.4636 30.441 26.1452 29.4732C26.9789 30.5291 28.0337 31.3782 29.2312 31.9575C30.4287 32.5368 31.7381 32.8312 33.0617 32.8189C36.5293 32.8189 38.6797 30.7541 39.9457 29.1912C41.2583 30.7924 43.5203 32.8189 46.9879 32.8189C48.2651 32.84 49.5283 32.5432 50.6696 31.9539C51.8108 31.3646 52.7962 30.5003 53.5414 29.4349C54.3043 30.3844 55.243 31.169 56.3032 31.7433C57.3634 32.3176 58.524 32.6702 59.7179 32.7807C58.4472 39.1041 56.8275 47.1577 56.6459 48.1136Z" fill="#f070a1"/>
<path d="M54.7705 58H25.2295C24.9034 58 24.5907 58.158 24.3601 58.4393C24.1295 58.7206 24 59.1022 24 59.5C24 59.8978 24.1295 60.2793 24.3601 60.5607C24.5907 60.842 24.9034 61 25.2295 61H54.7705C55.0966 61 55.4093 60.842 55.6399 60.5607C55.8705 60.2793 56 59.8978 56 59.5C56 59.1022 55.8705 58.7206 55.6399 58.4393C55.4093 58.158 55.0966 58 54.7705 58Z" fill="#f070a1"/>
</svg>
