<svg width="80" height="80" viewBox="0 0 80 80" fill="#f070a1" xmlns="http://www.w3.org/2000/svg">
<path d="M63 49.3739V31.0019H59.6214C55.4851 31.0019 53.8929 31.5251 52.1473 33.8977C51.8586 33.591 51.5654 33.3023 51.2451 33.0226L49.3371 34.9306C49.7866 35.3429 50.2099 35.7828 50.6046 36.2478C49.1251 38.6204 48.002 40.4517 47.1404 41.9358C46.6675 42.7549 46.1273 43.5334 45.5256 44.2633L41.3622 40.0954L62.3279 19.1523C62.4474 19.024 62.5124 18.8544 62.5093 18.6791C62.5062 18.5038 62.4352 18.3366 62.3113 18.2126C62.1873 18.0886 62.0201 18.0176 61.8448 18.0145C61.6695 18.0114 61.4999 18.0765 61.3716 18.196L48.5568 31.0109C46.4593 29.7367 44.0244 29.1295 41.5743 29.2697C38.7216 29.5048 36.0364 30.7136 33.9692 32.6934L19.4764 18.196C19.3489 18.0704 19.1772 18 18.9983 18C18.8193 18 18.6475 18.0704 18.5201 18.196C18.4568 18.2585 18.4066 18.333 18.3723 18.4151C18.338 18.4971 18.3203 18.5852 18.3203 18.6742C18.3203 18.7631 18.338 18.8512 18.3723 18.9332C18.4066 19.0153 18.4568 19.0898 18.5201 19.1523L39.4677 40.0999L32.6205 46.9471C31.3978 46.1839 30.3033 45.2325 29.3773 44.1279C30.8614 41.7463 31.9845 39.915 32.8415 38.44C33.1122 37.9799 33.3919 37.5423 33.6806 37.1273L28.0106 31.4574C26.3059 31.12 24.5697 30.9687 22.8323 31.0064H17V49.3739H20.3785C24.5148 49.3739 26.1071 48.8506 27.8527 46.478C28.6969 47.3895 29.6445 48.1994 30.6764 48.8912L18.4976 61.0475C18.4343 61.11 18.384 61.1845 18.3497 61.2666C18.3154 61.3486 18.2978 61.4367 18.2978 61.5256C18.2978 61.6146 18.3154 61.7027 18.3497 61.7847C18.384 61.8668 18.4343 61.9413 18.4976 62.0038C18.5596 62.0677 18.634 62.1182 18.7162 62.1523C18.7984 62.1865 18.8867 62.2034 18.9757 62.2022C19.0646 62.2026 19.1527 62.1853 19.2348 62.1512C19.3169 62.1172 19.3914 62.067 19.4538 62.0038L40.4014 41.0562L61.3716 62.0038C61.4336 62.0677 61.508 62.1182 61.5902 62.1523C61.6724 62.1865 61.7607 62.2034 61.8498 62.2022C61.9386 62.2026 62.0267 62.1853 62.1088 62.1512C62.1909 62.1172 62.2654 62.067 62.3279 62.0038C62.4535 61.8763 62.5239 61.7046 62.5239 61.5256C62.5239 61.3467 62.4535 61.175 62.3279 61.0475L49.1026 47.8132C51.0196 48.9499 53.4509 49.3693 57.1767 49.3693L63 49.3739ZM26.3642 43.8438C24.799 46.3472 24.3659 46.6675 20.3785 46.6675H19.7064V33.7083H22.8323C27.343 33.7083 29.3142 34.2586 31.0598 36.1711C30.8704 36.4643 30.6854 36.7665 30.5005 37.0732C29.5307 38.7467 28.2 40.9028 26.3642 43.8392V43.8438ZM35.8907 34.6149C37.4898 33.0954 39.5571 32.1635 41.7546 31.9716C43.4232 31.8684 45.0884 32.2208 46.5721 32.9911L40.4195 39.1436L35.8907 34.6149ZM48.9402 44.2091C49.1296 43.9114 49.3191 43.6092 49.4995 43.307C50.4783 41.6245 51.8045 39.4729 53.6358 36.541C55.201 34.033 55.634 33.7128 59.6214 33.7128H60.2936V46.6675H57.1677C52.675 46.6675 50.6903 46.1126 48.9402 44.2046V44.2091Z" fill="#f070a1"/>
</svg>
