<svg width="80" height="80" viewBox="0 0 80 80" fill="#f070a1" xmlns="http://www.w3.org/2000/svg">
<path d="M59.7929 51.251C60.1028 49.7395 64.3886 28.9207 64.4355 28.7189C64.4728 28.5376 64.474 28.3508 64.4391 28.1691C64.4042 27.9874 64.3339 27.8143 64.2321 27.6598C64.1303 27.5053 63.9991 27.3723 63.8459 27.2685C63.6928 27.1647 63.5206 27.0921 63.3394 27.0548C63.1582 27.0175 62.9714 27.0163 62.7897 27.0512C62.6079 27.0861 62.4349 27.1564 62.2804 27.2582C62.1258 27.3599 61.9929 27.4912 61.889 27.6443C61.7852 27.7975 61.7126 27.9696 61.6753 28.1509C61.6753 28.1837 61.1402 30.7374 60.4454 34.1219C56.8215 33.8919 55.2302 30.6294 55.1598 30.4886C55.0744 30.3093 54.952 30.1501 54.8007 30.0215C54.6494 29.8929 54.4726 29.7977 54.2819 29.7422L47.067 36.9431H47.2735C48.5671 36.971 49.8481 36.6838 51.0061 36.1065C52.164 35.5291 53.1642 34.6789 53.9205 33.629C55.4154 35.4524 57.5557 36.6293 59.8962 36.9149L57.0562 50.7112C56.7182 52.387 56.2864 53.5606 55.4508 54.3492L41.1147 40.0131L62.8911 18.1992C62.957 18.1341 63.0093 18.0566 63.0449 17.9712C63.0806 17.8858 63.099 17.7941 63.099 17.7016C63.099 17.609 63.0806 17.5174 63.0449 17.4319C63.0093 17.3465 62.957 17.2691 62.8911 17.204C62.7585 17.0733 62.5797 17 62.3935 17C62.2073 17 62.0286 17.0733 61.8959 17.204L45.316 33.7839C43.2881 33.0375 42.0301 31.2819 41.4433 30.4182L41.3401 30.2726C41.2161 30.097 41.0536 29.952 40.8649 29.8489C40.6763 29.7457 40.4665 29.6871 40.2517 29.6776C40.0369 29.6681 39.8228 29.7079 39.6257 29.794C39.4287 29.88 39.254 30.01 39.115 30.1741C38.9742 30.3384 38.8193 30.5449 38.6456 30.7796C37.8569 31.817 36.7679 33.2675 34.9606 33.8637L18.3009 17.204C18.1674 17.0796 17.9909 17.0119 17.8085 17.0151C17.6261 17.0183 17.452 17.0922 17.323 17.2212C17.194 17.3503 17.1201 17.5243 17.1169 17.7067C17.1137 17.8891 17.1814 18.0657 17.3057 18.1992L39.1056 39.999L24.9103 54.199C24.1546 53.415 23.7556 52.279 23.4364 50.6971L20.5917 36.9009C21.7173 36.7871 22.8058 36.4352 23.785 35.8687C24.7643 35.3022 25.6119 34.534 26.2717 33.6149C27.0963 34.643 28.1398 35.4743 29.3262 36.0484C30.5125 36.6225 31.8119 36.925 33.1299 36.9337L25.9008 29.7047C25.5484 29.7971 25.2455 30.0226 25.0559 30.3337L24.9338 30.5355C24.117 31.9062 22.8871 33.9388 20.019 34.1031C19.3243 30.7186 18.7938 28.1603 18.7891 28.1274C18.7138 27.7614 18.4962 27.4403 18.1841 27.2347C17.872 27.0291 17.491 26.956 17.125 27.0313C16.759 27.1066 16.4379 27.3242 16.2323 27.6363C16.0268 27.9484 15.9536 28.3294 16.0289 28.6954C16.0712 28.9066 20.3617 49.7254 20.6715 51.2275C21.1127 53.4057 21.8263 55.0064 22.9294 56.1471L17.2964 61.7801C17.1656 61.9127 17.0924 62.0915 17.0924 62.2777C17.0924 62.4639 17.1656 62.6426 17.2964 62.7753C17.3612 62.8413 17.4387 62.8936 17.5242 62.9291C17.6096 62.9646 17.7014 62.9825 17.7939 62.9818C17.8866 62.9831 17.9785 62.9654 18.064 62.9299C18.1496 62.8943 18.227 62.8417 18.2915 62.7753L40.0914 40.9754L61.9006 62.7941C62.0327 62.9259 62.2116 63 62.3982 63C62.5848 63 62.7638 62.9259 62.8958 62.7941C62.9617 62.729 63.0139 62.6515 63.0496 62.5661C63.0853 62.4807 63.1037 62.389 63.1037 62.2964C63.1037 62.2039 63.0853 62.1123 63.0496 62.0268C63.0139 61.9414 62.9617 61.8639 62.8958 61.7989L57.4036 56.3067C58.5772 55.1566 59.3376 53.5183 59.7929 51.251ZM37.0871 35.9902C38.2723 35.3309 39.3181 34.4477 40.1665 33.3896C41.0071 34.4102 42.0308 35.2651 43.1849 35.9104L40.0961 38.9992L37.0871 35.9902Z" fill="#f070a1"/>
<path d="M50.1651 55.6494H30.3086C29.6186 55.6494 29.0037 55.6212 28.431 55.5696L26.0322 57.9683C27.4218 58.3291 28.8545 58.4966 30.2899 58.4659H50.1651C51.5269 58.4911 52.8864 58.3444 54.2115 58.0293L51.7752 55.593C51.2823 55.6306 50.7472 55.6494 50.1651 55.6494Z" fill="#f070a1"/>
</svg>
