<svg width="80" height="80" viewBox="0 0 80 80" fill="#f070a1" xmlns="http://www.w3.org/2000/svg">
<path d="M34.3988 54.7627C34.8613 54.7627 35.3049 54.5789 35.6319 54.2519C35.959 53.9248 36.1427 53.4812 36.1427 53.0187V26.9813C36.1427 26.5187 35.959 26.0752 35.6319 25.7481C35.3049 25.4211 34.8613 25.2373 34.3988 25.2373C33.9362 25.2373 33.4927 25.4211 33.1656 25.7481C32.8385 26.0752 32.6548 26.5187 32.6548 26.9813V53.0187C32.6548 53.4812 32.8385 53.9248 33.1656 54.2519C33.4927 54.5789 33.9362 54.7627 34.3988 54.7627V54.7627Z" fill="#f070a1"/>
<path d="M44.7811 54.7627C45.2436 54.7627 45.6872 54.5789 46.0142 54.2519C46.3413 53.9248 46.525 53.4812 46.525 53.0187V26.9813C46.525 26.5187 46.3413 26.0752 46.0142 25.7481C45.6872 25.4211 45.2436 25.2373 44.7811 25.2373C44.3185 25.2373 43.875 25.4211 43.5479 25.7481C43.2208 26.0752 43.0371 26.5187 43.0371 26.9813V53.0187C43.0371 53.4812 43.2208 53.9248 43.5479 54.2519C43.875 54.5789 44.3185 54.7627 44.7811 54.7627V54.7627Z" fill="#f070a1"/>
<path d="M17 17V63H63V17H17ZM59.5121 59.5121H20.4879V20.4879H59.5121V59.5121Z" fill="#f070a1"/>
</svg>
