<svg width="80" height="80" viewBox="0 0 80 80" fill="#f070a1" xmlns="http://www.w3.org/2000/svg">
<path d="M40 17C35.4511 17 31.0042 18.3489 27.2219 20.8762C23.4396 23.4035 20.4916 26.9956 18.7508 31.1983C17.01 35.401 16.5545 40.0255 17.4419 44.4871C18.3294 48.9486 20.5199 53.0468 23.7366 56.2634C26.9532 59.4801 31.0514 61.6706 35.513 62.5581C39.9745 63.4455 44.599 62.99 48.8018 61.2492C53.0045 59.5084 56.5966 56.5605 59.1238 52.7781C61.6511 48.9958 63 44.549 63 40C62.9922 33.9024 60.5666 28.0568 56.2549 23.7451C51.9433 19.4335 46.0976 17.0078 40 17V17ZM40 59.4841C36.1464 59.4841 32.3794 58.3413 29.1752 56.2004C25.9711 54.0595 23.4738 51.0165 21.9991 47.4562C20.5244 43.896 20.1385 39.9784 20.8903 36.1988C21.6421 32.4193 23.4978 28.9476 26.2227 26.2227C28.9476 23.4978 32.4193 21.6421 36.1989 20.8903C39.9784 20.1385 43.896 20.5244 47.4563 21.9991C51.0165 23.4738 54.0595 25.9711 56.2005 29.1752C58.3414 32.3794 59.4841 36.1464 59.4841 40C59.4795 45.1666 57.4254 50.1204 53.7726 53.7743C50.1198 57.4281 45.1666 59.4837 40 59.4899V59.4841Z" fill="#f070a1"/>
<path d="M54.7705 65H25.2295C24.9034 65 24.5907 65.158 24.3601 65.4393C24.1295 65.7206 24 66.1022 24 66.5C24 66.8978 24.1295 67.2793 24.3601 67.5607C24.5907 67.842 24.9034 68 25.2295 68H54.7705C55.0966 68 55.4093 67.842 55.6399 67.5607C55.8705 67.2793 56 66.8978 56 66.5C56 66.1022 55.8705 65.7206 55.6399 65.4393C55.4093 65.158 55.0966 65 54.7705 65Z" fill="#f070a1"/>
<path d="M35 50H38.6865V41.8423H46.1V38.3923H38.6865V32.45H47V29H35V50Z" fill="#f070a1"/>
</svg>
