<svg width="80" height="80" viewBox="0 0 80 80" fill="#f070a1" xmlns="http://www.w3.org/2000/svg">
<path d="M40.9261 58.0773C41.0686 57.9348 41.1816 57.7656 41.2588 57.5794C41.3359 57.3932 41.3756 57.1937 41.3756 56.9922C41.3756 56.7906 41.3359 56.591 41.2588 56.4049C41.1816 56.2187 41.0686 56.0495 40.9261 55.907C40.7836 55.7645 40.6144 55.6515 40.4282 55.5743C40.242 55.4972 40.0425 55.4575 39.841 55.4575C39.6394 55.4575 39.4399 55.4972 39.2537 55.5743C39.0675 55.6515 38.8983 55.7645 38.7558 55.907C35.3103 59.3584 37.504 61.8328 38.6856 63.1607C39.8673 64.4886 40.1188 64.7753 38.7558 66.1383C38.468 66.4261 38.3064 66.8164 38.3064 67.2234C38.3064 67.6304 38.468 68.0207 38.7558 68.3085C39.0436 68.5963 39.434 68.758 39.841 68.758C40.248 68.758 40.6383 68.5963 40.9261 68.3085C44.3365 64.9039 42.1545 62.4588 40.9787 61.1192C39.8029 59.7796 39.528 59.4929 40.9261 58.0773Z" fill="#f070a1"/>
<path d="M32.3035 58.0773C32.446 57.9348 32.5591 57.7656 32.6362 57.5794C32.7133 57.3932 32.753 57.1937 32.753 56.9922C32.753 56.7906 32.7133 56.591 32.6362 56.4049C32.5591 56.2187 32.446 56.0495 32.3035 55.907C32.161 55.7645 31.9919 55.6515 31.8057 55.5743C31.6195 55.4972 31.4199 55.4575 31.2184 55.4575C31.0169 55.4575 30.8173 55.4972 30.6311 55.5743C30.4449 55.6515 30.2758 55.7645 30.1333 55.907C26.6878 59.3584 28.8814 61.827 30.0631 63.1607C31.2447 64.4945 31.4963 64.7753 30.1333 66.1383C29.8455 66.4261 29.6838 66.8164 29.6838 67.2234C29.6838 67.6304 29.8455 68.0207 30.1333 68.3085C30.4211 68.5963 30.8114 68.758 31.2184 68.758C31.6254 68.758 32.0157 68.5963 32.3035 68.3085C35.7139 64.9039 33.532 62.4588 32.3562 61.1192C31.1804 59.7796 30.8996 59.4929 32.3035 58.0773Z" fill="#f070a1"/>
<path d="M49.5486 58.0773C49.8364 57.7895 49.9981 57.3992 49.9981 56.9922C49.9981 56.5852 49.8364 56.1948 49.5486 55.907C49.2609 55.6192 48.8705 55.4575 48.4635 55.4575C48.0565 55.4575 47.6662 55.6192 47.3784 55.907C43.9329 59.3584 46.1265 61.827 47.3082 63.1607C48.4898 64.4945 48.7414 64.7753 47.3784 66.1383C47.0906 66.4261 46.9289 66.8164 46.9289 67.2234C46.9289 67.6304 47.0906 68.0207 47.3784 68.3085C47.6662 68.5963 48.0565 68.758 48.4635 68.758C48.8705 68.758 49.2609 68.5963 49.5486 68.3085C52.9591 64.9039 50.7771 62.4588 49.6013 61.1192C48.4255 59.7796 48.1506 59.4929 49.5486 58.0773Z" fill="#f070a1"/>
<path d="M43.6521 48.5366H35.7198L32.21 52.0465H47.162L43.6521 48.5366Z" fill="#f070a1"/>
<path d="M53.2864 52.0463H63.2661L62.8449 49.9462C62.6694 49.0629 58.5278 28.3547 58.1651 26.6173C58.1651 26.4711 58.0949 26.3424 58.0657 26.202L52.1165 32.1395H55.6965C56.7144 37.1995 58.2529 44.8627 58.9841 48.5188H49.7766L40.9259 39.6857L68.0922 12.5194C68.1736 12.4376 68.2381 12.3406 68.282 12.2338C68.326 12.1271 68.3484 12.0127 68.3481 11.8973C68.3479 11.7818 68.3249 11.6676 68.2804 11.561C68.236 11.4545 68.171 11.3578 68.0892 11.2763C68.0074 11.1949 67.9104 11.1304 67.8036 11.0865C67.6969 11.0425 67.5825 11.0201 67.4671 11.0203C67.3517 11.0206 67.2374 11.0437 67.1309 11.0881C67.0243 11.1325 66.9276 11.1975 66.8462 11.2793L56.4394 21.686C54.2575 17.5911 50.5195 15.8362 44.2836 15.8362H27.3486C26.8831 15.8362 26.4368 16.0211 26.1077 16.3503C25.7785 16.6794 25.5936 17.1257 25.5936 17.5912C25.5936 18.0566 25.7785 18.503 26.1077 18.8321C26.4368 19.1612 26.8831 19.3461 27.3486 19.3461H44.3129C50.1626 19.3461 52.5435 20.9489 53.8655 24.2774L49.5309 28.6121H38.5626C35.9604 28.5914 33.3673 28.9199 30.8526 29.589L12.5194 11.2793C12.4391 11.1931 12.3422 11.1239 12.2346 11.076C12.127 11.028 12.0108 11.0022 11.8929 11.0001C11.7751 10.9981 11.6581 11.0197 11.5488 11.0639C11.4396 11.108 11.3403 11.1737 11.257 11.257C11.1737 11.3403 11.108 11.4396 11.0639 11.5488C11.0197 11.6581 10.9981 11.7751 11.0001 11.893C11.0022 12.0108 11.028 12.1269 11.076 12.2346C11.1239 12.3422 11.1931 12.4391 11.2793 12.5194L38.4456 39.6857L29.5949 48.5364H17.8954C18.6149 44.9797 21.0601 37.4219 29.0626 33.912L26.436 31.2855C22.8528 33.1316 19.8564 35.9417 17.7842 39.3991C15.8042 42.6703 14.5513 46.3292 14.1106 50.1275L13.9351 52.0463H26.085L11.2793 66.852C11.1972 66.9331 11.1321 67.0296 11.0876 67.1361C11.0431 67.2425 11.0202 67.3567 11.0202 67.4721C11.0202 67.5874 11.0431 67.7016 11.0876 67.8081C11.1321 67.9145 11.1972 68.0111 11.2793 68.0921C11.4438 68.2565 11.6668 68.3488 11.8994 68.3488C12.1319 68.3488 12.3549 68.2565 12.5194 68.0921L39.674 40.9259L66.8345 68.0863C67 68.251 67.224 68.3434 67.4575 68.3434C67.691 68.3434 67.9149 68.251 68.0805 68.0863C68.2434 67.921 68.3347 67.6983 68.3347 67.4662C68.3347 67.2342 68.2434 67.0114 68.0805 66.8461L53.2864 52.0463ZM33.7833 32.5431C35.3615 32.2691 36.9607 32.134 38.5626 32.1395H45.9918L39.674 38.4456L33.7833 32.5431Z" fill="#f070a1"/>
</svg>
