<svg width="80" height="80" viewBox="0 0 80 80" fill="#f070a1" xmlns="http://www.w3.org/2000/svg">
<path d="M33.2952 35.8723C32.7502 35.862 32.2087 35.9643 31.7029 36.173C31.1972 36.3818 30.7376 36.6927 30.3515 37.0874C29.9653 37.482 29.6606 37.9523 29.4553 38.4703C29.2501 38.9882 29.1485 39.5432 29.1567 40.1022C29.143 40.6016 29.2271 41.0987 29.4039 41.5641C29.5807 42.0296 29.8466 42.454 30.186 42.8123C30.5254 43.1706 30.9314 43.4555 31.38 43.6502C31.8285 43.8449 32.3106 43.9454 32.7977 43.9459C33.1356 43.9646 33.4738 43.9149 33.7929 43.7995C34.1121 43.6841 34.4059 43.5054 34.6577 43.2735C34.0904 44.933 32.7977 46.0251 30.5517 46.5354L31.3934 48.6336C34.8809 48.2474 37.7174 45.4433 37.7174 40.6316C37.7407 37.7608 35.9783 35.8723 33.2952 35.8723ZM33.4487 41.4756C33.2453 41.4842 33.0423 41.4498 32.8525 41.3745C32.6626 41.2992 32.4899 41.1846 32.3451 41.0379C32.2003 40.8912 32.0865 40.7154 32.0107 40.5216C31.935 40.3279 31.899 40.1202 31.9049 39.9115C31.9035 39.725 31.9389 39.5401 32.009 39.368C32.0791 39.196 32.1825 39.0402 32.3128 38.9101C32.4431 38.78 32.5977 38.6783 32.7673 38.6111C32.937 38.5439 33.1181 38.5126 33.2999 38.519C34.3787 38.519 34.9971 39.4489 34.9971 40.6125C34.8329 40.8805 34.6042 41.1006 34.333 41.2518C34.0618 41.4029 33.7573 41.48 33.4487 41.4756V41.4756Z" fill="#f070a1"/>
<path d="M42.5532 40.2978H42.1393L42.3811 38.7289H46.0593V36.0869H40.1119L39.2842 42.9921C39.9507 42.7709 40.6484 42.6646 41.3488 42.6774C42.7903 42.6774 43.5669 43.4357 43.5669 44.4371C43.5738 44.6477 43.5377 44.8574 43.4607 45.0528C43.3837 45.2482 43.2676 45.4248 43.12 45.5713C42.9723 45.7178 42.7963 45.8309 42.6034 45.9033C42.4104 45.9757 42.2048 46.0059 41.9998 45.9917C41.5874 45.9745 41.1824 45.8738 40.8081 45.6954C40.4338 45.5169 40.0977 45.2644 39.819 44.9521L38.3774 46.9789C39.0982 48.0328 40.6606 48.6337 41.9347 48.6337C44.3899 48.6337 46.315 47.0838 46.315 44.3131C46.315 41.7952 44.6317 40.2978 42.5532 40.2978Z" fill="#f070a1"/>
<path d="M50.7886 35.2045C49.9684 35.2045 49.1819 35.5386 48.602 36.1334C48.0221 36.7281 47.6963 37.5347 47.6963 38.3758C47.6963 39.2168 48.0221 40.0235 48.602 40.6182C49.1819 41.2129 49.9684 41.547 50.7886 41.547C51.6231 41.537 52.42 41.1889 53.0053 40.5788C53.5907 39.9686 53.9171 39.1459 53.9134 38.2899C53.917 37.8735 53.8377 37.4608 53.6805 37.0769C53.5232 36.693 53.2912 36.3461 52.9987 36.0573C52.7062 35.7685 52.3594 35.5439 51.9794 35.3972C51.5993 35.2506 51.1941 35.185 50.7886 35.2045V35.2045ZM50.8211 39.258C50.6522 39.2561 50.4875 39.2032 50.3477 39.106C50.2079 39.0087 50.0991 38.8714 50.0349 38.7111C49.9707 38.5508 49.9539 38.3747 49.9867 38.2048C50.0194 38.0348 50.1003 37.8785 50.2191 37.7553C50.3379 37.6322 50.4895 37.5476 50.6548 37.5122C50.8202 37.4768 50.9921 37.4921 51.1491 37.5563C51.306 37.6204 51.4411 37.7305 51.5374 37.8729C51.6337 38.0152 51.687 38.1835 51.6907 38.3567C51.6913 38.4744 51.6693 38.5911 51.6259 38.7002C51.5825 38.8092 51.5187 38.9083 51.4379 38.992C51.3572 39.0757 51.2611 39.1423 51.1553 39.188C51.0495 39.2336 50.9359 39.2574 50.8211 39.258V39.258Z" fill="#f070a1"/>
<path d="M62.897 24.0966C62.5351 24.0205 62.1585 24.0948 61.8499 24.3031C61.5413 24.5114 61.3259 24.8368 61.2509 25.2078L60.2837 30.01C56.5172 29.9146 54.8711 26.4477 54.8013 26.2998C54.6943 26.0661 54.5275 25.8664 54.3188 25.722C54.11 25.5776 53.867 25.4938 53.6156 25.4796C53.3632 25.4654 53.1117 25.5217 52.8881 25.6427C52.6645 25.7636 52.4772 25.9446 52.3461 26.1663L52.2206 26.3809C51.3696 27.8115 50.0862 30.0147 46.9847 30.0147C43.7901 30.0147 41.9812 27.3633 41.2093 26.2331L41.1117 26.0852C40.9886 25.9062 40.8271 25.7585 40.6396 25.6536C40.4521 25.5487 40.2436 25.4894 40.0302 25.4802C39.8168 25.4709 39.6042 25.5121 39.4087 25.6005C39.2133 25.6889 39.0402 25.822 38.9029 25.9898C38.7681 26.152 38.61 26.3618 38.4379 26.6003C37.4335 27.9594 35.9176 30.0147 33.0718 30.0147C29.189 30.0147 27.4918 26.4524 27.4313 26.2998C27.324 26.0657 27.1568 25.8657 26.9475 25.7213C26.7382 25.5769 26.4946 25.4934 26.2427 25.4797C25.9907 25.466 25.7399 25.5226 25.5169 25.6435C25.2939 25.7644 25.107 25.9451 24.9761 26.1663L24.8552 26.3761C24.0182 27.8068 22.7581 29.9575 19.7402 30.01C19.1822 27.2488 18.8102 25.2745 18.773 25.2078C18.7436 25.0166 18.6767 24.8336 18.5763 24.6697C18.4759 24.5058 18.3442 24.3645 18.1891 24.2544C18.0339 24.1442 17.8586 24.0675 17.6737 24.0288C17.4888 23.9902 17.2982 23.9904 17.1134 24.0295C16.9286 24.0685 16.7534 24.1456 16.5985 24.2561C16.4436 24.3666 16.3121 24.5082 16.2121 24.6723C16.1121 24.8364 16.0456 25.0196 16.0166 25.2108C15.9876 25.402 15.9967 25.5973 16.0434 25.7848C16.0853 25.9994 20.3354 47.1491 20.6376 48.6751C21.6932 54.0161 24.2833 56 30.1841 56H49.8305C55.7314 56 58.3214 54.0161 59.377 48.6751C59.6792 47.1348 63.9293 25.9851 63.9712 25.7848C64.0456 25.415 63.9745 25.03 63.7733 24.7137C63.572 24.3975 63.2571 24.1757 62.897 24.0966V24.0966ZM56.6521 48.1219C55.9174 51.8368 54.792 53.153 49.8398 53.153H30.1748C25.2365 53.153 24.0972 51.8368 23.3625 48.1219C23.1812 47.1681 21.563 39.147 20.2982 32.8617C21.4576 32.7829 22.5859 32.4428 23.6026 31.8659C24.6193 31.2889 25.4995 30.4891 26.1805 29.5235C27.0126 30.5789 28.066 31.4283 29.2623 32.0087C30.4586 32.5891 31.767 32.8855 33.0904 32.876C36.5547 32.876 38.703 30.8207 39.9678 29.2613C41.2791 30.8588 43.539 32.876 47.0033 32.876C48.2793 32.897 49.5413 32.6009 50.6814 32.0129C51.8216 31.425 52.806 30.5627 53.5505 29.4997C54.3119 30.4466 55.249 31.2293 56.3074 31.8023C57.3658 32.3753 58.5245 32.7273 59.7164 32.8379C58.4516 39.1422 56.8334 47.192 56.6521 48.1219Z" fill="#f070a1"/>
</svg>
