<svg width="80" height="80" viewBox="0 0 80 80" fill="#f070a1" xmlns="http://www.w3.org/2000/svg">
<path d="M34.3988 51.7627C34.8613 51.7627 35.3049 51.621 35.6319 51.3689C35.959 51.1167 36.1427 50.7747 36.1427 50.4181V30.3445C36.1427 29.9879 35.959 29.646 35.6319 29.3938C35.3049 29.1417 34.8613 29 34.3988 29C33.9362 29 33.4927 29.1417 33.1656 29.3938C32.8385 29.646 32.6548 29.9879 32.6548 30.3445V50.4181C32.6548 50.7747 32.8385 51.1167 33.1656 51.3689C33.4927 51.621 33.9362 51.7627 34.3988 51.7627V51.7627Z" fill="#f070a1"/>
<path d="M44.7811 51.7627C45.2436 51.7627 45.6872 51.621 46.0142 51.3689C46.3413 51.1167 46.525 50.7747 46.525 50.4181V30.3445C46.525 29.9879 46.3413 29.646 46.0142 29.3938C45.6872 29.1417 45.2436 29 44.7811 29C44.3185 29 43.875 29.1417 43.5479 29.3938C43.2208 29.646 43.0371 29.9879 43.0371 30.3445V50.4181C43.0371 50.7747 43.2208 51.1167 43.5479 51.3689C43.875 51.621 44.3185 51.7627 44.7811 51.7627V51.7627Z" fill="#f070a1"/>
<path d="M17 17V63H63V17H17ZM59.5121 59.5121H20.4879V20.4879H59.5121V59.5121Z" fill="#f070a1"/>
<path fill-rule="evenodd" clip-rule="evenodd" d="M37.0598 20.4878L20.0243 37.5V32.5704L32.107 20.4878H37.0598Z" fill="#f070a1"/>
<path fill-rule="evenodd" clip-rule="evenodd" d="M30.1548 19.9049L19.6548 30.3817V25.4521L25.2019 19.9049H30.1548Z" fill="#f070a1"/>
</svg>
