<?xml version="1.0" encoding="UTF-8"?>
<svg id="Layer_1" xmlns="http://www.w3.org/2000/svg" xmlns:xlink="http://www.w3.org/1999/xlink" version="1.1" viewBox="0 0 648 1152">
  <!-- Generator: Adobe Illustrator 29.3.0, SVG Export Plug-In . SVG Version: 2.1.0 Build 146)  -->
  <defs>
    <style>
      .st0 {
        fill: #010101;
      }

      .st1 {
        stroke: #eb5ba1;
      }

      .st1, .st2, .st3 {
        fill: none;
        stroke-miterlimit: 10;
      }

      .st1, .st3 {
        stroke-width: 5px;
      }

      .st4 {
        isolation: isolate;
      }

      .st5 {
        fill: #fcebf3;
      }

      .st2 {
        stroke-width: 4px;
      }

      .st2, .st3 {
        stroke: #eb569e;
      }

      .st6 {
        opacity: .15;
      }

      .st7 {
        fill: #246d55;
      }

      .st8 {
        fill: #eb569e;
      }
    </style>
  </defs>
  <rect class="st7" y="1" width="648" height="1152"/>
  <g class="st6">
    <g>
      <g>
        <ellipse class="st3" cx="153.18" cy="210.02" rx="11.01" ry="11.33"/>
        <path class="st3" d="M110.03,284.21v-68.77s19.51,14.55,43.15,14.3c0,0,27.51,0,26.51-19.71,0,0-.25-17.39-26.51-17.64,0,0-16.88-1.42-43.15,12.62v-63.62"/>
        <path class="st3" d="M219.39,141.38h-97.35v24.73s-1.13,10.69,7.75,10.95c0,0,7.75.77,11.38-6.83,0,0,3.25-7.08,8.75-6.57,0,0,4.88-.26,8.63,9.4,0,0,1.88,5.41,8,6.05,0,0,7.25,1.16,11.76-6.83,0,0,4-7.08,9-8.5,0,0,8.63-2.58,9.5,12.11v108.44"/>
      </g>
      <g>
        <ellipse class="st3" cx="46.88" cy="210.02" rx="11.01" ry="11.33"/>
        <path class="st3" d="M3.73,284.21v-68.77s19.51,14.55,43.15,14.3c0,0,27.51,0,26.51-19.7,0,0-.25-17.39-26.51-17.64,0,0-16.88-1.42-43.15,12.62v-63.62c4.36.03,7.64-.03,12.01,0"/>
        <path class="st3" d="M113.14,141.38H15.73v24.73s-1.13,10.69,7.75,10.95c0,0,7.75.77,11.38-6.83,0,0,3.25-7.08,8.75-6.57,0,0,4.88-.26,8.63,9.4,0,0,1.88,5.41,8,6.05,0,0,7.25,1.16,11.76-6.83,0,0,4-7.08,9-8.5,0,0,8.63-2.58,9.5,12.11v108.44"/>
      </g>
      <g>
        <ellipse class="st3" cx="259.48" cy="210.02" rx="11.01" ry="11.33"/>
        <path class="st3" d="M216.34,284.21v-68.77s19.51,14.55,43.15,14.3c0,0,27.51,0,26.51-19.71,0,0-.25-17.39-26.51-17.64,0,0-16.88-1.42-43.15,12.62v-63.62"/>
        <path class="st3" d="M325.9,141.57l-97.55-.19v24.73s-1.13,10.69,7.75,10.95c0,0,7.75.77,11.38-6.83,0,0,3.25-7.08,8.75-6.57,0,0,4.88-.26,8.63,9.4,0,0,1.88,5.41,8,6.05,0,0,7.25,1.16,11.76-6.83,0,0,4-7.08,9-8.5,0,0,8.63-2.58,9.5,12.11v108.44"/>
      </g>
      <g>
        <ellipse class="st3" cx="365.91" cy="210.02" rx="11.01" ry="11.33"/>
        <path class="st3" d="M322.77,284.21v-68.77s19.51,14.55,43.15,14.3c0,0,27.51,0,26.51-19.71,0,0-.25-17.39-26.51-17.64,0,0-16.88-1.42-43.15,12.62v-63.62"/>
        <path class="st3" d="M432.33,141.38h-97.56v24.73s-1.13,10.69,7.75,10.95c0,0,7.75.77,11.38-6.83,0,0,3.25-7.08,8.75-6.57,0,0,4.88-.26,8.63,9.4,0,0,1.88,5.41,8,6.05,0,0,7.25,1.16,11.76-6.83,0,0,4-7.08,9-8.5,0,0,8.63-2.58,9.5,12.11v108.44"/>
      </g>
      <g>
        <ellipse class="st3" cx="472.34" cy="210.02" rx="11.01" ry="11.33"/>
        <path class="st3" d="M429.2,284.21v-68.77s19.51,14.55,43.15,14.3c0,0,27.51,0,26.51-19.71,0,0-.25-17.39-26.51-17.64,0,0-16.88-1.42-43.15,12.62v-63.62"/>
        <path class="st3" d="M538.76,141.38h-97.56v24.73s-1.13,10.69,7.75,10.95c0,0,7.75.77,11.38-6.83,0,0,3.25-7.08,8.75-6.57,0,0,4.88-.26,8.63,9.4,0,0,1.88,5.41,8,6.05,0,0,7.25,1.16,11.76-6.83,0,0,4-7.08,9-8.5,0,0,8.63-2.58,9.5,12.11v108.44"/>
      </g>
      <g>
        <ellipse class="st3" cx="578.77" cy="210.02" rx="11.01" ry="11.33"/>
        <path class="st3" d="M535.62,284.21v-68.77s19.51,14.55,43.15,14.3c0,0,27.51,0,26.51-19.71,0,0-.25-17.39-26.51-17.64,0,0-16.88-1.42-43.15,12.62v-63.62"/>
        <path class="st3" d="M643.3,284.33v-142.96h-95.67v24.73s-1.13,10.69,7.75,10.95c0,0,7.75.77,11.38-6.83,0,0,3.25-7.08,8.75-6.57,0,0,4.88-.26,8.63,9.4,0,0,1.88,5.41,8,6.05,0,0,7.25,1.16,11.76-6.83,0,0,4-7.08,9-8.5,0,0,8.63-2.58,9.5,12.11v108.44"/>
      </g>
    </g>
    <g>
      <g>
        <ellipse class="st3" cx="152.21" cy="355.76" rx="11.02" ry="11.33"/>
        <path class="st3" d="M108.99,429.95v-68.77s19.54,14.55,43.22,14.3c0,0,27.56,0,26.56-19.71,0,0-.25-17.39-26.56-17.64,0,0-16.91-1.42-43.22,12.62v-63.62"/>
        <path class="st3" d="M218.54,287.12h-97.52v24.73s-1.13,10.69,7.77,10.95c0,0,7.77.77,11.4-6.83,0,0,3.26-7.08,8.77-6.57,0,0,4.89-.26,8.64,9.4,0,0,1.88,5.41,8.02,6.05,0,0,7.27,1.16,11.78-6.83,0,0,4.01-7.08,9.02-8.5,0,0,8.64-2.58,9.52,12.11v108.44"/>
      </g>
      <g>
        <ellipse class="st3" cx="45.72" cy="355.76" rx="11.02" ry="11.33"/>
        <path class="st3" d="M2.5,429.95v-68.77s19.54,14.55,43.22,14.3c0,0,27.56,0,26.56-19.7,0,0-.25-17.39-26.56-17.64,0,0-16.91-1.42-43.22,12.62v-63.62c4.37.03,7.66-.03,12.03,0"/>
        <path class="st3" d="M112.11,287.12H14.53v24.73s-1.13,10.69,7.77,10.95c0,0,7.77.77,11.4-6.83,0,0,3.26-7.08,8.77-6.57,0,0,4.89-.26,8.64,9.4,0,0,1.88,5.41,8.02,6.05,0,0,7.27,1.16,11.78-6.83,0,0,4.01-7.08,9.02-8.5,0,0,8.64-2.58,9.52,12.11v108.44"/>
      </g>
      <g>
        <ellipse class="st3" cx="258.7" cy="355.76" rx="11.02" ry="11.33"/>
        <path class="st3" d="M215.48,429.95v-68.77s19.54,14.55,43.22,14.3c0,0,27.56,0,26.56-19.71,0,0-.25-17.39-26.56-17.64,0,0-16.91-1.42-43.22,12.62v-63.62"/>
        <path class="st3" d="M325.23,287.31l-97.72-.19v24.73s-1.13,10.69,7.77,10.95c0,0,7.77.77,11.4-6.83,0,0,3.26-7.08,8.77-6.57,0,0,4.89-.26,8.64,9.4,0,0,1.88,5.41,8.02,6.05,0,0,7.27,1.16,11.78-6.83,0,0,4.01-7.08,9.02-8.5,0,0,8.64-2.58,9.52,12.11v108.44"/>
      </g>
      <g>
        <ellipse class="st3" cx="365.31" cy="355.76" rx="11.02" ry="11.33"/>
        <path class="st3" d="M322.09,429.95v-68.77s19.54,14.55,43.22,14.3c0,0,27.56,0,26.56-19.71,0,0-.25-17.39-26.56-17.64,0,0-16.91-1.42-43.22,12.62v-63.62"/>
        <path class="st3" d="M431.84,287.12h-97.73v24.73s-1.13,10.69,7.77,10.95c0,0,7.77.77,11.4-6.83,0,0,3.26-7.08,8.77-6.57,0,0,4.89-.26,8.64,9.4,0,0,1.88,5.41,8.02,6.05,0,0,7.27,1.16,11.78-6.83,0,0,4.01-7.08,9.02-8.5,0,0,8.64-2.58,9.52,12.11l.21,90.05"/>
      </g>
      <g>
        <ellipse class="st3" cx="471.93" cy="355.76" rx="11.02" ry="11.33"/>
        <path class="st3" d="M334.12,433.98c.25-4.62-1.57-7.02-3.73-15.2l-5.16-19.49,26.14,23.71,8.68-37.97,17.75,20.65,20.54-23.5,4.99,35.36,25.38-25.09v37.5-68.77s19.54,14.55,43.22,14.3c0,0,27.56,0,26.56-19.7,0,0-.25-17.39-26.56-17.64,0,0-16.91-1.42-43.22,12.62v-63.62"/>
        <path class="st3" d="M538.47,287.12h-97.73v24.73s-1.13,10.69,7.77,10.95c0,0,7.77.77,11.4-6.83,0,0,3.26-7.08,8.77-6.57,0,0,4.89-.26,8.64,9.4,0,0,1.88,5.41,8.02,6.05,0,0,7.27,1.16,11.78-6.83,0,0,4.01-7.08,9.02-8.5,0,0,8.64-2.58,9.52,12.11v108.44"/>
      </g>
      <g>
        <ellipse class="st3" cx="578.54" cy="355.76" rx="11.02" ry="11.33"/>
        <path class="st3" d="M535.32,429.95v-68.77s19.54,14.55,43.22,14.3c0,0,27.56,0,26.56-19.71,0,0-.25-17.39-26.56-17.64,0,0-16.91-1.42-43.22,12.62v-63.62"/>
        <path class="st3" d="M643.19,430.08v-142.96h-95.84v24.73s-1.13,10.69,7.77,10.95c0,0,7.77.77,11.4-6.83,0,0,3.26-7.08,8.77-6.57,0,0,4.89-.26,8.64,9.4,0,0,1.88,5.41,8.02,6.05,0,0,7.27,1.16,11.78-6.83,0,0,4.01-7.08,9.02-8.5,0,0,8.64-2.58,9.52,12.11v108.44"/>
      </g>
    </g>
    <g>
      <g>
        <ellipse class="st3" cx="152.21" cy="501.52" rx="11.02" ry="11.33"/>
        <path class="st3" d="M108.99,575.7v-68.77s19.54,14.55,43.22,14.3c0,0,27.56,0,26.56-19.71,0,0-.25-17.39-26.56-17.64,0,0-16.91-1.42-43.22,12.62v-63.62"/>
        <path class="st3" d="M218.54,432.87h-97.52v24.73s-1.13,10.69,7.77,10.95c0,0,7.77.77,11.4-6.83,0,0,3.26-7.08,8.77-6.57,0,0,4.89-.26,8.64,9.4,0,0,1.88,5.41,8.02,6.05,0,0,7.27,1.16,11.78-6.83,0,0,4.01-7.08,9.02-8.5,0,0,8.64-2.58,9.52,12.11v108.44"/>
      </g>
      <g>
        <ellipse class="st3" cx="45.72" cy="501.52" rx="11.02" ry="11.33"/>
        <path class="st3" d="M2.5,575.7v-68.77s19.54,14.55,43.22,14.3c0,0,27.56,0,26.56-19.7,0,0-.25-17.39-26.56-17.64,0,0-16.91-1.42-43.22,12.62v-63.62c4.37.03,7.66-.03,12.03,0"/>
        <path class="st3" d="M112.11,432.87H14.53v24.73s-1.13,10.69,7.77,10.95c0,0,7.77.77,11.4-6.83,0,0,3.26-7.08,8.77-6.57,0,0,4.89-.26,8.64,9.4,0,0,1.88,5.41,8.02,6.05,0,0,7.27,1.16,11.78-6.83,0,0,4.01-7.08,9.02-8.5,0,0,8.64-2.58,9.52,12.11v108.44"/>
      </g>
      <g>
        <ellipse class="st3" cx="258.7" cy="501.52" rx="11.02" ry="11.33"/>
        <path class="st3" d="M215.48,575.7v-68.77s19.54,14.55,43.22,14.3c0,0,27.56,0,26.56-19.71,0,0-.25-17.39-26.56-17.64,0,0-16.91-1.42-43.22,12.62v-63.62"/>
        <path class="st3" d="M325.23,433.07l-97.72-.19v24.73s-1.13,10.69,7.77,10.95c0,0,7.77.77,11.4-6.83,0,0,3.26-7.08,8.77-6.57,0,0,4.89-.26,8.64,9.4,0,0,1.88,5.41,8.02,6.05,0,0,7.27,1.16,11.78-6.83,0,0,4.01-7.08,9.02-8.5,0,0,8.64-2.58,9.52,12.11v108.44"/>
      </g>
      <g>
        <ellipse class="st3" cx="365.31" cy="501.52" rx="11.02" ry="11.33"/>
        <path class="st3" d="M322.09,575.7v-68.77s19.54,14.55,43.22,14.3c0,0,27.56,0,26.56-19.71,0,0-.25-17.39-26.56-17.64,0,0-16.91-1.42-43.22,12.62v-63.62"/>
        <path class="st3" d="M334.12,432.87v24.73s-1.13,10.69,7.77,10.95c0,0,7.77.77,11.4-6.83,0,0,3.26-7.08,8.77-6.57,0,0,4.89-.26,8.64,9.4,0,0,1.88,5.41,8.02,6.05,0,0,7.27,1.16,11.78-6.83,0,0,4.01-7.08,9.02-8.5,0,0,8.64-2.58,9.52,12.11v108.44"/>
      </g>
      <g>
        <ellipse class="st3" cx="471.93" cy="501.52" rx="11.02" ry="11.33"/>
        <path class="st3" d="M428.71,575.7v-68.77s19.54,14.55,43.22,14.3c0,0,27.56,0,26.56-19.71,0,0-.25-17.39-26.56-17.64,0,0-16.91-1.42-43.22,12.62v-66.55"/>
        <path class="st3" d="M538.47,432.87h-97.73v24.73s-1.13,10.69,7.77,10.95c0,0,7.77.77,11.4-6.83,0,0,3.26-7.08,8.77-6.57,0,0,4.89-.26,8.64,9.4,0,0,1.88,5.41,8.02,6.05,0,0,7.27,1.16,11.78-6.83,0,0,4.01-7.08,9.02-8.5,0,0,8.64-2.58,9.52,12.11v108.44"/>
      </g>
      <g>
        <ellipse class="st3" cx="578.54" cy="501.52" rx="11.02" ry="11.33"/>
        <path class="st3" d="M535.32,575.7v-68.77s19.54,14.55,43.22,14.3c0,0,27.56,0,26.56-19.71,0,0-.25-17.39-26.56-17.64,0,0-16.91-1.42-43.22,12.62v-63.62"/>
        <path class="st3" d="M643.19,575.83v-142.96h-95.84v24.73s-1.13,10.69,7.77,10.95c0,0,7.77.77,11.4-6.83,0,0,3.26-7.08,8.77-6.57,0,0,4.89-.26,8.64,9.4,0,0,1.88,5.41,8.02,6.05,0,0,7.27,1.16,11.78-6.83,0,0,4.01-7.08,9.02-8.5,0,0,8.64-2.58,9.52,12.11v108.44"/>
      </g>
    </g>
    <g>
      <g>
        <ellipse class="st3" cx="152.21" cy="647.26" rx="11.02" ry="11.33"/>
        <path class="st3" d="M108.99,721.45v-68.77s19.54,14.55,43.22,14.3c0,0,27.56,0,26.56-19.71,0,0-.25-17.39-26.56-17.64,0,0-16.91-1.42-43.22,12.62v-63.62"/>
        <path class="st3" d="M218.54,578.62h-97.52v24.73s-1.13,10.69,7.77,10.95c0,0,7.77.77,11.4-6.83,0,0,3.26-7.08,8.77-6.57,0,0,4.89-.26,8.64,9.4,0,0,1.88,5.41,8.02,6.05,0,0,7.27,1.16,11.78-6.83,0,0,4.01-7.08,9.02-8.5,0,0,8.64-2.58,9.52,12.11v108.44"/>
      </g>
      <g>
        <ellipse class="st3" cx="45.72" cy="647.26" rx="11.02" ry="11.33"/>
        <path class="st3" d="M2.5,721.45v-68.77s19.54,14.55,43.22,14.3c0,0,27.56,0,26.56-19.7,0,0-.25-17.39-26.56-17.64,0,0-16.91-1.42-43.22,12.62v-63.62c4.37.03,7.66-.03,12.03,0"/>
        <path class="st3" d="M112.11,578.62H14.53v24.73s-1.13,10.69,7.77,10.95c0,0,7.77.77,11.4-6.83,0,0,3.26-7.08,8.77-6.57,0,0,4.89-.26,8.64,9.4,0,0,1.88,5.41,8.02,6.05,0,0,7.27,1.16,11.78-6.83,0,0,4.01-7.08,9.02-8.5,0,0,8.64-2.58,9.52,12.11v108.44"/>
      </g>
      <g>
        <ellipse class="st3" cx="258.7" cy="647.26" rx="11.02" ry="11.33"/>
        <path class="st3" d="M215.48,721.45v-68.77s19.54,14.55,43.22,14.3c0,0,27.56,0,26.56-19.71,0,0-.25-17.39-26.56-17.64,0,0-16.91-1.42-43.22,12.62v-63.62"/>
        <path class="st3" d="M325.23,578.81l-97.72-.19v24.73s-1.13,10.69,7.77,10.95c0,0,7.77.77,11.4-6.83,0,0,3.26-7.08,8.77-6.57,0,0,4.89-.26,8.64,9.4,0,0,1.88,5.41,8.02,6.05,0,0,7.27,1.16,11.78-6.83,0,0,4.01-7.08,9.02-8.5,0,0,8.64-2.58,9.52,12.11v108.44"/>
      </g>
      <g>
        <ellipse class="st3" cx="365.31" cy="647.26" rx="11.02" ry="11.33"/>
        <path class="st3" d="M322.09,721.45v-68.77s19.54,14.55,43.22,14.3c0,0,27.56,0,26.56-19.71,0,0-.25-17.39-26.56-17.64,0,0-16.91-1.42-43.22,12.62v-63.62"/>
        <path class="st3" d="M431.84,578.62h-97.73v24.73s-1.13,10.69,7.77,10.95c0,0,7.77.77,11.4-6.83,0,0,3.26-7.08,8.77-6.57,0,0,4.89-.26,8.64,9.4,0,0,1.88,5.41,8.02,6.05,0,0,7.27,1.16,11.78-6.83,0,0,4.01-7.08,9.02-8.5,0,0,8.64-2.58,9.52,12.11v108.44"/>
      </g>
      <g>
        <ellipse class="st3" cx="471.93" cy="647.26" rx="11.02" ry="11.33"/>
        <path class="st3" d="M428.71,721.45v-68.77s19.54,14.55,43.22,14.3c0,0,27.56,0,26.56-19.71,0,0-.25-17.39-26.56-17.64,0,0-16.91-1.42-43.22,12.62v-63.62"/>
        <path class="st3" d="M538.47,578.62h-97.73v24.73s-1.13,10.69,7.77,10.95c0,0,7.77.77,11.4-6.83,0,0,3.26-7.08,8.77-6.57,0,0,4.89-.26,8.64,9.4,0,0,1.88,5.41,8.02,6.05,0,0,7.27,1.16,11.78-6.83,0,0,4.01-7.08,9.02-8.5,0,0,8.64-2.58,9.52,12.11v108.44"/>
      </g>
      <g>
        <ellipse class="st3" cx="578.54" cy="647.26" rx="11.02" ry="11.33"/>
        <path class="st3" d="M535.32,721.45v-68.77s19.54,14.55,43.22,14.3c0,0,27.56,0,26.56-19.71,0,0-.25-17.39-26.56-17.64,0,0-16.91-1.42-43.22,12.62v-63.62"/>
        <path class="st3" d="M643.19,721.57v-142.96h-95.84v24.73s-1.13,10.69,7.77,10.95c0,0,7.77.77,11.4-6.83,0,0,3.26-7.08,8.77-6.57,0,0,4.89-.26,8.64,9.4,0,0,1.88,5.41,8.02,6.05,0,0,7.27,1.16,11.78-6.83,0,0,4.01-7.08,9.02-8.5,0,0,8.64-2.58,9.52,12.11v108.44"/>
      </g>
    </g>
    <g>
      <g>
        <ellipse class="st3" cx="152.21" cy="793.01" rx="11.02" ry="11.33"/>
        <path class="st3" d="M108.99,867.2v-68.77s19.54,14.55,43.22,14.3c0,0,27.56,0,26.56-19.71,0,0-.25-17.39-26.56-17.64,0,0-16.91-1.42-43.22,12.62v-63.62"/>
      </g>
      <g>
        <ellipse class="st3" cx="45.72" cy="793.01" rx="11.02" ry="11.33"/>
        <path class="st3" d="M2.5,867.2v-68.77s19.54,14.55,43.22,14.3c0,0,27.56,0,26.56-19.7,0,0-.25-17.39-26.56-17.64,0,0-16.91-1.42-43.22,12.62v-63.62c4.37.03,7.66-.03,12.03,0"/>
        <path class="st3" d="M112.11,724.37H14.53v24.73s-1.13,10.69,7.77,10.95c0,0,7.77.77,11.4-6.83,0,0,3.26-7.08,8.77-6.57,0,0,4.89-.26,8.64,9.4,0,0,1.88,5.41,8.02,6.05,0,0,7.27,1.16,11.78-6.83,0,0,4.01-7.08,9.02-8.5,0,0,8.64-2.58,9.52,12.11v108.44"/>
      </g>
      <g>
        <ellipse class="st3" cx="258.7" cy="793.01" rx="11.02" ry="11.33"/>
        <path class="st3" d="M215.48,867.2v-68.77s19.54,14.55,43.22,14.3c0,0,27.56,0,26.56-19.71,0,0-.25-17.39-26.56-17.64,0,0-16.91-1.42-43.22,12.62v-63.62"/>
        <path class="st3" d="M325.23,724.56l-97.72-.19v24.73s-1.13,10.69,7.77,10.95c0,0,7.77.77,11.4-6.83,0,0,3.26-7.08,8.77-6.57,0,0,4.89-.26,8.64,9.4,0,0,1.88,5.41,8.02,6.05,0,0,7.27,1.16,11.78-6.83,0,0,4.01-7.08,9.02-8.5,0,0,8.64-2.58,9.52,12.11v108.44"/>
      </g>
      <g>
        <ellipse class="st3" cx="365.31" cy="793.01" rx="11.02" ry="11.33"/>
        <path class="st3" d="M322.09,867.2v-68.77s19.54,14.55,43.22,14.3c0,0,27.56,0,26.56-19.71,0,0-.25-17.39-26.56-17.64,0,0-16.91-1.42-43.22,12.62v-63.62"/>
        <path class="st3" d="M431.84,724.37h-97.73v24.73s-1.13,10.69,7.77,10.95c0,0,7.77.77,11.4-6.83,0,0,3.26-7.08,8.77-6.57,0,0,4.89-.26,8.64,9.4,0,0,1.88,5.41,8.02,6.05,0,0,7.27,1.16,11.78-6.83,0,0,4.01-7.08,9.02-8.5,0,0,8.64-2.58,9.52,12.11v108.44"/>
      </g>
      <g>
        <ellipse class="st3" cx="471.93" cy="793.01" rx="11.02" ry="11.33"/>
        <path class="st3" d="M428.71,867.2v-68.77s19.54,14.55,43.22,14.3c0,0,27.56,0,26.56-19.71,0,0-.25-17.39-26.56-17.64,0,0-16.91-1.42-43.22,12.62v-63.62"/>
        <path class="st3" d="M538.47,724.37h-97.73v24.73s-1.13,10.69,7.77,10.95c0,0,7.77.77,11.4-6.83,0,0,3.26-7.08,8.77-6.57,0,0,4.89-.26,8.64,9.4,0,0,1.88,5.41,8.02,6.05,0,0,7.27,1.16,11.78-6.83,0,0,4.01-7.08,9.02-8.5,0,0,8.64-2.58,9.52,12.11v108.44"/>
      </g>
      <g>
        <ellipse class="st3" cx="578.54" cy="793.01" rx="11.02" ry="11.33"/>
        <path class="st3" d="M535.32,867.2v-68.77s19.54,14.55,43.22,14.3c0,0,27.56,0,26.56-19.71,0,0-.25-17.39-26.56-17.64,0,0-16.91-1.42-43.22,12.62v-63.62"/>
        <path class="st3" d="M643.19,867.33v-142.96h-95.84v24.73s-1.13,10.69,7.77,10.95c0,0,7.77.77,11.4-6.83,0,0,3.26-7.08,8.77-6.57,0,0,4.89-.26,8.64,9.4,0,0,1.88,5.41,8.02,6.05,0,0,7.27,1.16,11.78-6.83,0,0,4.01-7.08,9.02-8.5,0,0,8.64-2.58,9.52,12.11v108.44"/>
      </g>
    </g>
    <g>
      <g>
        <ellipse class="st3" cx="152.22" cy="1076.66" rx="11.02" ry="11.33"/>
        <path class="st3" d="M109,1150.84v-68.77s19.54,14.55,43.22,14.3c0,0,27.56,0,26.56-19.71,0,0-.25-17.39-26.56-17.64,0,0-16.91-1.42-43.22,12.62v-63.62"/>
        <path class="st3" d="M218.55,1008.01h-97.52v24.73s-1.13,10.69,7.77,10.95c0,0,7.77.77,11.4-6.83,0,0,3.26-7.08,8.77-6.57,0,0,4.89-.26,8.64,9.4,0,0,1.88,5.41,8.02,6.05,0,0,7.27,1.16,11.78-6.83,0,0,4.01-7.08,9.02-8.5,0,0,8.64-2.58,9.52,12.11v108.44"/>
      </g>
      <g>
        <ellipse class="st3" cx="45.74" cy="1076.66" rx="11.02" ry="11.33"/>
        <path class="st3" d="M646.34,1148.75l-643.83,2.1v-68.77s19.54,14.55,43.22,14.3c0,0,27.56,0,26.56-19.7,0,0-.25-17.39-26.56-17.64,0,0-16.91-1.42-43.22,12.62v-63.62c4.37.03,7.66-.03,12.03,0"/>
        <path class="st3" d="M112.12,1008.01H14.55v24.73s-1.13,10.69,7.77,10.95c0,0,7.77.77,11.4-6.83,0,0,3.26-7.08,8.77-6.57,0,0,4.89-.26,8.64,9.4,0,0,1.88,5.41,8.02,6.05,0,0,7.27,1.16,11.78-6.83,0,0,4.01-7.08,9.02-8.5,0,0,8.64-2.58,9.52,12.11v108.44"/>
      </g>
      <g>
        <ellipse class="st3" cx="258.71" cy="1076.66" rx="11.02" ry="11.33"/>
        <path class="st3" d="M215.49,1150.84v-68.77s19.54,14.55,43.22,14.3c0,0,27.56,0,26.56-19.71,0,0-.25-17.39-26.56-17.64,0,0-16.91-1.42-43.22,12.62v-63.62"/>
        <path class="st3" d="M325.24,1008.21l-97.72-.19v24.73s-1.13,10.69,7.77,10.95c0,0,7.77.77,11.4-6.83,0,0,3.26-7.08,8.77-6.57,0,0,4.89-.26,8.64,9.4,0,0,1.88,5.41,8.02,6.05,0,0,7.27,1.16,11.78-6.83,0,0,4.01-7.08,9.02-8.5,0,0,8.64-2.58,9.52,12.11v108.44"/>
      </g>
      <g>
        <ellipse class="st3" cx="365.32" cy="1076.66" rx="11.02" ry="11.33"/>
        <path class="st3" d="M322.1,1150.84v-68.77s19.54,14.55,43.22,14.3c0,0,27.56,0,26.56-19.71,0,0-.25-17.39-26.56-17.64,0,0-16.91-1.42-43.22,12.62v-63.62"/>
        <path class="st3" d="M431.85,1008.01h-97.72v24.73s-1.13,10.69,7.77,10.95c0,0,7.77.77,11.4-6.83,0,0,3.26-7.08,8.77-6.57,0,0,4.89-.26,8.64,9.4,0,0,1.88,5.41,8.02,6.05,0,0,7.27,1.16,11.78-6.83,0,0,4.01-7.08,9.02-8.5,0,0,8.64-2.58,9.52,12.11v108.44"/>
      </g>
      <g>
        <ellipse class="st3" cx="471.93" cy="1076.66" rx="11.02" ry="11.33"/>
        <path class="st3" d="M428.71,1150.84v-68.77s19.54,14.55,43.22,14.3c0,0,27.56,0,26.56-19.71,0,0-.25-17.39-26.56-17.64,0,0-16.91-1.42-43.22,12.62v-63.62"/>
        <path class="st3" d="M538.47,1008.01h-97.73v24.73s-1.13,10.69,7.77,10.95c0,0,7.77.77,11.4-6.83,0,0,3.26-7.08,8.77-6.57,0,0,4.89-.26,8.64,9.4,0,0,1.88,5.41,8.02,6.05,0,0,7.27,1.16,11.78-6.83,0,0,4.01-7.08,9.02-8.5,0,0,8.64-2.58,9.52,12.11v108.44"/>
      </g>
      <g>
        <ellipse class="st3" cx="578.54" cy="1076.66" rx="11.02" ry="11.33"/>
        <path class="st3" d="M535.32,1150.84v-68.77s19.54,14.55,43.22,14.3c0,0,27.56,0,26.56-19.71,0,0-.25-17.39-26.56-17.64,0,0-16.91-1.42-43.22,12.62v-63.62"/>
        <path class="st3" d="M643.19,1150.97v-142.96h-95.84v24.73s-1.13,10.69,7.77,10.95c0,0,7.77.77,11.4-6.83,0,0,3.26-7.08,8.77-6.57,0,0,4.89-.26,8.64,9.4,0,0,1.88,5.41,8.02,6.05,0,0,7.27,1.16,11.78-6.83,0,0,4.01-7.08,9.02-8.5,0,0,8.64-2.58,9.52,12.11v108.44"/>
      </g>
    </g>
    <g>
      <g>
        <ellipse class="st3" cx="153.18" cy="68.94" rx="11.01" ry="11.22"/>
        <path class="st3" d="M110.04,142.36v-68.06s19.51,14.4,43.15,14.15c0,0,27.51,0,26.51-19.5,0,0-.25-17.21-26.51-17.46,0,0-16.88-1.4-43.15,12.49V1"/>
        <path class="st3" d="M219.39,1h-97.35v24.47s-1.13,10.58,7.75,10.83c0,0,7.75.76,11.38-6.76,0,0,3.25-7.01,8.75-6.5,0,0,4.88-.25,8.63,9.3,0,0,1.88,5.35,8,5.99,0,0,7.25,1.15,11.76-6.76,0,0,4-7.01,9-8.41,0,0,8.63-2.55,9.5,11.98v107.32"/>
      </g>
      <g>
        <ellipse class="st3" cx="46.88" cy="68.94" rx="11.01" ry="11.22"/>
        <path class="st3" d="M3.73,142.36v-68.06s19.51,14.4,43.15,14.15c0,0,27.51,0,26.51-19.5,0,0-.25-17.21-26.51-17.46,0,0-16.88-1.4-43.15,12.49V1c4.36.03,7.64-.03,12.01,0"/>
        <path class="st3" d="M113.15,1H15.74v24.47s-1.13,10.58,7.75,10.83c0,0,7.75.76,11.38-6.76,0,0,3.25-7.01,8.75-6.5,0,0,4.88-.25,8.63,9.3,0,0,1.88,5.35,8,5.99,0,0,7.25,1.15,11.76-6.76,0,0,4-7.01,9-8.41,0,0,8.63-2.55,9.5,11.98v107.32"/>
      </g>
      <g>
        <ellipse class="st3" cx="259.49" cy="68.94" rx="11.01" ry="11.22"/>
        <path class="st3" d="M216.34,142.36v-68.06s19.51,14.4,43.15,14.15c0,0,27.51,0,26.51-19.5,0,0-.25-17.21-26.51-17.46,0,0-16.88-1.4-43.15,12.49V1"/>
        <path class="st3" d="M325.9,1.2l-97.55-.19v24.47s-1.13,10.58,7.75,10.83c0,0,7.75.76,11.38-6.76,0,0,3.25-7.01,8.75-6.5,0,0,4.88-.25,8.63,9.3,0,0,1.88,5.35,8,5.99,0,0,7.25,1.15,11.76-6.76,0,0,4-7.01,9-8.41,0,0,8.63-2.55,9.5,11.98v107.32"/>
      </g>
      <g>
        <ellipse class="st3" cx="365.92" cy="68.94" rx="11.01" ry="11.22"/>
        <path class="st3" d="M322.77,142.36v-68.06s19.51,14.4,43.15,14.15c0,0,27.51,0,26.51-19.5,0,0-.25-17.21-26.51-17.46,0,0-16.88-1.4-43.15,12.49V1"/>
        <path class="st3" d="M432.33,1h-97.56v24.47s-1.13,10.58,7.75,10.83c0,0,7.75.76,11.38-6.76,0,0,3.25-7.01,8.75-6.5,0,0,4.88-.25,8.63,9.3,0,0,1.88,5.35,8,5.99,0,0,7.25,1.15,11.76-6.76,0,0,4-7.01,9-8.41,0,0,8.63-2.55,9.5,11.98v107.32"/>
      </g>
      <g>
        <ellipse class="st3" cx="472.34" cy="68.94" rx="11.01" ry="11.22"/>
        <path class="st3" d="M429.2,142.36v-68.06s19.51,14.4,43.15,14.15c0,0,27.51,0,26.51-19.5,0,0-.25-17.21-26.51-17.46,0,0-16.88-1.4-43.15,12.49V1"/>
        <path class="st3" d="M538.77,1h-97.56v24.47s-1.13,10.58,7.75,10.83c0,0,7.75.76,11.38-6.76,0,0,3.25-7.01,8.75-6.5,0,0,4.88-.25,8.63,9.3,0,0,1.88,5.35,8,5.99,0,0,7.25,1.15,11.76-6.76,0,0,4-7.01,9-8.41,0,0,8.63-2.55,9.5,11.98v107.32"/>
      </g>
      <g>
        <ellipse class="st3" cx="578.77" cy="68.94" rx="11.01" ry="11.22"/>
        <path class="st3" d="M535.63,142.36v-68.06s19.51,14.4,43.15,14.15c0,0,27.51,0,26.51-19.5,0,0-.25-17.21-26.51-17.46,0,0-16.88-1.4-43.15,12.49V1"/>
        <path class="st3" d="M643.3,142.48V1h-95.67v24.47s-1.13,10.58,7.75,10.83c0,0,7.75.76,11.38-6.76,0,0,3.25-7.01,8.75-6.5,0,0,4.88-.25,8.63,9.3,0,0,1.88,5.35,8,5.99,0,0,7.25,1.15,11.76-6.76,0,0,4-7.01,9-8.41,0,0,8.63-2.55,9.5,11.98v107.32"/>
      </g>
    </g>
    <g>
      <g>
        <ellipse class="st3" cx="152.22" cy="935.14" rx="11.02" ry="11.22"/>
        <path class="st3" d="M109,1008.56v-68.06s19.54,14.4,43.22,14.15c0,0,27.56,0,26.56-19.5,0,0-.25-17.21-26.56-17.46,0,0-16.91-1.4-43.22,12.49v-62.96"/>
        <path class="st3" d="M218.55,867.21h-97.52v24.47s-1.13,10.58,7.77,10.83c0,0,7.77.76,11.4-6.76,0,0,3.26-7.01,8.77-6.5,0,0,4.89-.25,8.64,9.3,0,0,1.88,5.35,8.02,5.99,0,0,7.27,1.15,11.78-6.76,0,0,4.01-7.01,9.02-8.41,0,0,8.64-2.55,9.52,11.98v107.32"/>
      </g>
      <g>
        <ellipse class="st3" cx="45.74" cy="935.14" rx="11.02" ry="11.22"/>
        <path class="st3" d="M2.52,1008.56v-68.06s19.54,14.4,43.22,14.15c0,0,27.56,0,26.56-19.5,0,0-.25-17.21-26.56-17.46,0,0-16.91-1.4-43.22,12.49v-62.96c4.37.03,7.66-.03,12.03,0"/>
        <path class="st3" d="M112.12,867.21H14.55v24.47s-1.13,10.58,7.77,10.83c0,0,7.77.76,11.4-6.76,0,0,3.26-7.01,8.77-6.5,0,0,4.89-.25,8.64,9.3,0,0,1.88,5.35,8.02,5.99,0,0,7.27,1.15,11.78-6.76,0,0,4.01-7.01,9.02-8.41,0,0,8.64-2.55,9.52,11.98v107.32"/>
      </g>
      <g>
        <ellipse class="st3" cx="258.71" cy="935.14" rx="11.02" ry="11.22"/>
        <path class="st3" d="M325.24,867.4l-97.72-.19v24.47s-1.13,10.58,7.77,10.83c0,0,7.77.76,11.4-6.76,0,0,3.26-7.01,8.77-6.5,0,0,4.89-.25,8.64,9.3,0,0,1.88,5.35,8.02,5.99,0,0,7.27,1.15,11.78-6.76,0,0,4.01-7.01,9.02-8.41,0,0,8.64-2.55,9.52,11.98v107.32"/>
      </g>
      <g>
        <ellipse class="st3" cx="365.32" cy="935.14" rx="11.02" ry="11.22"/>
        <path class="st3" d="M322.1,1008.56v-68.06s19.54,14.4,43.22,14.15c0,0,27.56,0,26.56-19.5,0,0-.25-17.21-26.56-17.46,0,0-16.91-1.4-43.22,12.49v-62.96"/>
        <path class="st3" d="M431.85,867.21h-97.72v24.47s-1.13,10.58,7.77,10.83c0,0,7.77.76,11.4-6.76,0,0,3.26-7.01,8.77-6.5,0,0,4.89-.25,8.64,9.3,0,0,1.88,5.35,8.02,5.99,0,0,7.27,1.15,11.78-6.76,0,0,4.01-7.01,9.02-8.41,0,0,8.64-2.55,9.52,11.98v107.32"/>
      </g>
      <g>
        <ellipse class="st3" cx="471.93" cy="935.14" rx="11.02" ry="11.22"/>
        <path class="st3" d="M428.71,1008.56v-68.06s19.54,14.4,43.22,14.15c0,0,27.56,0,26.56-19.5,0,0-.25-17.21-26.56-17.46,0,0-16.91-1.4-43.22,12.49v-62.96"/>
        <path class="st3" d="M538.47,867.21h-97.73v24.47s-1.13,10.58,7.77,10.83c0,0,7.77.76,11.4-6.76,0,0,3.26-7.01,8.77-6.5,0,0,4.89-.25,8.64,9.3,0,0,1.88,5.35,8.02,5.99,0,0,7.27,1.15,11.78-6.76,0,0,4.01-7.01,9.02-8.41,0,0,8.64-2.55,9.52,11.98v107.32"/>
      </g>
      <g>
        <ellipse class="st3" cx="578.54" cy="935.14" rx="11.02" ry="11.22"/>
        <path class="st3" d="M535.32,1008.56v-68.06s19.54,14.4,43.22,14.15c0,0,27.56,0,26.56-19.5,0,0-.25-17.21-26.56-17.46,0,0-16.91-1.4-43.22,12.49v-62.96"/>
        <path class="st3" d="M643.19,1008.69v-141.48h-95.84v24.47s-1.13,10.58,7.77,10.83c0,0,7.77.76,11.4-6.76,0,0,3.26-7.01,8.77-6.5,0,0,4.89-.25,8.64,9.3,0,0,1.88,5.35,8.02,5.99,0,0,7.27,1.15,11.78-6.76,0,0,4.01-7.01,9.02-8.41,0,0,8.64-2.55,9.52,11.98v107.32"/>
      </g>
    </g>
  </g>
  <g>
    <path class="st8" d="M112.84,211.92h-36.42v-97.9h109.92v97.9h-36.42v-66.57h-37.09v66.57h0ZM80.47,117.65v90.63h28.32v-66.57h45.18v66.57h28.32v-90.63h-101.83,0Z"/>
    <path class="st8" d="M266.73,114.02h50.44v97.9h-35.07v-46.29c0-5.13.22-9.79.67-13.99l-28.46,60.28h-50.44v-97.9h35.07v46.29c0,5.13-.23,9.79-.67,13.99l28.46-60.28h0ZM313.12,208.28v-90.63h-43.43l-33.18,70.07h-5.39c2.52-6.15,3.78-15.29,3.78-27.41v-42.66h-26.97v90.63h43.43l33.18-70.07h5.39c-2.52,6.15-3.78,15.29-3.78,27.41v42.66h26.97,0Z"/>
    <path class="st8" d="M371.12,211.92h-36.42v-97.9h36.42v31.61h39.11v-31.61h36.42v97.9h-36.42v-34.96h-39.11v34.96h0ZM338.75,117.65v90.63h28.32v-34.97h47.21v34.97h28.32v-90.63h-28.32v31.61h-47.21v-31.61s-28.32,0-28.32,0Z"/>
    <path class="st8" d="M500.59,211.92h-36.42v-97.9h36.42v36.64l25.36-36.64h43.97l-36.55,46.99,39.25,50.91h-45.18l-26.84-39.16v39.16h0ZM468.22,117.65v90.63h28.32v-40.42h5.39l27.65,40.42h35.2l-36.28-47.27,33.58-43.36h-33.99l-26.16,37.9h-5.39v-37.9h-28.32Z"/>
  </g>
  <rect class="st2" x="52.21" y="75.34" width="543.58" height="1001.32"/>
  <g class="st4">
    <path class="st8" d="M326.18,365.67c-1.98-1.48-2.97-3.48-2.97-5.99,0-1.41.37-2.67,1.11-3.76.74-1.1,1.83-1.96,3.28-2.58s3.19-.93,5.22-.93c2.22,0,3.89.27,5.02.82,1.13.55,1.95,1.33,2.47,2.35h.5v-.22c0-.81-.3-1.56-.91-2.24-.61-.68-1.57-1.23-2.89-1.65-1.32-.41-3-.62-5.04-.62-2.91,0-5.72.42-8.43,1.24v-5.6c2.49-.83,5.34-1.24,8.57-1.24s6.16.5,8.47,1.51c2.31,1.01,4.04,2.42,5.21,4.25,1.17,1.83,1.75,3.98,1.75,6.47,0,2.66-.67,4.82-2.02,6.5-1.03,1.29-2.42,2.26-4.17,2.92s-3.85,1-6.32,1c-3.92,0-6.87-.74-8.85-2.22ZM338.96,361.89c.78-.48,1.18-1.08,1.18-1.8s-.39-1.33-1.18-1.82-1.98-.73-3.59-.73-2.81.24-3.6.73-1.18,1.09-1.18,1.82.39,1.33,1.18,1.8c.78.48,1.98.72,3.6.72s2.81-.24,3.59-.72Z"/>
    <path class="st8" d="M355.31,366.78c-1.85-.75-3.24-1.75-4.18-3.02-.94-1.26-1.41-2.68-1.41-4.23s.47-2.97,1.41-4.23c.94-1.26,2.33-2.27,4.18-3.02,1.85-.75,4.09-1.12,6.74-1.12s4.89.37,6.74,1.12,3.24,1.75,4.18,3.02c.94,1.27,1.41,2.68,1.41,4.23s-.47,2.97-1.41,4.23c-.94,1.27-2.34,2.27-4.18,3.02s-4.09,1.12-6.74,1.12-4.89-.37-6.74-1.12ZM365.72,361.74c.84-.58,1.26-1.32,1.26-2.21s-.43-1.6-1.28-2.19c-.85-.59-2.07-.89-3.66-.89s-2.81.3-3.66.89c-.85.59-1.28,1.32-1.28,2.19s.42,1.63,1.26,2.21c.84.58,2.07.87,3.68.87s2.84-.29,3.68-.87Z"/>
    <path class="st8" d="M381.85,366.78c-1.8-.75-3.16-1.76-4.08-3.03-.92-1.28-1.38-2.68-1.38-4.22s.46-2.94,1.38-4.22c.92-1.28,2.28-2.29,4.08-3.03,1.8-.75,3.97-1.12,6.5-1.12,2.26,0,4.27.31,6.01.92s3.14,1.47,4.17,2.57c1.03,1.1,1.62,2.36,1.78,3.8h-7.39c-.18-.56-.65-1.03-1.43-1.42-.77-.38-1.82-.58-3.14-.58-1.43,0-2.55.3-3.36.9-.81.6-1.21,1.33-1.21,2.18s.4,1.58,1.21,2.18c.81.6,1.93.9,3.36.9,1.32,0,2.37-.19,3.14-.58.77-.38,1.25-.86,1.43-1.42h7.39c-.16,1.43-.75,2.7-1.78,3.8-1.03,1.1-2.42,1.96-4.17,2.57-1.75.61-3.75.92-6.01.92-2.53,0-4.7-.37-6.5-1.12Z"/>
    <path class="st8" d="M414.9,367.46h-7.39v-10.11h-6.69v-5.76h20.76v5.76h-6.69v10.11Z"/>
    <path class="st8" d="M424.5,366.59c-1.28-.87-1.92-2.04-1.92-3.52s.64-2.61,1.92-3.48c1.28-.87,3.25-1.31,5.91-1.31,1.75,0,3.17.12,4.28.37,1.11.25,2.22.61,3.34,1.09v-.72c0-.83-.38-1.52-1.14-2.07-.76-.55-1.86-.82-3.29-.82-2.22,0-3.59.51-4.13,1.52h-7.39c.25-1.93,1.33-3.49,3.24-4.7,1.92-1.2,4.7-1.8,8.35-1.8,2.55,0,4.7.34,6.43,1.03,1.74.68,3.03,1.64,3.88,2.86.85,1.22,1.28,2.63,1.28,4.23v2.12c0,.33.07.57.22.7.15.14.38.2.69.2.27,0,.53-.04.77-.12v5.29c-.87.29-1.85.44-2.92.44-1.59,0-2.79-.3-3.6-.89-.81-.59-1.21-1.37-1.21-2.35h-.67v.09c0,.85-.64,1.59-1.92,2.21-1.28.62-3.35.93-6.22.93-2.67,0-4.64-.44-5.91-1.31ZM438.05,363.01v-.62c-1.39-.35-2.97-.53-4.74-.53-1.25,0-2.09.07-2.52.22-.43.15-.64.35-.64.62s.21.48.64.62c.42.15,1.27.22,2.52.22,1.77,0,3.35-.18,4.74-.53Z"/>
    <path class="st8" d="M466.97,359.34c1.37,0,2.46.36,3.28,1.07.82.72,1.23,1.63,1.23,2.75,0,2.86-2.03,4.29-6.08,4.29h-16.26v-15.87h15.83c1.97,0,3.44.34,4.4,1.03.96.68,1.45,1.6,1.45,2.74,0,1-.34,1.8-1.03,2.43s-1.57.93-2.67.93h-.34v.62h.2ZM456.19,355.95v1.8h6.12c.34,0,.6-.08.81-.25.2-.17.3-.38.3-.65s-.1-.49-.3-.65c-.2-.17-.47-.25-.81-.25h-6.12ZM462.84,363.1c.4,0,.71-.09.92-.26.21-.18.32-.41.32-.7s-.11-.52-.32-.7c-.21-.18-.52-.26-.92-.26h-6.65v1.93h6.65Z"/>
    <path class="st8" d="M478.41,366.78c-1.85-.75-3.24-1.75-4.18-3.02-.94-1.26-1.41-2.68-1.41-4.23s.47-2.97,1.41-4.23c.94-1.26,2.33-2.27,4.18-3.02,1.85-.75,4.09-1.12,6.74-1.12s4.89.37,6.74,1.12,3.24,1.75,4.18,3.02c.94,1.27,1.41,2.68,1.41,4.23s-.47,2.97-1.41,4.23c-.94,1.27-2.34,2.27-4.18,3.02s-4.09,1.12-6.74,1.12-4.89-.37-6.74-1.12ZM488.83,361.74c.84-.58,1.26-1.32,1.26-2.21s-.43-1.6-1.28-2.19c-.85-.59-2.07-.89-3.66-.89s-2.81.3-3.66.89c-.85.59-1.28,1.32-1.28,2.19s.42,1.63,1.26,2.21c.84.58,2.07.87,3.68.87s2.84-.29,3.68-.87Z"/>
    <path class="st8" d="M514.01,351.59h7.39v15.87h-7.39v-4.45c-.83.44-1.63.74-2.42.92s-1.76.26-2.92.26c-3.07,0-5.37-.7-6.89-2.12-1.52-1.41-2.29-3.55-2.29-6.41v-4.08h7.39v3.64c0,1.08.29,1.88.87,2.41.58.53,1.48.79,2.69.79.74,0,1.39-.07,1.95-.22.56-.15,1.1-.39,1.61-.75v-5.88Z"/>
    <path class="st8" d="M540.15,359.15l7.02,8.31h-9.07l-5.61-7.56v7.56h-7.39v-15.87h7.39v6.97l5.44-6.97h8.9l-6.69,7.56Z"/>
    <path class="st8" d="M549.09,366.59c-1.28-.87-1.92-2.04-1.92-3.52s.64-2.61,1.92-3.48c1.28-.87,3.25-1.31,5.91-1.31,1.75,0,3.17.12,4.28.37,1.11.25,2.22.61,3.34,1.09v-.72c0-.83-.38-1.52-1.14-2.07-.76-.55-1.86-.82-3.29-.82-2.22,0-3.59.51-4.13,1.52h-7.39c.25-1.93,1.33-3.49,3.24-4.7,1.92-1.2,4.7-1.8,8.35-1.8,2.55,0,4.7.34,6.43,1.03,1.74.68,3.03,1.64,3.88,2.86.85,1.22,1.28,2.63,1.28,4.23v2.12c0,.33.07.57.22.7.15.14.38.2.69.2.27,0,.53-.04.77-.12v5.29c-.87.29-1.85.44-2.92.44-1.59,0-2.79-.3-3.6-.89-.81-.59-1.21-1.37-1.21-2.35h-.67v.09c0,.85-.64,1.59-1.92,2.21-1.28.62-3.35.93-6.22.93-2.67,0-4.64-.44-5.91-1.31ZM562.63,363.01v-.62c-1.39-.35-2.97-.53-4.74-.53-1.25,0-2.09.07-2.52.22-.43.15-.64.35-.64.62s.21.48.64.62c.42.15,1.27.22,2.52.22,1.77,0,3.35-.18,4.74-.53Z"/>
  </g>
  <g>
    <path class="st1" d="M208.18,1057.19"/>
    <path class="st1" d="M66.98,1063.87"/>
    <path class="st1" d="M69.53,1022.48"/>
  </g>
  <g>
    <path class="st8" d="M109.56,700.48c-.67-.66-1.01-1.5-1.01-2.51s.34-1.85,1.01-2.51,1.56-.99,2.65-.99,1.97.33,2.65.99c.67.66,1.01,1.5,1.01,2.51s-.34,1.85-1.01,2.51c-.68.66-1.56.99-2.65.99s-1.97-.33-2.65-.99Z"/>
    <path class="st8" d="M129.3,703.79c-1.31-.6-2.3-1.41-2.96-2.44-.67-1.03-1-2.15-1-3.39s.33-2.36,1-3.39,1.65-1.84,2.96-2.44,2.88-.9,4.72-.9c1.64,0,3.1.25,4.37.74,1.27.49,2.28,1.18,3.03,2.06s1.18,1.9,1.29,3.05h-5.37c-.13-.45-.48-.83-1.04-1.14s-1.32-.46-2.28-.46c-1.04,0-1.85.24-2.44.73-.59.48-.88,1.07-.88,1.75s.29,1.27.88,1.75c.59.48,1.4.72,2.44.72.96,0,1.72-.15,2.28-.46s.91-.69,1.04-1.14h5.37c-.11,1.15-.54,2.17-1.29,3.05s-1.76,1.57-3.03,2.06-2.72.74-4.37.74c-1.84,0-3.41-.3-4.72-.9h0Z"/>
    <path class="st8" d="M153.29,704.34h-5.37v-8.12h-4.86v-4.62h15.08v4.62h-4.86v8.12h0Z"/>
    <path class="st8" d="M162.82,703.79c-1.34-.6-2.35-1.41-3.04-2.43-.68-1.02-1.02-2.15-1.02-3.4s.34-2.38,1.02-3.4,1.7-1.83,3.04-2.42c1.34-.6,2.97-.9,4.89-.9s3.55.3,4.89.9c1.34.6,2.35,1.41,3.04,2.42s1.02,2.15,1.02,3.4-.34,2.38-1.02,3.4c-.68,1.02-1.7,1.83-3.04,2.43s-2.97.9-4.89.9-3.55-.3-4.89-.9ZM170.38,699.74c.61-.47.92-1.06.92-1.77s-.31-1.29-.93-1.76-1.5-.71-2.66-.71-2.04.24-2.66.71-.93,1.06-.93,1.76.3,1.31.92,1.77c.61.47,1.5.7,2.67.7s2.06-.23,2.67-.7Z"/>
    <path class="st8" d="M178.74,704.34v-12.75h5.12v4.38c0,1.23-.06,2.25-.18,3.05s-.3,1.58-.55,2.33h.49l3.68-9.75h8.22v12.75h-5.12v-4.38c0-1.23.06-2.25.18-3.05s.31-1.58.55-2.33h-.49l-3.68,9.75h-8.22Z"/>
    <path class="st8" d="M198.21,704.34v-12.75h7.88l1.32,5.47c.29,1.17.44,2.01.44,2.53v.12h.49v-.12c0-.52.15-1.36.44-2.53l1.32-5.47h7.88v12.75h-5.12v-5.62c0-1.5.16-2.88.49-4.12h-.49l-2.27,8.12h-4.98l-2.27-8.12h-.49c.33,1.25.49,2.62.49,4.12v5.62h-5.13Z"/>
    <path class="st8" d="M224.11,703.79c-1.34-.6-2.35-1.41-3.04-2.43-.68-1.02-1.02-2.15-1.02-3.4s.34-2.38,1.02-3.4,1.7-1.83,3.04-2.42c1.34-.6,2.97-.9,4.89-.9s3.55.3,4.89.9c1.34.6,2.35,1.41,3.04,2.42s1.02,2.15,1.02,3.4-.34,2.38-1.02,3.4c-.68,1.02-1.7,1.83-3.04,2.43s-2.97.9-4.89.9-3.55-.3-4.89-.9ZM231.68,699.74c.61-.47.92-1.06.92-1.77s-.31-1.29-.93-1.76-1.5-.71-2.66-.71-2.04.24-2.66.71-.93,1.06-.93,1.76.3,1.31.92,1.77c.61.47,1.5.7,2.67.7s2.06-.23,2.67-.7Z"/>
    <path class="st8" d="M243.39,703.79c-1.31-.6-2.3-1.41-2.96-2.44-.67-1.03-1-2.15-1-3.39s.33-2.36,1-3.39,1.65-1.84,2.96-2.44,2.88-.9,4.72-.9c1.64,0,3.1.25,4.37.74,1.27.49,2.28,1.18,3.03,2.06.75.88,1.18,1.9,1.29,3.05h-5.37c-.13-.45-.48-.83-1.04-1.14s-1.32-.46-2.28-.46c-1.04,0-1.85.24-2.44.73-.59.48-.88,1.07-.88,1.75s.29,1.27.88,1.75c.59.48,1.4.72,2.44.72.96,0,1.72-.15,2.28-.46s.91-.69,1.04-1.14h5.37c-.11,1.15-.54,2.17-1.29,3.05-.75.88-1.76,1.57-3.03,2.06s-2.72.74-4.37.74c-1.84,0-3.41-.3-4.72-.9h0Z"/>
    <path class="st8" d="M267.38,704.34h-5.37v-8.12h-4.86v-4.62h15.08v4.62h-4.86v8.12h0Z"/>
    <path class="st8" d="M282.8,694.59c1.87,0,3.28.43,4.23,1.29s1.43,2.05,1.43,3.59-.48,2.73-1.43,3.59c-.95.86-2.36,1.29-4.23,1.29h-9.35v-12.75h5.37v3h3.98ZM281.88,700.47c.41,0,.71-.09.92-.26.2-.17.31-.42.31-.74s-.1-.56-.31-.74c-.2-.18-.51-.26-.92-.26h-3.42v2h3.42Z"/>
    <path class="st8" d="M295.79,709.09v-17.5h5.37l-.73,3.25h.49c.39-1.22,1.07-2.12,2.03-2.71s2.23-.89,3.81-.89c1.32,0,2.48.28,3.48.84s1.77,1.35,2.32,2.36.82,2.19.82,3.53-.27,2.51-.82,3.52c-.54,1.02-1.32,1.8-2.32,2.36s-2.16.84-3.48.84c-1.58,0-2.85-.3-3.81-.89s-1.63-1.5-2.03-2.71h-.49c.49,1.57.73,3.11.73,4.62v3.38h-5.37ZM307.12,699.74c.58-.47.87-1.06.87-1.77s-.29-1.31-.87-1.78c-.58-.47-1.41-.7-2.5-.7s-1.9.23-2.48.7c-.58.47-.87,1.06-.87,1.78s.29,1.31.87,1.77c.58.47,1.4.7,2.48.7s1.92-.23,2.5-.7Z"/>
    <path class="st8" d="M316.45,703.64c-.93-.7-1.39-1.64-1.39-2.83s.46-2.1,1.39-2.8,2.36-1.05,4.29-1.05c1.27,0,2.31.1,3.11.3s1.61.49,2.43.88v-.58c0-.67-.28-1.22-.83-1.66s-1.35-.66-2.39-.66c-1.61,0-2.61.41-3,1.23h-5.37c.18-1.55.96-2.81,2.35-3.78,1.39-.97,3.41-1.45,6.06-1.45,1.85,0,3.41.28,4.67.83s2.2,1.32,2.82,2.3.93,2.12.93,3.4v1.7c0,.27.05.45.16.56s.27.16.5.16c.2,0,.38-.03.56-.1v4.25c-.63.23-1.34.35-2.12.35-1.16,0-2.02-.24-2.61-.71-.59-.48-.88-1.1-.88-1.89h-.49v.08c0,.68-.46,1.27-1.39,1.77-.93.5-2.43.75-4.51.75-1.94,0-3.37-.35-4.29-1.05ZM326.29,700.77v-.5c-1.01-.28-2.16-.42-3.44-.42-.91,0-1.52.06-1.83.17-.31.12-.46.28-.46.5s.15.38.46.5.92.17,1.83.17c1.28,0,2.43-.14,3.44-.42Z"/>
    <path class="st8" d="M337.69,703.79c-1.31-.6-2.3-1.41-2.96-2.44-.67-1.03-1-2.15-1-3.39s.33-2.36,1-3.39,1.65-1.84,2.96-2.44,2.88-.9,4.72-.9c1.64,0,3.1.25,4.37.74s2.28,1.18,3.03,2.06,1.18,1.9,1.29,3.05h-5.37c-.13-.45-.48-.83-1.04-1.14s-1.32-.46-2.28-.46c-1.04,0-1.85.24-2.44.73-.59.48-.88,1.07-.88,1.75s.29,1.27.88,1.75c.58.48,1.4.72,2.44.72.96,0,1.72-.15,2.28-.46s.91-.69,1.04-1.14h5.37c-.11,1.15-.54,2.17-1.29,3.05s-1.76,1.57-3.03,2.06-2.72.74-4.37.74c-1.84,0-3.41-.3-4.72-.9h0Z"/>
    <path class="st8" d="M362.86,691.59h5.37v12.75h-5.37v-3.58c-.6.35-1.19.6-1.76.74s-1.28.21-2.12.21c-2.23,0-3.9-.57-5-1.7-1.11-1.13-1.66-2.85-1.66-5.15v-3.27h5.37v2.92c0,.87.21,1.51.63,1.94s1.07.64,1.95.64c.54,0,1.01-.06,1.42-.17.41-.12.8-.32,1.17-.6v-4.72h0Z"/>
    <path class="st8" d="M370.91,704.34v-12.75h5.12v4.38c0,1.23-.06,2.25-.18,3.05s-.3,1.58-.55,2.33h.49l3.68-9.75h8.22v12.75h-5.12v-4.38c0-1.23.06-2.25.18-3.05s.3-1.58.55-2.33h-.49l-3.68,9.75h-8.22Z"/>
    <path class="st8" d="M399.14,704.34h-5.37v-8.12h-4.86v-4.62h15.08v4.62h-4.86v8.12h0Z"/>
    <path class="st8" d="M413.71,694.59c1.87,0,3.28.43,4.23,1.29s1.43,2.05,1.43,3.59-.48,2.73-1.43,3.59c-.95.86-2.36,1.29-4.23,1.29h-8.49v-12.75h5.37v3h3.12ZM413.02,700.47c.41,0,.71-.09.92-.26s.3-.42.3-.74-.1-.56-.3-.74c-.2-.18-.51-.26-.92-.26h-2.81v2h2.81ZM420.47,704.34v-12.75h5.37v12.75h-5.37Z"/>
    <path class="st8" d="M441.47,697.82c.99,0,1.78.29,2.38.86.59.58.89,1.31.89,2.21,0,2.3-1.47,3.45-4.42,3.45h-11.81v-12.75h11.49c1.43,0,2.5.27,3.2.83.7.55,1.05,1.28,1.05,2.2,0,.8-.25,1.45-.74,1.95s-1.14.75-1.94.75h-.24v.5h.15-.01ZM433.64,695.09v1.45h4.44c.24,0,.44-.07.58-.2s.22-.31.22-.53-.07-.39-.22-.52-.34-.2-.58-.2h-4.44ZM438.47,700.84c.29,0,.52-.07.67-.21.15-.14.23-.33.23-.56s-.08-.42-.23-.56c-.16-.14-.38-.21-.67-.21h-4.83v1.55h4.83Z"/>
    <path class="st8" d="M447.23,703.64c-.93-.7-1.39-1.64-1.39-2.83s.46-2.1,1.39-2.8c.93-.7,2.36-1.05,4.29-1.05,1.27,0,2.31.1,3.11.3s1.61.49,2.43.88v-.58c0-.67-.28-1.22-.83-1.66s-1.35-.66-2.39-.66c-1.61,0-2.61.41-3,1.23h-5.37c.18-1.55.96-2.81,2.35-3.78,1.39-.97,3.41-1.45,6.06-1.45,1.85,0,3.41.28,4.67.83s2.2,1.32,2.82,2.3.93,2.12.93,3.4v1.7c0,.27.05.45.16.56s.27.16.5.16c.2,0,.38-.03.56-.1v4.25c-.63.23-1.34.35-2.12.35-1.16,0-2.02-.24-2.61-.71-.59-.48-.88-1.1-.88-1.89h-.49v.08c0,.68-.46,1.27-1.39,1.77-.93.5-2.43.75-4.51.75-1.94,0-3.37-.35-4.29-1.05ZM457.07,700.77v-.5c-1.01-.28-2.16-.42-3.44-.42-.91,0-1.52.06-1.83.17-.31.12-.46.28-.46.5s.16.38.46.5c.31.12.92.17,1.83.17,1.29,0,2.43-.14,3.44-.42Z"/>
    <path class="st8" d="M472.9,704.34h-5.37v-8.12h-4.86v-4.62h15.08v4.62h-4.86v8.12h0Z"/>
    <path class="st8" d="M482.33,703.79c-1.31-.6-2.3-1.41-2.96-2.44-.67-1.03-1-2.15-1-3.39s.33-2.36,1-3.39,1.65-1.84,2.96-2.44,2.88-.9,4.72-.9c1.64,0,3.1.25,4.37.74s2.28,1.18,3.03,2.06,1.18,1.9,1.29,3.05h-5.37c-.13-.45-.48-.83-1.04-1.14s-1.32-.46-2.28-.46c-1.04,0-1.85.24-2.44.73-.59.48-.88,1.07-.88,1.75s.29,1.27.88,1.75c.58.48,1.4.72,2.44.72.96,0,1.72-.15,2.28-.46s.91-.69,1.04-1.14h5.37c-.11,1.15-.54,2.17-1.29,3.05s-1.76,1.57-3.03,2.06-2.72.74-4.37.74c-1.84,0-3.41-.3-4.72-.9h0Z"/>
    <path class="st8" d="M512.21,691.59v12.75h-5.37v-3.75h-1.56c-.36,0-.67.09-.93.26-.26.17-.44.42-.54.74l-.88,2.75h-6.59l.78-1.78c.37-.83.79-1.43,1.26-1.79s1.11-.55,1.94-.56v-.5c-1.07-.07-1.92-.45-2.55-1.15s-.94-1.54-.94-2.52c0-1.38.49-2.47,1.46-3.26.98-.79,2.49-1.19,4.54-1.19h9.38ZM507.33,697.72v-2.38h-3.81c-.41,0-.73.11-.96.34-.24.23-.35.51-.35.86s.12.63.35.85c.24.22.56.33.96.33h3.81Z"/>
    <path class="st8" d="M131.31,734.34h-5.37v-12.75h16.3v12.75h-5.37v-8.12h-5.56v8.12Z"/>
    <path class="st8" d="M148.38,733.79c-1.34-.6-2.35-1.41-3.04-2.43-.68-1.02-1.02-2.15-1.02-3.4s.34-2.38,1.02-3.4,1.7-1.83,3.04-2.42c1.34-.6,2.97-.9,4.89-.9s3.55.3,4.89.9c1.34.6,2.35,1.41,3.04,2.42s1.02,2.15,1.02,3.4-.34,2.38-1.02,3.4c-.68,1.02-1.7,1.83-3.04,2.43s-2.97.9-4.89.9-3.55-.3-4.89-.9ZM155.94,729.74c.61-.47.92-1.06.92-1.77s-.31-1.29-.93-1.76-1.5-.71-2.66-.71-2.04.24-2.66.71-.93,1.06-.93,1.76.3,1.31.92,1.77c.61.47,1.5.7,2.67.7s2.06-.23,2.67-.7Z"/>
    <path class="st8" d="M178.67,734.34h-5.37v-8.12h-4.86v-4.62h15.08v4.62h-4.86v8.12h0Z"/>
    <path class="st8" d="M185.65,733.64c-.93-.7-1.39-1.64-1.39-2.83s.46-2.1,1.39-2.8,2.36-1.05,4.29-1.05c1.27,0,2.31.1,3.11.3s1.61.49,2.43.88v-.58c0-.67-.28-1.22-.83-1.66s-1.35-.66-2.39-.66c-1.61,0-2.61.41-3,1.23h-5.37c.18-1.55.96-2.81,2.35-3.78,1.39-.97,3.41-1.45,6.06-1.45,1.85,0,3.41.28,4.67.83s2.2,1.32,2.82,2.3c.62.98.93,2.12.93,3.4v1.7c0,.27.05.45.16.56s.27.16.5.16c.2,0,.38-.03.56-.1v4.25c-.63.23-1.34.35-2.12.35-1.16,0-2.02-.24-2.61-.71-.59-.48-.88-1.1-.88-1.89h-.49v.08c0,.68-.46,1.27-1.39,1.77s-2.43.75-4.51.75c-1.94,0-3.37-.35-4.29-1.05ZM195.48,730.77v-.5c-1.01-.28-2.16-.42-3.44-.42-.91,0-1.52.06-1.83.17-.31.12-.46.28-.46.5s.15.38.46.5c.31.12.92.17,1.83.17,1.28,0,2.43-.14,3.44-.42Z"/>
    <path class="st8" d="M203.53,739.09v-17.5h5.37l-.73,3.25h.49c.39-1.22,1.07-2.12,2.03-2.71.96-.59,2.23-.89,3.81-.89,1.32,0,2.48.28,3.48.84s1.77,1.35,2.32,2.36.82,2.19.82,3.53-.27,2.51-.82,3.52c-.54,1.02-1.32,1.8-2.32,2.36s-2.16.84-3.48.84c-1.58,0-2.85-.3-3.81-.89-.96-.59-1.63-1.5-2.03-2.71h-.49c.49,1.57.73,3.11.73,4.62v3.38h-5.37ZM214.87,729.74c.58-.47.87-1.06.87-1.77s-.29-1.31-.87-1.78c-.58-.47-1.41-.7-2.5-.7s-1.9.23-2.48.7c-.58.47-.87,1.06-.87,1.78s.29,1.31.87,1.77c.58.47,1.4.7,2.48.7s1.92-.23,2.5-.7Z"/>
    <path class="st8" d="M223.29,734.34v-12.75h5.12v4.38c0,1.23-.06,2.25-.18,3.05s-.3,1.58-.55,2.33h.49l3.68-9.75h8.22v12.75h-5.12v-4.38c0-1.23.06-2.25.18-3.05s.31-1.58.55-2.33h-.49l-3.68,9.75h-8.22Z"/>
    <path class="st8" d="M252.11,735.84c0-.67.06-1.29.18-1.86.12-.58.29-1.16.5-1.76h-.49c-.28.72-.79,1.31-1.55,1.77-.76.47-1.72.7-2.89.7s-2.08-.26-2.92-.79c-.84-.53-1.49-1.29-1.96-2.3s-.71-2.22-.71-3.64.24-2.63.71-3.64,1.13-1.78,1.96-2.3c.84-.53,1.81-.79,2.92-.79,1.17,0,2.14.23,2.89.7.76.47,1.27,1.06,1.55,1.78h.49c-.21-.6-.38-1.19-.5-1.76s-.18-1.2-.18-1.86v-3.25h5.61v3.25c0,.67-.06,1.29-.18,1.86-.12.58-.29,1.16-.5,1.76h.49c.28-.72.79-1.31,1.55-1.78.76-.47,1.72-.7,2.89-.7s2.08.26,2.92.79c.84.52,1.49,1.29,1.96,2.3s.71,2.22.71,3.64-.24,2.63-.71,3.64-1.13,1.77-1.96,2.3c-.84.52-1.81.79-2.92.79-1.17,0-2.13-.23-2.89-.7-.76-.47-1.27-1.06-1.55-1.77h-.49c.21.6.38,1.19.5,1.76s.18,1.2.18,1.86v3.25h-5.61v-3.25ZM251.68,729.75c.45-.46.67-1.05.67-1.79s-.22-1.33-.67-1.79c-.45-.46-1.03-.69-1.74-.69s-1.3.23-1.74.69c-.45.46-.67,1.05-.67,1.79s.22,1.33.67,1.79c.45.46,1.03.69,1.74.69s1.3-.23,1.74-.69ZM261.64,729.75c.45-.46.67-1.05.67-1.79s-.22-1.33-.67-1.79c-.45-.46-1.03-.69-1.74-.69s-1.3.23-1.74.69c-.45.46-.67,1.05-.67,1.79s.22,1.33.67,1.79c.45.46,1.03.69,1.74.69s1.3-.23,1.74-.69Z"/>
    <path class="st8" d="M270.65,733.64c-.93-.7-1.39-1.64-1.39-2.83s.46-2.1,1.39-2.8,2.36-1.05,4.29-1.05c1.27,0,2.31.1,3.11.3s1.61.49,2.43.88v-.58c0-.67-.28-1.22-.83-1.66s-1.35-.66-2.39-.66c-1.61,0-2.61.41-3,1.23h-5.37c.18-1.55.96-2.81,2.35-3.78,1.39-.97,3.41-1.45,6.06-1.45,1.85,0,3.41.28,4.67.83s2.2,1.32,2.82,2.3.93,2.12.93,3.4v1.7c0,.27.05.45.16.56.11.11.27.16.5.16.2,0,.38-.03.56-.1v4.25c-.63.23-1.34.35-2.12.35-1.16,0-2.02-.24-2.61-.71-.59-.48-.88-1.1-.88-1.89h-.49v.08c0,.68-.46,1.27-1.39,1.77s-2.43.75-4.51.75c-1.94,0-3.37-.35-4.29-1.05ZM280.49,730.77v-.5c-1.01-.28-2.16-.42-3.44-.42-.91,0-1.52.06-1.83.17-.31.12-.46.28-.46.5s.15.38.46.5.92.17,1.83.17c1.28,0,2.43-.14,3.44-.42Z"/>
    <path class="st8" d="M288.54,734.34v-12.75h7.88l1.32,5.47c.29,1.17.44,2.01.44,2.53v.12h.49v-.12c0-.52.15-1.36.44-2.53l1.32-5.47h7.88v12.75h-5.12v-5.62c0-1.5.16-2.88.49-4.12h-.49l-2.27,8.12h-4.98l-2.27-8.12h-.49c.33,1.25.49,2.62.49,4.12v5.62h-5.13Z"/>
    <path class="st8" d="M320.69,733.79c-1.31-.6-2.3-1.41-2.96-2.44-.67-1.03-1-2.15-1-3.39s.33-2.36,1-3.39,1.65-1.84,2.96-2.44,2.88-.9,4.72-.9c1.64,0,3.1.25,4.37.74s2.28,1.18,3.03,2.06,1.18,1.9,1.29,3.05h-5.37c-.13-.45-.48-.83-1.04-1.14s-1.32-.46-2.28-.46c-1.04,0-1.85.24-2.44.73-.59.48-.88,1.07-.88,1.75s.29,1.27.88,1.75,1.4.72,2.44.72c.96,0,1.72-.15,2.28-.46s.91-.69,1.04-1.14h5.37c-.11,1.15-.54,2.17-1.29,3.05s-1.76,1.57-3.03,2.06-2.72.74-4.37.74c-1.84,0-3.41-.3-4.72-.9h0Z"/>
    <path class="st8" d="M334.34,734.27v-4.62c.26.12.58.17.98.17.54,0,.94-.12,1.2-.35s.42-.6.49-1.1l.81-6.77h14.1v12.75h-5.37v-8.12h-4.12l-.42,3.55c-.37,3.28-2.08,4.92-5.12,4.92-1.14,0-1.98-.14-2.54-.42h-.01Z"/>
    <path class="st8" d="M364.57,721.59h6.22l-5.47,12.17c-.94,2.08-2.07,3.58-3.39,4.47-1.32.9-2.93,1.35-4.83,1.35-.62,0-1.15-.04-1.61-.12s-.92-.23-1.39-.45v-4.5c.73.3,1.5.45,2.29.45.62,0,1.14-.05,1.57-.16s.79-.3,1.06-.56l-5.9-12.65h6.22l1.68,5.38c.46,1.48.68,2.65.68,3.5v.12h.49v-.12c0-.85.23-2.02.68-3.5l1.68-5.38h.02Z"/>
    <path class="st8" d="M389.99,727.67l4.44,6.67h-6.1l-3.59-6v6h-5.12v-6l-3.59,6h-6.1l4.44-6.67-4.2-6.08h5.98l3.46,5.55v-5.55h5.12v5.55l3.46-5.55h5.98l-4.2,6.08h.02Z"/>
    <path class="st8" d="M396.84,732.55c-1.52-1.42-2.28-3.46-2.28-6.11s.8-4.78,2.39-6.3c1.59-1.52,3.89-2.28,6.88-2.28.98,0,1.7-.04,2.18-.14s.8-.23.96-.43c.16-.19.24-.46.24-.81h5.49c0,1.52-.2,2.67-.6,3.45s-1.13,1.34-2.2,1.67c-1.07.33-2.66.5-4.79.5-1.98,0-3.45.33-4.39.99s-1.42,1.51-1.42,2.56v.12h.37c.24-.55.56-1,.95-1.36s.96-.65,1.71-.86c.75-.22,1.73-.33,2.95-.33,1.46,0,2.72.24,3.76.73s1.83,1.15,2.37,2,.8,1.81.8,2.88c0,1.75-.71,3.16-2.12,4.24s-3.57,1.61-6.47,1.61-5.27-.71-6.79-2.14h.01ZM406.04,730.08c.54-.33.82-.74.82-1.24s-.27-.91-.82-1.24c-.54-.33-1.43-.49-2.65-.49s-2.1.16-2.65.49c-.54.32-.82.74-.82,1.24s.27.91.82,1.24,1.43.49,2.65.49,2.1-.16,2.65-.49Z"/>
    <path class="st8" d="M127.61,762.91c-1.44-1.19-2.16-2.8-2.16-4.81,0-1.13.27-2.14.81-3.03.54-.88,1.33-1.58,2.38-2.08s2.31-.75,3.79-.75c1.61,0,2.83.22,3.65.66s1.42,1.07,1.79,1.89h.37v-.18c0-.65-.22-1.25-.66-1.8s-1.14-.99-2.1-1.33c-.96-.33-2.18-.5-3.66-.5-2.11,0-4.16.33-6.12,1v-4.5c1.81-.67,3.88-1,6.22-1s4.47.4,6.15,1.21c1.67.81,2.94,1.95,3.78,3.41.85,1.47,1.27,3.2,1.27,5.2,0,2.13-.49,3.88-1.46,5.23-.75,1.03-1.76,1.82-3.03,2.35s-2.8.8-4.59.8c-2.85,0-4.99-.6-6.43-1.79v.02h0ZM136.9,759.87c.57-.38.85-.87.85-1.45s-.28-1.07-.85-1.46-1.44-.59-2.61-.59-2.04.2-2.61.59-.85.88-.85,1.46.28,1.07.85,1.45,1.44.58,2.61.58,2.04-.19,2.61-.58Z"/>
    <path class="st8" d="M148.77,763.79c-1.34-.6-2.35-1.41-3.04-2.43-.68-1.02-1.02-2.15-1.02-3.4s.34-2.38,1.02-3.4,1.7-1.83,3.04-2.42c1.34-.6,2.97-.9,4.89-.9s3.55.3,4.89.9c1.34.6,2.35,1.41,3.04,2.42s1.02,2.15,1.02,3.4-.34,2.38-1.02,3.4c-.68,1.02-1.7,1.83-3.04,2.43s-2.97.9-4.89.9-3.55-.3-4.89-.9ZM156.33,759.74c.61-.47.92-1.06.92-1.77s-.31-1.29-.93-1.76-1.5-.71-2.66-.71-2.04.24-2.66.71-.93,1.06-.93,1.76.3,1.31.92,1.77c.61.47,1.5.7,2.67.7s2.06-.23,2.67-.7Z"/>
    <path class="st8" d="M168.04,763.79c-1.31-.6-2.3-1.41-2.96-2.44-.67-1.03-1-2.15-1-3.39s.33-2.36,1-3.39,1.65-1.84,2.96-2.44,2.88-.9,4.72-.9c1.64,0,3.1.25,4.37.74,1.27.49,2.28,1.18,3.03,2.06s1.18,1.9,1.29,3.05h-5.37c-.13-.45-.48-.83-1.04-1.14s-1.32-.46-2.28-.46c-1.04,0-1.85.24-2.44.73-.59.48-.88,1.07-.88,1.75s.29,1.27.88,1.75c.59.48,1.4.72,2.44.72.96,0,1.72-.15,2.28-.46s.91-.69,1.04-1.14h5.37c-.11,1.15-.54,2.17-1.29,3.05s-1.76,1.57-3.03,2.06-2.72.74-4.37.74c-1.84,0-3.41-.3-4.72-.9h0Z"/>
    <path class="st8" d="M192.04,764.34h-5.37v-8.12h-4.86v-4.62h15.08v4.62h-4.86v8.12h0Z"/>
    <path class="st8" d="M199.02,763.64c-.93-.7-1.39-1.64-1.39-2.83s.46-2.1,1.39-2.8,2.36-1.05,4.29-1.05c1.27,0,2.31.1,3.11.3s1.61.49,2.43.88v-.58c0-.67-.28-1.22-.83-1.66s-1.35-.66-2.39-.66c-1.61,0-2.61.41-3,1.23h-5.37c.18-1.55.96-2.81,2.35-3.78,1.39-.97,3.41-1.45,6.06-1.45,1.85,0,3.41.28,4.67.83s2.2,1.32,2.82,2.3c.62.98.93,2.12.93,3.4v1.7c0,.27.05.45.16.56s.27.16.5.16c.2,0,.38-.03.56-.1v4.25c-.63.23-1.34.35-2.12.35-1.16,0-2.02-.24-2.61-.71-.59-.48-.88-1.1-.88-1.89h-.49v.08c0,.68-.46,1.27-1.39,1.77s-2.43.75-4.51.75c-1.94,0-3.37-.35-4.29-1.05ZM208.85,760.77v-.5c-1.01-.28-2.16-.42-3.44-.42-.91,0-1.52.06-1.83.17-.31.12-.46.28-.46.5s.15.38.46.5c.31.12.92.17,1.83.17,1.28,0,2.43-.14,3.44-.42Z"/>
    <path class="st8" d="M229.86,757.82c.99,0,1.78.29,2.38.86.59.58.89,1.31.89,2.21,0,2.3-1.47,3.45-4.42,3.45h-11.81v-12.75h11.49c1.43,0,2.5.27,3.2.83.7.55,1.05,1.28,1.05,2.2,0,.8-.25,1.45-.74,1.95s-1.14.75-1.94.75h-.24v.5h.15,0ZM222.03,755.09v1.45h4.44c.24,0,.44-.07.59-.2s.22-.31.22-.53-.07-.39-.22-.52-.34-.2-.59-.2h-4.44ZM226.86,760.84c.29,0,.52-.07.67-.21s.23-.33.23-.56-.08-.42-.23-.56-.38-.21-.67-.21h-4.83v1.55h4.83Z"/>
    <path class="st8" d="M245.64,757.67l5.1,6.67h-6.59l-4.07-6.08v6.08h-5.37v-12.75h5.37v5.6l3.95-5.6h6.47l-4.86,6.08Z"/>
    <path class="st8" d="M251.72,764.34v-12.75h5.12v4.38c0,1.23-.06,2.25-.18,3.05s-.3,1.58-.55,2.33h.49l3.68-9.75h8.22v12.75h-5.12v-4.38c0-1.23.06-2.25.18-3.05s.31-1.58.55-2.33h-.49l-3.68,9.75h-8.22Z"/>
    <path class="st8" d="M109.56,820.48c-.67-.66-1.01-1.5-1.01-2.51s.34-1.85,1.01-2.51,1.56-.99,2.65-.99,1.97.33,2.65.99c.67.66,1.01,1.5,1.01,2.51s-.34,1.85-1.01,2.51c-.68.66-1.56.99-2.65.99s-1.97-.33-2.65-.99Z"/>
    <path class="st8" d="M129.3,823.79c-1.31-.6-2.3-1.41-2.96-2.44-.67-1.03-1-2.15-1-3.39s.33-2.36,1-3.39,1.65-1.84,2.96-2.44,2.88-.9,4.72-.9c1.64,0,3.1.25,4.37.74,1.27.49,2.28,1.18,3.03,2.06s1.18,1.9,1.29,3.05h-5.37c-.13-.45-.48-.83-1.04-1.14s-1.32-.46-2.28-.46c-1.04,0-1.85.24-2.44.73-.59.48-.88,1.07-.88,1.75s.29,1.27.88,1.75c.59.48,1.4.72,2.44.72.96,0,1.72-.15,2.28-.46s.91-.69,1.04-1.14h5.37c-.11,1.15-.54,2.17-1.29,3.05s-1.76,1.57-3.03,2.06-2.72.74-4.37.74c-1.84,0-3.41-.3-4.72-.9h0Z"/>
    <path class="st8" d="M144.53,829.09v-17.5h5.37l-.73,3.25h.49c.39-1.22,1.07-2.12,2.03-2.71.96-.59,2.23-.89,3.81-.89,1.32,0,2.48.28,3.48.84s1.77,1.35,2.32,2.36.82,2.19.82,3.53-.27,2.51-.82,3.52c-.54,1.02-1.32,1.8-2.32,2.36s-2.16.84-3.48.84c-1.58,0-2.85-.3-3.81-.89-.96-.59-1.63-1.5-2.03-2.71h-.49c.49,1.57.73,3.11.73,4.62v3.38h-5.37ZM155.87,819.74c.58-.47.87-1.06.87-1.77s-.29-1.31-.87-1.78c-.58-.47-1.41-.7-2.5-.7s-1.9.23-2.48.7c-.58.47-.87,1.06-.87,1.78s.29,1.31.87,1.77c.58.47,1.4.7,2.48.7s1.92-.23,2.5-.7Z"/>
    <path class="st8" d="M181.16,819.34h-12.25c.55.98,1.75,1.47,3.59,1.47.96,0,1.68-.07,2.16-.2.48-.13.9-.31,1.26-.52h5.12c-.24.7-.7,1.4-1.35,2.1s-1.6,1.29-2.82,1.78c-1.22.48-2.71.72-4.46.72s-3.41-.3-4.72-.9c-1.31-.6-2.3-1.41-2.98-2.43s-1.01-2.15-1.01-3.4.34-2.38,1.01-3.4,1.68-1.83,3-2.42,2.92-.9,4.77-.9,3.46.3,4.78.9c1.32.6,2.31,1.42,2.99,2.45.67,1.03,1.01,2.18,1.01,3.45,0,.38-.03.82-.1,1.3h0ZM168.91,816.59h7.12c-.55-.98-1.74-1.48-3.56-1.48s-3.01.49-3.56,1.48Z"/>
    <path class="st8" d="M185,822.91c-1.44-1.19-2.16-2.8-2.16-4.81,0-1.13.27-2.14.81-3.03.54-.88,1.33-1.58,2.38-2.08s2.31-.75,3.79-.75c1.61,0,2.83.22,3.65.66s1.42,1.07,1.79,1.89h.37v-.18c0-.65-.22-1.25-.66-1.8s-1.14-.99-2.1-1.33c-.96-.33-2.18-.5-3.66-.5-2.11,0-4.16.33-6.12,1v-4.5c1.81-.67,3.88-1,6.22-1s4.47.4,6.15,1.21c1.67.81,2.94,1.95,3.78,3.41.85,1.47,1.27,3.2,1.27,5.2,0,2.13-.49,3.88-1.46,5.23-.75,1.03-1.76,1.82-3.03,2.35s-2.8.8-4.59.8c-2.85,0-4.99-.6-6.43-1.79v.02h0ZM194.28,819.87c.57-.38.85-.87.85-1.45s-.28-1.07-.85-1.46-1.44-.59-2.61-.59-2.04.2-2.61.59-.85.88-.85,1.46.28,1.07.85,1.45,1.44.58,2.61.58,2.04-.19,2.61-.58Z"/>
    <path class="st8" d="M214,815.47v-3.88h5.37v12.75h-5.37v-4.25h-5.93v4.25h-5.37v-12.75h5.37v3.88h5.93Z"/>
    <path class="st8" d="M238.91,819.34h-12.25c.55.98,1.75,1.47,3.59,1.47.96,0,1.68-.07,2.16-.2.48-.13.9-.31,1.26-.52h5.12c-.24.7-.7,1.4-1.35,2.1s-1.6,1.29-2.82,1.78c-1.22.48-2.71.72-4.46.72s-3.41-.3-4.72-.9c-1.31-.6-2.3-1.41-2.98-2.43s-1.01-2.15-1.01-3.4.34-2.38,1.01-3.4,1.68-1.83,3-2.42,2.92-.9,4.77-.9,3.46.3,4.78.9c1.32.6,2.31,1.42,2.99,2.45.67,1.03,1.01,2.18,1.01,3.45,0,.38-.03.82-.1,1.3h0ZM226.66,816.59h7.12c-.55-.98-1.74-1.48-3.56-1.48s-3.01.49-3.56,1.48Z"/>
    <path class="st8" d="M257.94,819.34h-12.25c.55.98,1.75,1.47,3.59,1.47.96,0,1.68-.07,2.16-.2.48-.13.9-.31,1.26-.52h5.12c-.24.7-.7,1.4-1.35,2.1s-1.6,1.29-2.82,1.78c-1.22.48-2.71.72-4.46.72s-3.41-.3-4.72-.9c-1.31-.6-2.3-1.41-2.98-2.43s-1.01-2.15-1.01-3.4.34-2.38,1.01-3.4,1.68-1.83,3-2.42,2.92-.9,4.77-.9,3.46.3,4.78.9c1.32.6,2.31,1.42,2.99,2.45.67,1.03,1.01,2.18,1.01,3.45,0,.38-.03.82-.1,1.3h0ZM245.69,816.59h7.12c-.55-.98-1.74-1.48-3.56-1.48s-3.01.49-3.56,1.48Z"/>
    <path class="st8" d="M279.42,817.82c.99,0,1.78.29,2.38.86.59.58.89,1.31.89,2.21,0,2.3-1.47,3.45-4.42,3.45h-11.81v-12.75h11.49c1.43,0,2.5.27,3.2.83.7.55,1.05,1.28,1.05,2.2,0,.8-.25,1.45-.74,1.95s-1.14.75-1.94.75h-.24v.5h.15-.01ZM271.58,815.09v1.45h4.44c.24,0,.44-.07.59-.2s.22-.31.22-.53-.07-.39-.22-.52-.34-.2-.59-.2h-4.44ZM276.41,820.84c.29,0,.52-.07.67-.21.15-.14.23-.33.23-.56s-.08-.42-.23-.56c-.15-.14-.38-.21-.67-.21h-4.83v1.55h4.83Z"/>
    <path class="st8" d="M284.27,829.09v-17.5h5.37l-.73,3.25h.49c.39-1.22,1.07-2.12,2.03-2.71s2.23-.89,3.81-.89c1.32,0,2.48.28,3.48.84s1.77,1.35,2.32,2.36.82,2.19.82,3.53-.27,2.51-.82,3.52c-.54,1.02-1.32,1.8-2.32,2.36s-2.16.84-3.48.84c-1.58,0-2.85-.3-3.81-.89s-1.63-1.5-2.03-2.71h-.49c.49,1.57.73,3.11.73,4.62v3.38h-5.37ZM295.6,819.74c.58-.47.87-1.06.87-1.77s-.29-1.31-.87-1.78c-.58-.47-1.41-.7-2.5-.7s-1.9.23-2.48.7c-.58.47-.87,1.06-.87,1.78s.29,1.31.87,1.77c.58.47,1.4.7,2.48.7s1.92-.23,2.5-.7Z"/>
    <path class="st8" d="M320.89,819.34h-12.25c.55.98,1.75,1.47,3.59,1.47.96,0,1.68-.07,2.16-.2s.9-.31,1.26-.52h5.12c-.24.7-.7,1.4-1.35,2.1s-1.6,1.29-2.82,1.78c-1.22.48-2.71.72-4.46.72s-3.41-.3-4.72-.9c-1.31-.6-2.3-1.41-2.98-2.43-.68-1.02-1.01-2.15-1.01-3.4s.34-2.38,1.01-3.4,1.68-1.83,3-2.42,2.92-.9,4.77-.9,3.46.3,4.78.9c1.32.6,2.31,1.42,2.99,2.45.67,1.03,1.01,2.18,1.01,3.45,0,.38-.03.82-.1,1.3h0ZM308.65,816.59h7.12c-.55-.98-1.74-1.48-3.56-1.48s-3.01.49-3.56,1.48Z"/>
    <path class="st8" d="M323.07,824.34v-12.75h7.88l1.32,5.47c.29,1.17.44,2.01.44,2.53v.12h.49v-.12c0-.52.15-1.36.44-2.53l1.32-5.47h7.88v12.75h-5.12v-5.62c0-1.5.16-2.88.49-4.12h-.49l-2.27,8.12h-4.98l-2.27-8.12h-.49c.33,1.25.49,2.62.49,4.12v5.62h-5.13Z"/>
    <path class="st8" d="M360.15,811.59v12.75h-5.37v-3.75h-1.56c-.36,0-.67.09-.93.26-.26.17-.44.42-.54.74l-.88,2.75h-6.59l.78-1.78c.37-.83.79-1.43,1.26-1.79s1.11-.55,1.94-.56v-.5c-1.07-.07-1.92-.45-2.55-1.15s-.94-1.54-.94-2.52c0-1.38.49-2.47,1.46-3.26.98-.79,2.49-1.19,4.54-1.19h9.38,0ZM355.27,817.72v-2.38h-3.81c-.41,0-.73.11-.96.34-.24.23-.35.51-.35.86s.12.63.35.85c.24.22.56.33.96.33h3.81Z"/>
    <path class="st8" d="M370.85,822.91c-1.44-1.19-2.16-2.8-2.16-4.81,0-1.13.27-2.14.8-3.03.54-.88,1.33-1.58,2.38-2.08,1.05-.5,2.31-.75,3.79-.75,1.61,0,2.83.22,3.65.66s1.42,1.07,1.79,1.89h.37v-.18c0-.65-.22-1.25-.66-1.8s-1.14-.99-2.1-1.33c-.96-.33-2.18-.5-3.66-.5-2.12,0-4.16.33-6.12,1v-4.5c1.8-.67,3.88-1,6.22-1s4.47.4,6.15,1.21c1.67.81,2.94,1.95,3.78,3.41.85,1.47,1.27,3.2,1.27,5.2,0,2.13-.49,3.88-1.46,5.23-.75,1.03-1.76,1.82-3.03,2.35s-2.8.8-4.59.8c-2.85,0-4.99-.6-6.43-1.79v.02h.01ZM380.14,819.87c.57-.38.85-.87.85-1.45s-.28-1.07-.85-1.46-1.44-.59-2.61-.59-2.04.2-2.61.59-.85.88-.85,1.46.29,1.07.85,1.45c.57.38,1.44.58,2.61.58s2.04-.19,2.61-.58Z"/>
    <path class="st8" d="M392.01,823.79c-1.34-.6-2.35-1.41-3.04-2.43-.68-1.02-1.02-2.15-1.02-3.4s.34-2.38,1.02-3.4,1.7-1.83,3.04-2.42,2.97-.9,4.89-.9,3.55.3,4.89.9,2.35,1.41,3.04,2.42c.68,1.02,1.02,2.15,1.02,3.4s-.34,2.38-1.02,3.4-1.7,1.83-3.04,2.43-2.97.9-4.89.9-3.55-.3-4.89-.9ZM399.57,819.74c.61-.47.92-1.06.92-1.77s-.31-1.29-.93-1.76-1.5-.71-2.66-.71-2.04.24-2.66.71-.93,1.06-.93,1.76.3,1.31.92,1.77c.61.47,1.5.7,2.67.7s2.06-.23,2.67-.7h0Z"/>
    <path class="st8" d="M411.28,823.79c-1.31-.6-2.3-1.41-2.96-2.44-.67-1.03-1-2.15-1-3.39s.33-2.36,1-3.39,1.66-1.84,2.96-2.44,2.88-.9,4.72-.9c1.64,0,3.1.25,4.37.74s2.28,1.18,3.03,2.06,1.18,1.9,1.29,3.05h-5.37c-.13-.45-.48-.83-1.04-1.14s-1.32-.46-2.28-.46c-1.04,0-1.85.24-2.44.73s-.88,1.07-.88,1.75.29,1.27.88,1.75,1.4.72,2.44.72c.96,0,1.72-.15,2.28-.46s.91-.69,1.04-1.14h5.37c-.11,1.15-.54,2.17-1.29,3.05s-1.76,1.57-3.03,2.06-2.72.74-4.37.74c-1.84,0-3.41-.3-4.72-.9h0Z"/>
    <path class="st8" d="M435.28,824.34h-5.37v-8.12h-4.86v-4.62h15.08v4.62h-4.86v8.12h0Z"/>
    <path class="st8" d="M442.26,823.64c-.93-.7-1.39-1.64-1.39-2.83s.46-2.1,1.39-2.8c.93-.7,2.36-1.05,4.29-1.05,1.27,0,2.31.1,3.11.3s1.61.49,2.43.88v-.58c0-.67-.28-1.22-.83-1.66s-1.35-.66-2.39-.66c-1.61,0-2.61.41-3,1.23h-5.37c.18-1.55.96-2.81,2.35-3.78,1.39-.97,3.41-1.45,6.06-1.45,1.85,0,3.41.28,4.67.83s2.2,1.32,2.82,2.3.93,2.12.93,3.4v1.7c0,.27.05.45.16.56s.27.16.5.16c.2,0,.38-.03.56-.1v4.25c-.63.23-1.34.35-2.12.35-1.16,0-2.02-.24-2.61-.71-.59-.48-.88-1.1-.88-1.89h-.49v.08c0,.68-.46,1.27-1.39,1.77-.93.5-2.43.75-4.51.75-1.94,0-3.37-.35-4.29-1.05ZM452.09,820.77v-.5c-1.01-.28-2.16-.42-3.44-.42-.91,0-1.52.06-1.83.17-.31.12-.46.28-.46.5s.16.38.46.5c.31.12.92.17,1.83.17,1.29,0,2.43-.14,3.44-.42Z"/>
    <path class="st8" d="M473.1,817.82c.99,0,1.79.29,2.38.86.59.58.89,1.31.89,2.21,0,2.3-1.47,3.45-4.42,3.45h-11.81v-12.75h11.49c1.43,0,2.5.27,3.2.83.7.55,1.05,1.28,1.05,2.2,0,.8-.25,1.45-.74,1.95s-1.14.75-1.94.75h-.24v.5h.15-.01ZM465.27,815.09v1.45h4.44c.24,0,.44-.07.59-.2s.22-.31.22-.53-.07-.39-.22-.52-.34-.2-.59-.2h-4.44ZM470.1,820.84c.29,0,.52-.07.67-.21s.23-.33.23-.56-.08-.42-.23-.56-.38-.21-.67-.21h-4.83v1.55h4.83Z"/>
    <path class="st8" d="M488.88,817.67l5.1,6.67h-6.59l-4.07-6.08v6.08h-5.37v-12.75h5.37v5.6l3.95-5.6h6.47l-4.86,6.08h0Z"/>
    <path class="st8" d="M494.96,824.34v-12.75h5.12v4.38c0,1.23-.06,2.25-.18,3.05s-.3,1.58-.55,2.33h.49l3.68-9.75h8.22v12.75h-5.12v-4.38c0-1.23.06-2.25.18-3.05s.3-1.58.55-2.33h-.49l-3.68,9.75h-8.22Z"/>
    <path class="st8" d="M144.16,846.09c-.79.8-1.74,1.32-2.84,1.55-1.11.23-2.53.39-4.27.47-1.07.05-1.93.12-2.56.2s-1.19.24-1.66.48c-.47.23-.78.58-.93,1.05h12.96v4.5h-18.91v-3.53c0-1.8.44-3.15,1.31-4.04.87-.89,1.89-1.47,3.07-1.73,1.18-.26,2.66-.44,4.45-.54,1.07-.07,1.9-.14,2.48-.22.58-.08,1.05-.24,1.43-.48.37-.23.56-.58.56-1.05,0-.52-.27-.92-.82-1.21-.54-.29-1.51-.44-2.89-.44-1.29,0-2.23.22-2.83.65-.6.43-.9,1-.9,1.7v.38h-6.1v-.5c0-2.08.81-3.75,2.42-4.99,1.61-1.24,4.08-1.86,7.42-1.86,2.28,0,4.15.27,5.61.8s2.53,1.25,3.2,2.15,1,1.92,1,3.05c0,1.6-.39,2.8-1.18,3.6h-.02Z"/>
    <path class="st8" d="M158.39,848.67l-11.35,2.67v-4.5l11.35-2.67v4.5Z"/>
    <path class="st8" d="M162.71,853.13c-1.5-1.04-2.24-2.46-2.24-4.26v-.27h6.1v.1c0,.42.24.75.73,1,.49.25,1.38.38,2.68.38,2.28,0,3.42-.59,3.42-1.77s-1.21-1.78-3.64-1.78c-2.08,0-3.31.28-3.68.83h-5.86l1.22-10.5h17.45v4.5h-13.03l-.49,3.65h.41c.36-.73,1.01-1.31,1.95-1.72.94-.42,2.33-.62,4.17-.62,2.6,0,4.52.5,5.75,1.5s1.84,2.4,1.84,4.2c0,2.03-.74,3.6-2.22,4.7-1.48,1.1-3.92,1.65-7.32,1.65s-5.75-.52-7.25-1.56v-.03h.01Z"/>
    <path class="st8" d="M199.21,845.47v-3.88h5.37v12.75h-5.37v-4.25h-5.93v4.25h-5.37v-12.75h5.37v3.88h5.93Z"/>
    <path class="st8" d="M224.13,849.34h-12.25c.55.98,1.75,1.47,3.59,1.47.96,0,1.68-.07,2.16-.2.48-.13.9-.31,1.26-.52h5.12c-.24.7-.7,1.4-1.35,2.1s-1.6,1.29-2.82,1.78c-1.22.48-2.71.72-4.46.72s-3.41-.3-4.72-.9c-1.31-.6-2.3-1.41-2.98-2.43s-1.01-2.15-1.01-3.4.34-2.38,1.01-3.4,1.68-1.83,3-2.42,2.92-.9,4.77-.9,3.46.3,4.78.9c1.32.6,2.31,1.42,2.99,2.45.67,1.03,1.01,2.18,1.01,3.45,0,.38-.03.82-.1,1.3h0ZM211.88,846.59h7.12c-.55-.98-1.74-1.48-3.56-1.48s-3.01.49-3.56,1.48Z"/>
    <path class="st8" d="M227.97,852.91c-1.44-1.19-2.16-2.8-2.16-4.81,0-1.13.27-2.14.81-3.03.54-.88,1.33-1.58,2.38-2.08s2.31-.75,3.79-.75c1.61,0,2.83.22,3.65.66s1.42,1.07,1.79,1.89h.37v-.18c0-.65-.22-1.25-.66-1.8s-1.14-.99-2.1-1.33c-.96-.33-2.18-.5-3.66-.5-2.11,0-4.16.33-6.12,1v-4.5c1.81-.67,3.88-1,6.22-1s4.47.4,6.15,1.21c1.67.81,2.94,1.95,3.78,3.41.85,1.47,1.27,3.2,1.27,5.2,0,2.13-.49,3.88-1.46,5.23-.75,1.03-1.76,1.82-3.03,2.35s-2.8.8-4.59.8c-2.85,0-4.99-.6-6.43-1.79v.02h0ZM237.25,849.87c.57-.38.85-.87.85-1.45s-.28-1.07-.85-1.46-1.44-.59-2.61-.59-2.04.2-2.61.59-.85.88-.85,1.46.28,1.07.85,1.45,1.44.58,2.61.58,2.04-.19,2.61-.58Z"/>
    <path class="st8" d="M262.53,849.34h-12.25c.55.98,1.75,1.47,3.59,1.47.96,0,1.68-.07,2.16-.2s.9-.31,1.26-.52h5.12c-.24.7-.7,1.4-1.35,2.1s-1.6,1.29-2.82,1.78c-1.22.48-2.71.72-4.46.72s-3.41-.3-4.72-.9c-1.31-.6-2.3-1.41-2.98-2.43s-1.01-2.15-1.01-3.4.34-2.38,1.01-3.4,1.68-1.83,3-2.42,2.92-.9,4.77-.9,3.46.3,4.78.9c1.32.6,2.31,1.42,2.99,2.45.67,1.03,1.01,2.18,1.01,3.45,0,.38-.03.82-.1,1.3h0ZM250.28,846.59h7.12c-.55-.98-1.74-1.48-3.56-1.48s-3.01.49-3.56,1.48Z"/>
    <path class="st8" d="M263.12,854.27v-4.62c.26.12.59.17.98.17.54,0,.94-.12,1.2-.35s.42-.6.49-1.1l.81-6.77h14.1v12.75h-5.37v-8.12h-4.12l-.42,3.55c-.37,3.28-2.08,4.92-5.12,4.92-1.14,0-1.98-.14-2.54-.42h-.01Z"/>
    <path class="st8" d="M292.71,844.59c1.87,0,3.28.43,4.23,1.29s1.43,2.05,1.43,3.59-.48,2.73-1.43,3.59c-.95.86-2.36,1.29-4.23,1.29h-9.35v-12.75h5.37v3h3.98ZM291.79,850.47c.41,0,.71-.09.92-.26.2-.17.31-.42.31-.74s-.1-.56-.31-.74c-.2-.18-.51-.26-.92-.26h-3.42v2h3.42Z"/>
    <path class="st8" d="M109.56,910.48c-.67-.66-1.01-1.5-1.01-2.51s.34-1.85,1.01-2.51,1.56-.99,2.65-.99,1.97.33,2.65.99c.67.66,1.01,1.5,1.01,2.51s-.34,1.85-1.01,2.51c-.68.66-1.56.99-2.65.99s-1.97-.33-2.65-.99Z"/>
    <path class="st8" d="M137.65,909.34h5v5h-16.84v-5h5.86v-1.25c0-1.17.16-2.23.48-3.2.32-.97.81-2.15,1.48-3.55h-.49c-.57,1.18-1.13,2.1-1.67,2.75-.55.65-1.17,1.12-1.88,1.41s-1.6.44-2.67.44h-.24v-5.12h1.22c2.93,0,4.39-1.28,4.39-3.85v-.12h5.37v12.5h0Z"/>
    <path class="st8" d="M147.49,913.5c-1.51-.79-2.68-1.88-3.49-3.25s-1.22-2.93-1.22-4.66.41-3.29,1.22-4.66,1.98-2.46,3.49-3.25c1.51-.79,3.28-1.19,5.29-1.19s3.78.4,5.29,1.19,2.68,1.88,3.49,3.25c.81,1.38,1.22,2.93,1.22,4.66s-.41,3.29-1.22,4.66c-.81,1.38-1.98,2.46-3.49,3.25-1.51.79-3.28,1.19-5.29,1.19s-3.78-.4-5.29-1.19ZM155.64,908.59c.7-.73,1.05-1.73,1.05-3s-.35-2.27-1.05-3-1.65-1.1-2.85-1.1-2.16.37-2.85,1.1c-.7.73-1.05,1.73-1.05,3s.35,2.27,1.05,3,1.65,1.1,2.85,1.1,2.15-.37,2.85-1.1Z"/>
    <path class="st8" d="M169.69,913.5c-1.51-.79-2.68-1.88-3.49-3.25s-1.22-2.93-1.22-4.66.41-3.29,1.22-4.66,1.98-2.46,3.49-3.25c1.51-.79,3.28-1.19,5.29-1.19s3.78.4,5.29,1.19,2.68,1.88,3.49,3.25c.81,1.38,1.22,2.93,1.22,4.66s-.41,3.29-1.22,4.66c-.81,1.38-1.98,2.46-3.49,3.25-1.51.79-3.28,1.19-5.29,1.19s-3.78-.4-5.29-1.19ZM177.84,908.59c.7-.73,1.05-1.73,1.05-3s-.35-2.27-1.05-3-1.65-1.1-2.85-1.1-2.16.37-2.85,1.1c-.7.73-1.05,1.73-1.05,3s.35,2.27,1.05,3,1.65,1.1,2.85,1.1,2.15-.37,2.85-1.1Z"/>
    <path class="st8" d="M189,904.91c-.74-.39-1.31-.93-1.71-1.61-.4-.68-.6-1.45-.6-2.3s.2-1.62.6-2.3c.4-.68.97-1.22,1.71-1.61s1.6-.59,2.57-.59,1.83.2,2.57.59,1.31.93,1.71,1.61c.4.68.6,1.45.6,2.3s-.2,1.62-.6,2.3c-.4.68-.97,1.22-1.71,1.61s-1.6.59-2.57.59-1.83-.2-2.57-.59ZM192.92,914.34h-4.03l12.69-17.5h4.03l-12.69,17.5ZM192.54,901.98c.25-.26.38-.59.38-.99s-.13-.73-.38-.99-.57-.39-.96-.39-.71.13-.96.39-.38.59-.38.99.13.73.38.99.57.39.96.39.71-.13.96-.39ZM200.35,914.11c-.74-.39-1.31-.93-1.71-1.61-.4-.68-.6-1.45-.6-2.3s.2-1.62.6-2.3c.4-.68.97-1.22,1.71-1.61s1.6-.59,2.57-.59,1.83.2,2.57.59,1.31.93,1.71,1.61.6,1.45.6,2.3-.2,1.62-.6,2.3c-.4.68-.97,1.22-1.71,1.61s-1.6.59-2.57.59-1.83-.2-2.57-.59ZM203.89,911.18c.25-.26.38-.59.38-.99s-.13-.73-.38-.99-.57-.39-.96-.39-.71.13-.96.39-.38.59-.38.99.13.73.38.99.57.39.96.39.71-.13.96-.39Z"/>
    <path class="st8" d="M221.47,914.34h-5.37v-12.75h16.3v12.75h-5.37v-8.12h-5.56v8.12h0Z"/>
    <path class="st8" d="M235.08,919.09v-17.5h5.37l-.73,3.25h.49c.39-1.22,1.07-2.12,2.03-2.71.96-.59,2.23-.89,3.81-.89,1.32,0,2.48.28,3.48.84s1.77,1.35,2.32,2.36.82,2.19.82,3.53-.27,2.51-.82,3.52c-.54,1.02-1.32,1.8-2.32,2.36s-2.16.84-3.48.84c-1.58,0-2.85-.3-3.81-.89-.96-.59-1.63-1.5-2.03-2.71h-.49c.49,1.57.73,3.11.73,4.62v3.38h-5.37ZM246.41,909.74c.58-.47.87-1.06.87-1.77s-.29-1.31-.87-1.78c-.58-.47-1.41-.7-2.5-.7s-1.9.23-2.48.7c-.58.47-.87,1.06-.87,1.78s.29,1.31.87,1.77c.58.47,1.4.7,2.48.7s1.92-.23,2.5-.7Z"/>
    <path class="st8" d="M271.7,909.34h-12.25c.55.98,1.75,1.47,3.59,1.47.96,0,1.68-.07,2.16-.2s.9-.31,1.26-.52h5.12c-.24.7-.7,1.4-1.35,2.1s-1.6,1.29-2.82,1.78c-1.22.48-2.71.72-4.46.72s-3.41-.3-4.72-.9c-1.31-.6-2.3-1.41-2.98-2.43s-1.01-2.15-1.01-3.4.34-2.38,1.01-3.4,1.68-1.83,3-2.42,2.92-.9,4.77-.9,3.46.3,4.78.9c1.32.6,2.31,1.42,2.99,2.45.67,1.03,1.01,2.18,1.01,3.45,0,.38-.03.82-.1,1.3h0ZM259.46,906.59h7.12c-.55-.98-1.74-1.48-3.56-1.48s-3.01.49-3.56,1.48Z"/>
    <path class="st8" d="M275.55,912.91c-1.44-1.19-2.16-2.8-2.16-4.81,0-1.13.27-2.14.81-3.03.54-.88,1.33-1.58,2.38-2.08s2.31-.75,3.79-.75c1.61,0,2.83.22,3.65.66s1.42,1.07,1.79,1.89h.37v-.18c0-.65-.22-1.25-.66-1.8s-1.14-.99-2.1-1.33c-.96-.33-2.18-.5-3.66-.5-2.11,0-4.16.33-6.12,1v-4.5c1.81-.67,3.88-1,6.22-1s4.47.4,6.15,1.21c1.67.81,2.94,1.95,3.78,3.41.85,1.47,1.27,3.2,1.27,5.2,0,2.13-.49,3.88-1.46,5.23-.75,1.03-1.76,1.82-3.03,2.35s-2.8.8-4.59.8c-2.85,0-4.99-.6-6.43-1.79v.02h0ZM284.83,909.87c.57-.38.85-.87.85-1.45s-.28-1.07-.85-1.46-1.44-.59-2.61-.59-2.04.2-2.61.59-.85.88-.85,1.46.28,1.07.85,1.45,1.44.58,2.61.58,2.04-.19,2.61-.58Z"/>
    <path class="st8" d="M296.7,913.79c-1.34-.6-2.35-1.41-3.04-2.43-.68-1.02-1.02-2.15-1.02-3.4s.34-2.38,1.02-3.4,1.7-1.83,3.04-2.42c1.34-.6,2.97-.9,4.89-.9s3.55.3,4.89.9c1.34.6,2.35,1.41,3.04,2.42s1.02,2.15,1.02,3.4-.34,2.38-1.02,3.4-1.7,1.83-3.04,2.43-2.97.9-4.89.9-3.55-.3-4.89-.9ZM304.27,909.74c.61-.47.92-1.06.92-1.77s-.31-1.29-.93-1.76-1.5-.71-2.66-.71-2.04.24-2.66.71-.93,1.06-.93,1.76.3,1.31.92,1.77c.61.47,1.5.7,2.67.7s2.06-.23,2.67-.7h0Z"/>
    <path class="st8" d="M317.99,914.34h-5.37v-12.75h16.3v12.75h-5.37v-8.12h-5.56v8.12Z"/>
    <path class="st8" d="M330.51,914.27v-4.62c.26.12.58.17.98.17.54,0,.94-.12,1.2-.35s.42-.6.49-1.1l.81-6.77h14.1v12.75h-5.37v-8.12h-4.12l-.42,3.55c-.37,3.28-2.08,4.92-5.12,4.92-1.14,0-1.98-.14-2.54-.42h-.01Z"/>
    <path class="st8" d="M351.66,913.64c-.93-.7-1.39-1.64-1.39-2.83s.46-2.1,1.39-2.8c.93-.7,2.36-1.05,4.29-1.05,1.27,0,2.31.1,3.11.3.81.2,1.61.49,2.43.88v-.58c0-.67-.28-1.22-.83-1.66s-1.35-.66-2.39-.66c-1.61,0-2.61.41-3,1.23h-5.37c.18-1.55.96-2.81,2.36-3.78,1.39-.97,3.41-1.45,6.06-1.45,1.85,0,3.41.28,4.67.83s2.2,1.32,2.82,2.3.93,2.12.93,3.4v1.7c0,.27.05.45.16.56.11.11.27.16.5.16.2,0,.38-.03.56-.1v4.25c-.63.23-1.34.35-2.12.35-1.16,0-2.03-.24-2.61-.71-.58-.48-.88-1.1-.88-1.89h-.49v.08c0,.68-.46,1.27-1.39,1.77-.93.5-2.43.75-4.51.75-1.94,0-3.37-.35-4.29-1.05h0ZM361.49,910.77v-.5c-1.01-.28-2.16-.42-3.44-.42-.91,0-1.52.06-1.83.17-.31.12-.46.28-.46.5s.15.38.46.5.92.17,1.83.17c1.28,0,2.43-.14,3.44-.42Z"/>
    <path class="st8" d="M377.33,914.34h-5.37v-8.12h-4.86v-4.62h15.08v4.62h-4.86v8.12h0Z"/>
    <path class="st8" d="M384.31,913.64c-.93-.7-1.39-1.64-1.39-2.83s.46-2.1,1.39-2.8c.93-.7,2.36-1.05,4.29-1.05,1.27,0,2.31.1,3.11.3s1.61.49,2.43.88v-.58c0-.67-.28-1.22-.83-1.66s-1.35-.66-2.39-.66c-1.61,0-2.61.41-3,1.23h-5.37c.18-1.55.96-2.81,2.35-3.78,1.39-.97,3.41-1.45,6.06-1.45,1.85,0,3.41.28,4.67.83s2.2,1.32,2.82,2.3.93,2.12.93,3.4v1.7c0,.27.05.45.16.56s.27.16.5.16c.2,0,.38-.03.56-.1v4.25c-.63.23-1.34.35-2.12.35-1.16,0-2.02-.24-2.61-.71-.59-.48-.88-1.1-.88-1.89h-.49v.08c0,.68-.46,1.27-1.39,1.77-.93.5-2.43.75-4.51.75-1.94,0-3.37-.35-4.29-1.05ZM394.14,910.77v-.5c-1.01-.28-2.16-.42-3.44-.42-.91,0-1.52.06-1.83.17-.31.12-.46.28-.46.5s.16.38.46.5c.31.12.92.17,1.83.17,1.29,0,2.43-.14,3.44-.42Z"/>
  </g>
  <g>
    <path class="st5" d="M94.36,448.13c0,54.15,43.9,98.05,98.05,98.05s98.05-43.9,98.05-98.05h0c0-54.15-43.9-98.05-98.05-98.05s-98.05,43.9-98.05,98.05h0Z"/>
    <path class="st0" d="M192.41,548.18c-13.5,0-26.61-2.65-38.96-7.87-11.92-5.04-22.63-12.26-31.81-21.45-9.19-9.19-16.41-19.89-21.45-31.81-5.22-12.34-7.87-25.44-7.87-38.96s2.65-26.61,7.87-38.96c5.04-11.92,12.26-22.63,21.45-31.81,9.19-9.19,19.89-16.41,31.81-21.45,12.34-5.22,25.44-7.87,38.96-7.87s26.61,2.71,38.96,7.93c11.92,5.04,22.63,12.26,31.81,21.45,9.19,9.19,16.41,19.89,21.45,31.81,5.22,12.34,7.87,25.44,7.87,38.96s-2.65,26.61-7.87,38.96c-5.04,11.92-12.26,22.63-21.45,31.81-9.19,9.19-19.89,16.41-31.81,21.45-12.34,5.18-25.44,7.81-38.96,7.81ZM192.41,352.1c-12.97,0-25.54,2.53-37.38,7.55-11.43,4.84-21.69,11.76-30.52,20.58-8.82,8.82-15.74,19.08-20.58,30.52-5,11.84-7.55,24.41-7.55,37.38s2.53,25.54,7.55,37.38c4.84,11.43,11.76,21.69,20.58,30.52,8.82,8.82,19.08,15.74,30.52,20.58,11.84,5,24.41,7.55,37.38,7.55s25.54-2.53,37.38-7.55c11.43-4.84,21.69-11.76,30.52-20.58,8.82-8.82,15.74-19.08,20.58-30.52,5-11.84,7.55-24.41,7.55-37.38s-2.53-25.54-7.55-37.38c-4.84-11.43-11.76-21.69-20.58-30.52-8.82-8.82-19.08-15.74-30.52-20.58-11.84-5-24.41-7.55-37.38-7.55h0Z"/>
    <path class="st8" d="M195.14,350.22c-12.04,14.27-22.95,33.05,3.06,33.05,41.97,0,31.04,30.92-15.95,33.13-47.01,2.21-33.76,35.35-7.25,38.65,16.31,2.04,22.14,10.34,24.24,18.23v.3c0,4.33.42,8.46,1.17,12.28v.08c0,.49.1.93.28,1.32,2.87,13.05,9.69,15.62,17.67,15.62,10.56,0,17.65-22.04,18.92-34.16,1.96-18.38,20.62-18.25,19.45-41.33-.34-6.66,17.06-6.9,29.99-5.87-11.35-40.35-47.88-70.12-91.6-71.32l.02.02h0Z"/>
    <path class="st0" d="M218.35,504.95c-7.37,0-16.23-1.94-19.61-17.02-.22-.57-.34-1.19-.36-1.84-.77-4.09-1.17-8.28-1.17-12.49v-.06c-2.63-9.51-10-14.92-22.46-16.47-7.06-.89-13.64-3.82-18.5-8.28-4.82-4.41-7.45-9.92-7.25-15.12.14-3.64,1.7-8.86,8.38-13.07,5.75-3.62,14.09-5.71,24.77-6.21,15.48-.73,25.09-4.43,30.44-7.43,6.19-3.46,9.84-7.81,9.73-11.62-.1-4.63-6.5-10.04-24.12-10.04-9.19,0-14.92-2.35-17.06-6.96-1.68-3.62-1.01-8.48,2-14.41,2.23-4.37,5.75-9.43,10.46-15.02.4-.47.99-.73,1.6-.71,10.93.3,21.63,2.35,31.81,6.09,9.86,3.62,19.04,8.78,27.32,15.32,8.2,6.48,15.3,14.15,21.13,22.81,5.91,8.8,10.36,18.42,13.22,28.6.18.63.04,1.32-.38,1.84-.42.51-1.07.79-1.72.73-14.07-1.13-24.51-.16-27.28,2.53-.51.49-.55.89-.55,1.21.69,13.56-5.26,19.87-10.52,25.44-4.17,4.43-8.12,8.6-8.92,16.19-.75,7.06-3.18,15.79-6.17,22.26-4.15,8.99-9.25,13.72-14.77,13.72h-.02ZM196.05,352.26c-9.35,11.23-13.34,19.87-11.25,24.37,1.78,3.8,8.26,4.61,13.4,4.61,8.7,0,15.62,1.27,20.56,3.78,4.8,2.45,7.51,6.07,7.59,10.22.12,5.42-4.17,10.99-11.8,15.24-5.73,3.2-15.95,7.16-32.22,7.93-18.01.85-28.96,6.6-29.3,15.4-.16,4.01,2,8.38,5.93,11.98,4.25,3.91,10.04,6.48,16.27,7.25,14.21,1.78,22.95,8.42,25.94,19.73.04.16.06.34.06.53v.3c0,4.01.38,8.01,1.13,11.9.02.12.04.26.04.38v.08c0,.18.04.34.1.49.06.12.1.26.14.4,2.55,11.64,8.14,14.02,15.7,14.02,5.08,0,9.15-7.12,11.11-11.35,3.42-7.41,5.28-15.95,5.81-20.99.95-8.94,5.57-13.82,10-18.54,5.16-5.46,10.04-10.64,9.43-22.46-.08-1.62.53-3.12,1.76-4.31,2.23-2.15,6.52-3.44,13.15-3.93,4.88-.36,10.12-.2,14.33.04-2.75-8.74-6.72-17.02-11.86-24.67-5.59-8.32-12.41-15.68-20.28-21.9-7.93-6.27-16.76-11.21-26.23-14.69-9.45-3.48-19.39-5.44-29.53-5.83h0l.02.02h0Z"/>
  </g>
  <g>
    <path class="st8" d="M113.57,329.79h-37.18v-99.95h112.22v99.95h-37.18v-67.96h-37.87v67.96h.01ZM80.52,233.55v92.52h28.92v-67.96h46.13v67.96h28.92v-92.52h-103.97,0Z"/>
    <path class="st8" d="M239.42,229.84h40.76l41.86,99.95h-38.97l-4.54-12.42h-37.45l-4.54,12.42h-38.97l41.86-99.95h0ZM238.04,313.65h43.51l4.54,12.42h29.88l-38.55-92.52h-35.25l-38.55,92.52h29.88l4.54-12.42h0ZM262.55,255.83c0,2.38.46,5.19,1.38,8.42.92,3.24,2.48,7.85,4.68,13.85l4.82,13.14h-27.26l4.82-13.14c2.2-6,3.76-10.61,4.68-13.85.92-3.23,1.38-6.04,1.38-8.42v-1.29h5.51v1.29h-.01ZM251.95,287.52h15.7l-2.89-8c-2.2-6.28-3.86-11.47-4.96-15.56-1.1,4.09-2.75,9.28-4.96,15.56l-2.89,8h0Z"/>
    <path class="st8" d="M368.16,329.79h-37.18v-99.95h37.18v32.27h39.93v-32.27h37.18v99.95h-37.18v-35.7h-39.93v35.7ZM335.11,233.55v92.52h28.92v-35.7h48.19v35.7h28.92v-92.52h-28.92v32.27h-48.19v-32.27h-28.92Z"/>
    <path class="st8" d="M500.34,329.79h-37.18v-99.95h37.18v37.41l25.89-37.41h44.89l-37.31,47.98,40.07,51.97h-46.13l-27.4-39.98v39.98h-.01ZM467.3,233.55v92.52h28.92v-41.26h5.51l28.23,41.26h35.94l-37.04-48.26,34.28-44.26h-34.7l-26.71,38.69h-5.51v-38.69h-28.92Z"/>
  </g>
  <g class="st4">
    <g class="st4">
      <path class="st8" d="M126.32,593.64h4.62v16.06h-10.56v-7.26h-21.78v7.26h-10.56v-16.06h1.89c1.14,0,2.04-.32,2.68-.95.65-.63,1.04-1.55,1.19-2.75l2.16-18.3h30.36v22ZM115.76,593.64v-13.2h-10.38l-.84,8.32c-.24,2.46-1.01,4.09-2.33,4.88h13.55Z"/>
      <path class="st8" d="M142.16,600.97c-3.14-1.39-5.5-3.3-7.08-5.72-1.58-2.42-2.38-5.15-2.38-8.21s.79-5.79,2.38-8.21c1.58-2.42,3.94-4.33,7.08-5.72,3.14-1.39,6.95-2.09,11.44-2.09s8.3.7,11.44,2.09c3.14,1.39,5.5,3.3,7.08,5.72,1.58,2.42,2.38,5.16,2.38,8.21s-.79,5.79-2.38,8.21-3.95,4.33-7.08,5.72c-3.14,1.39-6.95,2.09-11.44,2.09s-8.3-.7-11.44-2.09ZM160.97,592.25c1.69-1.33,2.53-3.07,2.53-5.21s-.84-3.88-2.53-5.21c-1.69-1.33-4.14-2-7.37-2s-5.68.67-7.37,2c-1.69,1.33-2.53,3.07-2.53,5.21s.84,3.88,2.53,5.21c1.69,1.33,4.14,2,7.37,2s5.68-.67,7.37-2Z"/>
      <path class="st8" d="M187.37,600.97c-3.1-1.39-5.43-3.3-7-5.72s-2.35-5.15-2.35-8.21.78-5.79,2.35-8.21c1.57-2.42,3.9-4.33,7-5.72,3.09-1.39,6.84-2.09,11.24-2.09,4.11,0,7.65.57,10.63,1.72,2.98,1.14,5.29,2.71,6.95,4.69,1.66,1.98,2.66,4.23,3.01,6.75h-11c-.18-.7-.63-1.39-1.36-2.05-.73-.66-1.79-1.21-3.17-1.65-1.38-.44-3.07-.66-5.06-.66-3.08,0-5.45.68-7.11,2.02-1.66,1.35-2.49,3.08-2.49,5.19s.83,3.84,2.49,5.19c1.66,1.35,4.03,2.02,7.11,2.02,1.99,0,3.68-.22,5.06-.66,1.38-.44,2.43-.99,3.17-1.65.73-.66,1.19-1.34,1.36-2.05h11c-.35,2.52-1.36,4.77-3.01,6.75-1.66,1.98-3.98,3.54-6.95,4.69-2.98,1.14-6.52,1.72-10.63,1.72-4.4,0-8.15-.7-11.24-2.09Z"/>
      <path class="st8" d="M241.2,602.44h-11v-21.78h-11.44v-9.02h33.88v9.02h-11.44v21.78Z"/>
      <path class="st8" d="M288.9,602.44h-11.66l-1.5-3.96h-13.46l-1.5,3.96h-11.66l13.38-30.8h13.02l13.38,30.8ZM265.45,590.12h7.13l-1.28-3.39c-.73-1.88-1.23-3.42-1.47-4.62-.25-1.2-.37-2.42-.37-3.65v-.22h-.88v.22c0,1.23-.13,2.45-.37,3.65-.25,1.2-.74,2.74-1.47,4.62l-1.28,3.39Z"/>
      <path class="st8" d="M319.83,586.64c2.58.21,4.53.97,5.85,2.29s1.98,3.04,1.98,5.15c0,5.57-3.86,8.36-11.57,8.36h-24.33v-30.8h24.6c3.46,0,6.03.65,7.7,1.94,1.67,1.29,2.51,3.05,2.51,5.28,0,1.94-.57,3.51-1.72,4.71-1.14,1.2-2.82,1.91-5.02,2.11v.97ZM302.32,579.78v3.52h10.96c.76,0,1.33-.15,1.72-.46.38-.31.57-.74.57-1.3s-.19-.99-.57-1.3c-.38-.31-.95-.46-1.72-.46h-10.96ZM314.29,594.3c.76,0,1.35-.18,1.76-.53.41-.35.62-.84.62-1.45s-.21-1.1-.62-1.45c-.41-.35-1-.53-1.76-.53h-11.97v3.96h11.97Z"/>
      <path class="st8" d="M353.58,586.38l12.8,16.06h-13.86l-10.12-14.3v14.3h-11v-30.8h11v13.42l9.68-13.42h13.42l-11.92,14.74Z"/>
      <path class="st8" d="M404.4,602.44h-11.66l-1.5-3.96h-13.46l-1.5,3.96h-11.66l13.38-30.8h13.02l13.38,30.8ZM380.95,590.12h7.13l-1.28-3.39c-.73-1.88-1.22-3.42-1.47-4.62-.25-1.2-.37-2.42-.37-3.65v-.22h-.88v.22c0,1.23-.12,2.45-.37,3.65-.25,1.2-.74,2.74-1.47,4.62l-1.28,3.39Z"/>
      <path class="st8" d="M428.38,602.44h-11v-30.8h35.86v30.8h-11v-21.78h-13.86v21.78Z"/>
      <path class="st8" d="M467.32,600.97c-3.14-1.39-5.5-3.3-7.08-5.72s-2.38-5.15-2.38-8.21.79-5.79,2.38-8.21c1.58-2.42,3.95-4.33,7.08-5.72,3.14-1.39,6.95-2.09,11.44-2.09s8.3.7,11.44,2.09c3.14,1.39,5.5,3.3,7.08,5.72,1.58,2.42,2.38,5.16,2.38,8.21s-.79,5.79-2.38,8.21-3.95,4.33-7.08,5.72-6.95,2.09-11.44,2.09-8.3-.7-11.44-2.09ZM486.13,592.25c1.69-1.33,2.53-3.07,2.53-5.21s-.84-3.88-2.53-5.21c-1.69-1.33-4.14-2-7.37-2s-5.68.67-7.37,2c-1.69,1.33-2.53,3.07-2.53,5.21s.84,3.88,2.53,5.21c1.69,1.33,4.14,2,7.37,2s5.68-.67,7.37-2Z"/>
    </g>
    <g class="st4">
      <path class="st8" d="M90.24,655.24v-30.8h16.94l3.26,13.73c.62,2.55.92,4.25.92,5.1v.53h.88v-.53c0-.85.31-2.55.92-5.1l3.26-13.73h16.94v30.8h-10.56v-13.64c0-2.43.11-4.45.33-6.05.22-1.6.55-3.1.99-4.51h-.88l-5.28,19.36h-12.32l-5.28-19.36h-.88c.44,1.41.77,2.91.99,4.51.22,1.6.33,3.62.33,6.05v13.64h-10.56Z"/>
      <path class="st8" d="M139.08,655.24v-30.8h10.56v14.52c0,2.11-.13,3.92-.4,5.43s-.65,2.93-1.14,4.25h.88l9.99-24.2h17.07v30.8h-10.56v-14.52c0-2.11.13-3.92.4-5.43.26-1.51.65-2.93,1.14-4.25h-.88l-9.99,24.2h-17.07Z"/>
      <path class="st8" d="M202.04,624.44c4.52,0,7.91.99,10.19,2.97,2.27,1.98,3.41,4.73,3.41,8.25s-1.14,6.27-3.41,8.25c-2.27,1.98-5.67,2.97-10.19,2.97h-9.28v8.36h-11v-30.8h20.28ZM201.47,638.3c1.03,0,1.81-.23,2.35-.7.54-.47.81-1.12.81-1.94s-.27-1.47-.81-1.94c-.54-.47-1.33-.7-2.35-.7h-9.37v5.28h9.37Z"/>
      <path class="st8" d="M240.37,624.44h12.54l-11.84,21.91c-1.7,3.14-3.72,5.51-6.05,7.11-2.33,1.6-5.21,2.4-8.65,2.4-1.23,0-2.32-.07-3.26-.2-.94-.13-1.89-.36-2.86-.68v-9.02c1.5.29,2.84.44,4.05.44,1.06,0,1.92-.09,2.6-.29.67-.19,1.2-.51,1.58-.95l-12.63-20.72h12.76l3.74,7.22c.79,1.53,1.35,2.89,1.67,4.09.32,1.2.48,2.42.48,3.65v.66h.88v-.66c0-1.23.14-2.44.42-3.63.28-1.19.75-2.56,1.43-4.11l3.12-7.22Z"/>
      <path class="st8" d="M265.18,640.87c-1-.95-1.5-2.16-1.5-3.63s.5-2.68,1.5-3.63c1-.95,2.29-1.43,3.87-1.43s2.92.48,3.92,1.43c1,.95,1.5,2.16,1.5,3.63s-.5,2.68-1.5,3.63c-1,.95-2.3,1.43-3.92,1.43s-2.88-.48-3.87-1.43ZM265.18,654.43c-1-.95-1.5-2.16-1.5-3.63s.5-2.68,1.5-3.63c1-.95,2.29-1.43,3.87-1.43s2.92.48,3.92,1.43c1,.95,1.5,2.16,1.5,3.63s-.5,2.68-1.5,3.63c-1,.95-2.3,1.43-3.92,1.43s-2.88-.48-3.87-1.43Z"/>
    </g>
  </g>
</svg>